SplineFontDB: 3.2
FontName: ClassWizMathCW-Regular
FullName: ClassWiz Math CW Regular
FamilyName: ClassWiz Math CW
Weight: Regular
Copyright: 
Version: Version 1.000
ItalicAngle: 0
UnderlinePosition: -21
UnderlineWidth: 8
Ascent: 130
Descent: 10
InvalidEm: 0
sfntRevision: 0x00010000
LayerCount: 2
Layer: 0 0 "Back" 1
Layer: 1 0 "Fore" 0
XUID: [1021 199 1599025585 9496]
StyleMap: 0x0040
FSType: 0
OS2Version: 4
OS2_WeightWidthSlopeOnly: 0
OS2_UseTypoMetrics: 1
CreationTime: 1688717740
ModificationTime: 1689078160
PfmFamily: 81
TTFWeight: 400
TTFWidth: 5
LineGap: 30
VLineGap: 0
Panose: 0 0 0 0 0 0 0 0 0 0
OS2TypoAscent: 130
OS2TypoAOffset: 0
OS2TypoDescent: -10
OS2TypoDOffset: 0
OS2TypoLinegap: 30
OS2WinAscent: 150
OS2WinAOffset: 0
OS2WinDescent: 20
OS2WinDOffset: 0
HheadAscent: 130
HheadAOffset: 0
HheadDescent: -10
HheadDOffset: 0
OS2SubXSize: 110
OS2SubYSize: 130
OS2SubXOff: 0
OS2SubYOff: 5
OS2SupXSize: 110
OS2SupYSize: 130
OS2SupXOff: 0
OS2SupYOff: 15
OS2StrikeYSize: -10
OS2StrikeYPos: 54
OS2CapHeight: 120
OS2XHeight: 90
OS2Vendor: '    '
OS2CodePages: 40040003.00000000
OS2UnicodeRanges: 20000007.1a070001.02000000.00000000
Lookup: 1 0 0 "'aalt' Access All Alternates lookup 0" { "'aalt' Access All Alternates lookup 0 subtable"  } ['aalt' ('DFLT' <'dflt' > 'hani' <'dflt' > 'kana' <'dflt' > 'latn' <'dflt' > ) ]
Lookup: 3 0 0 "'aalt' Access All Alternates lookup 1" { "'aalt' Access All Alternates lookup 1 subtable"  } ['aalt' ('DFLT' <'dflt' > 'hani' <'dflt' > 'kana' <'dflt' > 'latn' <'dflt' > ) ]
Lookup: 4 0 0 "'ccmp' Glyph Composition/Decomposition lookup 2" { "'ccmp' Glyph Composition/Decomposition lookup 2 subtable"  } ['ccmp' ('DFLT' <'dflt' > 'hani' <'dflt' > 'kana' <'dflt' > 'latn' <'dflt' > ) ]
Lookup: 1 0 0 "'ss01' Style Set 1 lookup 3" { "'ss01' Style Set 1 lookup 3 subtable"  } ['ss01' ('DFLT' <'dflt' > 'hani' <'dflt' > 'kana' <'dflt' > 'latn' <'dflt' > ) ]

StartChar: .notdef
Encoding: 931 -1 0
Width: 110
GlyphClass: 1
Flags: HMW
HStem: -10 10<10 90 10 100> 10 20<40 60 40 60> 60 10<40 60 50 60 50 70 50 60> 80 10<20 30 20 30 20 40> 110 10<10 90 10 10>
VStem: 0 10<0 0 0 110> 40 20<10 30 10 30 40 60 80 80 80 90> 90 10<0 110 110 110>
CounterMasks: 1 07
LayerCount: 2
Fore
SplineSet
0 -10 m 1
 0 120 l 1
 100 120 l 1
 100 -10 l 1
 0 -10 l 1
10 0 m 1
 90 0 l 1
 90 110 l 1
 10 110 l 1
 10 0 l 1
20 70 m 1
 20 90 l 1
 30 90 l 1
 30 100 l 1
 70 100 l 1
 70 90 l 1
 80 90 l 1
 80 60 l 1
 70 60 l 1
 70 50 l 1
 60 50 l 1
 60 40 l 1
 40 40 l 1
 40 60 l 1
 50 60 l 1
 50 70 l 1
 60 70 l 1
 60 80 l 1
 40 80 l 1
 40 70 l 1
 20 70 l 1
40 10 m 1
 40 30 l 1
 60 30 l 1
 60 10 l 1
 40 10 l 1
EndSplineSet
Validated: 1
EndChar

StartChar: exclam
Encoding: 3 33 4
Width: 110
GlyphClass: 2
Flags: MW
HStem: 20 100<40 60 40 60> 40 80<40 60 40 60>
VStem: 40 20<0 20 0 20 40 120>
LayerCount: 2
Fore
SplineSet
40 120 m 1x60
 60 120 l 1
 60 40 l 1
 40 40 l 1
 40 120 l 1x60
40 20 m 1xa0
 40 0 l 1
 60 0 l 1
 60 20 l 1
 40 20 l 1xa0
EndSplineSet
Validated: 9
AlternateSubs2: "'ssty' Math Script Style lookup 4 subtable" exclam.ssty exclam.ssty2
AlternateSubs2: "'aalt' Access All Alternates lookup 1 subtable" exclam.ssty exclam.ssty2
EndChar

StartChar: quotedbl
Encoding: 4 34 5
Width: 110
GlyphClass: 2
Flags: MW
HStem: 80 40<20 40 20 40 50 70 20 50>
VStem: 20 20<80 120 80 120> 50 20<80 120 80 120>
LayerCount: 2
Fore
SplineSet
20 80 m 1
 20 120 l 1
 40 120 l 1
 40 80 l 1
 20 80 l 1
50 80 m 1xe0
 50 120 l 1
 70 120 l 1
 70 80 l 1
 50 80 l 1xe0
EndSplineSet
Validated: 1
AlternateSubs2: "'ssty' Math Script Style lookup 4 subtable" quotedbl.ssty quotedbl.ssty2
AlternateSubs2: "'aalt' Access All Alternates lookup 1 subtable" quotedbl.ssty quotedbl.ssty2
EndChar

StartChar: numbersign
Encoding: 5 35 6
Width: 110
GlyphClass: 2
Flags: MW
HStem: 0 50<20 30 10 40 20 20 50 60 10 70 10 50> 30 20<10 20 10 30 10 50 10 40 80 90> 70 20<20 30 20 40 20 60 20 50 90 100> 70 50<20 60 20 60 50 60 50 50 80 80 80 90 40 100>
VStem: 20 20<0 30 0 30> 30 20<50 70> 40 20<90 120> 50 20<0 30 0 30> 60 20<50 70 50 70> 70 20<0 50 90 120>
LayerCount: 2
Fore
SplineSet
10 50 m 1x69
 30 50 l 1
 30 70 l 1x6440
 20 70 l 1
 20 90 l 1
 40 90 l 1x69
 40 120 l 1
 60 120 l 1x5240
 60 90 l 1x6240
 70 90 l 1x69
 70 120 l 1
 90 120 l 1x5840
 90 90 l 1x6840
 100 90 l 1
 100 70 l 1
 80 70 l 1
 80 50 l 1x6880
 90 50 l 1
 90 30 l 1
 70 30 l 1x6840
 70 0 l 1
 50 0 l 1xa9
 50 30 l 1x69
 40 30 l 1x6240
 40 0 l 1
 20 0 l 1xa9
 20 30 l 1
 10 30 l 1
 10 50 l 1x69
50 70 m 1
 50 50 l 1x69
 60 50 l 1
 60 70 l 1x6240
 50 70 l 1
EndSplineSet
Validated: 1
AlternateSubs2: "'ssty' Math Script Style lookup 4 subtable" numbersign.ssty numbersign.ssty2
AlternateSubs2: "'aalt' Access All Alternates lookup 1 subtable" numbersign.ssty numbersign.ssty2
EndChar

StartChar: dollar
Encoding: 6 36 7
Width: 110
GlyphClass: 2
Flags: MW
HStem: 0 30<30 60 30 40> 10 20<30 40 30 40 20 40 60 70> 50 20<30 40 30 40 20 40 60 70> 90 20<30 40 30 30 60 70> 90 30<30 60 30 60 40 70 40 60>
VStem: 10 20<30 40 30 40 30 40 70 90> 40 20<0 10 0 10 30 50 70 90 110 120> 70 20<30 50 50 50 80 90 90 90>
CounterMasks: 1 0380
LayerCount: 2
Fore
SplineSet
10 20 m 1x77
 10 40 l 1
 30 40 l 1
 30 30 l 1
 40 30 l 1
 40 50 l 1
 20 50 l 1
 20 60 l 1
 10 60 l 1
 10 100 l 1
 20 100 l 1
 20 110 l 1
 40 110 l 1x77
 40 120 l 1
 60 120 l 1x6f
 60 110 l 1
 80 110 l 1
 80 100 l 1
 90 100 l 1
 90 80 l 1
 70 80 l 1
 70 90 l 1
 60 90 l 1
 60 70 l 1
 80 70 l 1
 80 60 l 1
 90 60 l 1
 90 20 l 1
 80 20 l 1
 80 10 l 1
 60 10 l 1x77
 60 0 l 1
 40 0 l 1xb7
 40 10 l 1
 20 10 l 1
 20 20 l 1
 10 20 l 1x77
30 70 m 1
 40 70 l 1
 40 90 l 1
 30 90 l 1
 30 70 l 1
60 30 m 1
 70 30 l 1
 70 50 l 1
 60 50 l 1
 60 30 l 1
EndSplineSet
Validated: 1
EndChar

StartChar: percent
Encoding: 7 37 8
Width: 110
GlyphClass: 2
Flags: MW
HStem: 0 10<10 40 70 80> 0 20<10 20 10 30 10 20> 30 10<50 50> 40 10<50 60 50 60 70 70 70 80> 50 20<10 60 10 50> 70 10<20 30 0 10 40 50> 80 10<40 60> 100 20<80 90 80 80> 110 10<0 40 10 40 20 20 20 30 10 50>
VStem: 10 10<0 40 20 40> 30 10<0 30> 60 10<0 10 10 10> 80 10<0 40>
LayerCount: 2
Fore
SplineSet
10 80 m 1x54f8
 0 80 l 1
 0 110 l 1
 10 110 l 1
 10 120 l 1
 40 120 l 1
 40 110 l 1
 50 110 l 1
 50 90 l 1
 60 90 l 1
 60 110 l 1
 70 110 l 1x94f8
 70 120 l 1
 90 120 l 1
 90 100 l 1
 80 100 l 1
 80 80 l 1
 70 80 l 1x9578
 70 60 l 1
 60 60 l 1
 60 50 l 1
 90 50 l 1
 90 40 l 1
 100 40 l 1
 100 10 l 1
 90 10 l 1
 90 0 l 1
 60 0 l 1
 60 10 l 1
 50 10 l 1
 50 30 l 1
 40 30 l 1
 40 10 l 1
 30 10 l 1xaaf8
 30 0 l 1
 10 0 l 1
 10 20 l 1
 20 20 l 1
 20 40 l 1
 30 40 l 1
 30 60 l 1
 40 60 l 1
 40 70 l 1
 10 70 l 1
 10 80 l 1x54f8
30 80 m 1
 30 110 l 1
 20 110 l 1
 20 80 l 1
 30 80 l 1
70 10 m 1
 80 10 l 1
 80 40 l 1
 70 40 l 1
 70 10 l 1
50 40 m 1
 60 40 l 1
 60 50 l 1
 50 50 l 1
 50 40 l 1
40 80 m 1
 40 70 l 1
 50 70 l 1
 50 80 l 1
 40 80 l 1
EndSplineSet
Validated: 5
AlternateSubs2: "'ssty' Math Script Style lookup 4 subtable" percent.ssty percent.ssty2
AlternateSubs2: "'aalt' Access All Alternates lookup 1 subtable" percent.ssty percent.ssty2
EndChar

StartChar: ampersand
Encoding: 8 38 9
Width: 110
GlyphClass: 2
Flags: MW
HStem: 0 20<20 50 20 60 10 50 80 100> 30 10 50 10<0 20 10 20> 70 20<40 50 40 60> 100 10 100 20<30 50 30 30>
VStem: 0 20<20 40 20 50 20 50> 10 20<40 60 40 60 80 100> 50 10<60 60 70 70> 70 20<40 60 30 60>
CounterMasks: 1 36a0
LayerCount: 2
Fore
SplineSet
0 10 m 1xf6c0
 0 50 l 1xf6c0
 10 50 l 1
 10 60 l 1xf5c0
 20 60 l 1
 20 70 l 1xf6c0
 10 70 l 1
 10 110 l 1xf9c0
 20 110 l 1xfac0
 20 120 l 1
 60 120 l 1xf6c0
 60 110 l 1
 70 110 l 1
 70 80 l 1
 60 80 l 1
 60 70 l 1
 50 70 l 1
 50 60 l 1
 60 60 l 1
 60 40 l 1
 70 40 l 1
 70 60 l 1
 90 60 l 1
 90 30 l 1
 80 30 l 1
 80 20 l 1
 100 20 l 1
 100 0 l 1
 70 0 l 1
 70 10 l 1
 60 10 l 1
 60 0 l 1
 10 0 l 1
 10 10 l 1xf9c0
 0 10 l 1xf6c0
30 80 m 1xf5c0
 40 80 l 1
 40 90 l 1
 50 90 l 1
 50 100 l 1
 30 100 l 1
 30 80 l 1xf5c0
40 30 m 1
 40 50 l 1
 30 50 l 1
 30 40 l 1xf5c0
 20 40 l 1
 20 20 l 1xf6c0
 50 20 l 1
 50 30 l 1
 40 30 l 1
EndSplineSet
Validated: 1
EndChar

StartChar: quotesingle
Encoding: 9 39 10
Width: 110
GlyphClass: 2
Flags: MW
HStem: 80 40<40 60 40 60>
VStem: 40 20<80 120 80 120>
LayerCount: 2
Fore
SplineSet
40 80 m 1
 40 120 l 1
 60 120 l 1
 60 80 l 1
 40 80 l 1
EndSplineSet
Validated: 1
AlternateSubs2: "'ssty' Math Script Style lookup 4 subtable" quotesingle.ssty quotesingle.ssty2
AlternateSubs2: "'aalt' Access All Alternates lookup 1 subtable" quotesingle.ssty quotesingle.ssty2
EndChar

StartChar: parenleft
Encoding: 10 40 11
Width: 110
GlyphClass: 2
Flags: MW
IsExtendedShape: 1
GlyphVariantsVertical: parenleft parenleft.v1 parenleft.v2 parenleft.v3 parenleft.v4 parenleft.v5 parenleft.v6 parenleft.v7
GlyphCompositionVertical: 3  uni239D%0,0,45,210 uni239C%1,90,90,90 uni239B%0,45,0,210
HStem: 0 20<70 80 40 60> 10 10<40 60 40 50> 40 10 70 10 100 20<40 80 50 80 70 80 70 70>
VStem: 40 10<10 40> 60 20<0 10 10 10 0 50 0 30 110 120>
CounterMasks: 1 e0
LayerCount: 2
Fore
SplineSet
80 120 m 1x8e
 80 100 l 1
 70 100 l 1
 70 90 l 1
 60 90 l 1x8e
 60 70 l 1
 50 70 l 1x9c
 50 50 l 1
 60 50 l 1xac
 60 30 l 1
 70 30 l 1
 70 20 l 1
 80 20 l 1
 80 0 l 1x8e
 60 0 l 1
 60 10 l 1
 50 10 l 1
 50 20 l 1
 40 20 l 1x4c
 40 40 l 1
 30 40 l 1xac
 30 80 l 1
 40 80 l 1x9c
 40 100 l 1
 50 100 l 1
 50 110 l 1
 60 110 l 1
 60 120 l 1
 80 120 l 1x8e
EndSplineSet
Validated: 1
AlternateSubs2: "'ssty' Math Script Style lookup 4 subtable" parenleft.ssty parenleft.ssty2
AlternateSubs2: "'aalt' Access All Alternates lookup 1 subtable" parenleft.ssty parenleft.ssty2
EndChar

StartChar: parenright
Encoding: 11 41 12
Width: 110
GlyphClass: 2
Flags: MW
IsExtendedShape: 1
GlyphVariantsVertical: parenright parenright.v1 parenright.v2 parenright.v3 parenright.v4 parenright.v5 parenright.v6 parenright.v7
GlyphCompositionVertical: 3  uni23A0%0,0,45,210 uni239F%1,90,90,90 uni239E%0,45,0,210
HStem: 0 20<30 40 30 50 30 40> 40 10 70 10 100 10<50 70> 100 20<30 40 30 50 30 70>
VStem: 30 20<0 10 0 20 0 20 110 120> 60 10<10 40>
CounterMasks: 1 e0
LayerCount: 2
Fore
SplineSet
30 120 m 1x8e
 50 120 l 1
 50 110 l 1
 60 110 l 1
 60 100 l 1
 70 100 l 1x92
 70 80 l 1
 80 80 l 1xaa
 80 40 l 1
 70 40 l 1xca
 70 20 l 1
 60 20 l 1
 60 10 l 1
 50 10 l 1
 50 0 l 1
 30 0 l 1
 30 20 l 1
 40 20 l 1
 40 30 l 1
 50 30 l 1x8e
 50 50 l 1
 60 50 l 1xca
 60 70 l 1
 50 70 l 1xaa
 50 90 l 1
 40 90 l 1
 40 100 l 1
 30 100 l 1
 30 120 l 1x8e
EndSplineSet
Validated: 1
AlternateSubs2: "'ssty' Math Script Style lookup 4 subtable" parenright.ssty parenright.ssty2
AlternateSubs2: "'aalt' Access All Alternates lookup 1 subtable" parenright.ssty parenright.ssty2
EndChar

StartChar: asterisk
Encoding: 12 42 13
Width: 110
GlyphClass: 2
Flags: MW
HStem: 50 20<30 40 30 40 60 70>
VStem: 40 20<40 50 40 50 70 80>
LayerCount: 2
Fore
SplineSet
30 70 m 1
 40 70 l 1
 40 80 l 1
 60 80 l 1
 60 70 l 1
 70 70 l 1
 70 50 l 1
 60 50 l 1
 60 40 l 1
 40 40 l 1
 40 50 l 1
 30 50 l 1
 30 70 l 1
EndSplineSet
Validated: 1
AlternateSubs2: "'ssty' Math Script Style lookup 4 subtable" asterisk.ssty asterisk.ssty2
AlternateSubs2: "'aalt' Access All Alternates lookup 1 subtable" asterisk.ssty asterisk.ssty2
EndChar

StartChar: plus
Encoding: 13 43 14
Width: 110
GlyphClass: 2
Flags: MW
HStem: 50 20<0 40 0 40 60 100>
VStem: 40 20<10 50 10 50 70 110>
LayerCount: 2
Fore
SplineSet
40 110 m 1
 60 110 l 1
 60 70 l 1
 100 70 l 1
 100 50 l 1
 60 50 l 1
 60 10 l 1
 40 10 l 1
 40 50 l 1
 0 50 l 1
 0 70 l 1
 40 70 l 1
 40 110 l 1
EndSplineSet
Validated: 1
AlternateSubs2: "'ssty' Math Script Style lookup 4 subtable" plus.ssty plus.ssty2
AlternateSubs2: "'aalt' Access All Alternates lookup 1 subtable" plus.ssty plus.ssty2
EndChar

StartChar: comma
Encoding: 14 44 15
Width: 110
GlyphClass: 2
Flags: MW
HStem: -10 50<20 50 20 40> 10 30<40 50 40 40>
VStem: 20 20<-10 10 -10 40>
LayerCount: 2
Fore
SplineSet
20 -10 m 1xa0
 20 40 l 1
 50 40 l 1xa0
 50 10 l 1
 40 10 l 1x60
 40 -10 l 1
 20 -10 l 1xa0
EndSplineSet
Validated: 1
AlternateSubs2: "'ssty' Math Script Style lookup 4 subtable" comma.ssty comma.ssty2
AlternateSubs2: "'aalt' Access All Alternates lookup 1 subtable" comma.ssty comma.ssty2
EndChar

StartChar: hyphen
Encoding: 15 45 16
Width: 110
GlyphClass: 2
Flags: W
HStem: 50 20<20 80>
LayerCount: 2
Fore
SplineSet
20 50 m 1
 20 70 l 1
 80 70 l 1
 80 50 l 1
 20 50 l 1
EndSplineSet
Validated: 1
AlternateSubs2: "'ssty' Math Script Style lookup 4 subtable" hyphen.ssty hyphen.ssty2
AlternateSubs2: "'aalt' Access All Alternates lookup 1 subtable" hyphen.ssty hyphen.ssty2
EndChar

StartChar: period
Encoding: 16 46 17
Width: 110
GlyphClass: 2
Flags: MW
HStem: 0 30<20 50 20 30> 0 40<30 50 30 50> 10 20<20 30 20 30 50 60>
VStem: 30 20<0 10 0 10 30 40>
LayerCount: 2
Fore
SplineSet
20 30 m 1x30
 30 30 l 1
 30 40 l 1x50
 50 40 l 1
 50 30 l 1
 60 30 l 1x30
 60 10 l 1
 50 10 l 1
 50 0 l 1x90
 30 0 l 1
 30 10 l 1
 20 10 l 1
 20 30 l 1x30
EndSplineSet
Validated: 1
AlternateSubs2: "'ssty' Math Script Style lookup 4 subtable" period.ssty period.ssty2
AlternateSubs2: "'aalt' Access All Alternates lookup 1 subtable" period.ssty period.ssty2
EndChar

StartChar: slash
Encoding: 17 47 18
Width: 110
GlyphClass: 2
Flags: MW
HStem: 0 30<20 30 20 30 20 40> 20 10 40 10 70 10 90 10 90 30<70 80 70 70>
VStem: 30 10<50 50> 40 10<0 40> 50 10<20 70> 60 10<40 90>
CounterMasks: 1 a8
LayerCount: 2
Fore
SplineSet
20 0 m 1x86
 20 30 l 1
 30 30 l 1x86
 30 50 l 1
 40 50 l 1xa5
 40 80 l 1
 50 80 l 1x9480
 50 100 l 1
 60 100 l 1x8940
 60 120 l 1
 80 120 l 1
 80 90 l 1
 70 90 l 1x8540
 70 70 l 1
 60 70 l 1x9480
 60 40 l 1
 50 40 l 1xa5
 50 20 l 1
 40 20 l 1x46
 40 0 l 1
 20 0 l 1x86
EndSplineSet
Validated: 1
AlternateSubs2: "'ssty' Math Script Style lookup 4 subtable" slash.ssty slash.ssty2
AlternateSubs2: "'aalt' Access All Alternates lookup 1 subtable" slash.ssty slash.ssty2
EndChar

StartChar: zero
Encoding: 18 48 19
Width: 110
GlyphClass: 2
Flags: MW
HStem: 0 20<30 70 30 80 20 70> 10 10 100 10 100 20<30 70 30 30>
VStem: 10 20<20 20 20 100> 70 20<20 100 100 100>
CounterMasks: 1 e0
LayerCount: 2
Fore
SplineSet
30 20 m 1x9c
 70 20 l 1
 70 100 l 1
 30 100 l 1
 30 20 l 1x9c
10 10 m 1x5c
 10 110 l 1
 20 110 l 1x6c
 20 120 l 1
 80 120 l 1x9c
 80 110 l 1
 90 110 l 1
 90 10 l 1
 80 10 l 1x6c
 80 0 l 1
 20 0 l 1x9c
 20 10 l 1
 10 10 l 1x5c
EndSplineSet
Validated: 1
AlternateSubs2: "'ssty' Math Script Style lookup 4 subtable" zero.ssty zero.ssty2
AlternateSubs2: "'aalt' Access All Alternates lookup 1 subtable" zero.ssty zero.ssty2
EndChar

StartChar: one
Encoding: 19 49 20
Width: 110
GlyphClass: 2
Flags: MW
HStem: 0 21G<50 50 50 70> 80 20<20 30 20 40 20 30> 90 30<40 50 40 70>
VStem: 20 20<80 90 80 100 80 100> 50 20<0 90 90 90>
LayerCount: 2
Fore
SplineSet
50 0 m 1xc8
 50 90 l 1
 40 90 l 1
 40 80 l 1
 20 80 l 1xd8
 20 100 l 1
 30 100 l 1
 30 110 l 1
 40 110 l 1
 40 120 l 1xb8
 70 120 l 1xa8
 70 0 l 1
 50 0 l 1xc8
EndSplineSet
Validated: 1
AlternateSubs2: "'ssty' Math Script Style lookup 4 subtable" one.ssty one.ssty2
AlternateSubs2: "'aalt' Access All Alternates lookup 1 subtable" one.ssty one.ssty2
EndChar

StartChar: two
Encoding: 20 50 21
Width: 110
GlyphClass: 2
Flags: MW
HStem: 0 20<40 90 40 90> 40 20<20 60 30 60 50 50 50 60 40 70> 100 10 100 20<30 70 30 30>
VStem: 10 20<0 50 30 50 90 100> 40 10<20 40> 70 20<70 100 100 100>
LayerCount: 2
Fore
SplineSet
10 0 m 1x9a
 10 30 l 1
 20 30 l 1
 20 40 l 1
 30 40 l 1
 30 50 l 1
 40 50 l 1
 40 60 l 1xde
 60 60 l 1
 60 70 l 1
 70 70 l 1
 70 100 l 1
 30 100 l 1
 30 90 l 1
 10 90 l 1
 10 110 l 1
 20 110 l 1
 20 120 l 1xda
 80 120 l 1
 80 110 l 1
 90 110 l 1
 90 60 l 1
 80 60 l 1
 80 50 l 1
 70 50 l 1
 70 40 l 1xea
 50 40 l 1
 50 30 l 1
 40 30 l 1
 40 20 l 1x9e
 90 20 l 1
 90 0 l 1
 10 0 l 1x9a
EndSplineSet
Validated: 1
AlternateSubs2: "'ssty' Math Script Style lookup 4 subtable" two.ssty two.ssty2
AlternateSubs2: "'aalt' Access All Alternates lookup 1 subtable" two.ssty two.ssty2
EndChar

StartChar: three
Encoding: 21 51 22
Width: 110
GlyphClass: 2
Flags: MW
HStem: 0 20<30 70 30 80 20 70> 10 10 50 20<30 70 30 70> 100 10 100 20<30 70 30 30>
VStem: 10 20<20 30 20 30 20 30 90 100> 70 20<20 50 50 50 70 100 100 100>
LayerCount: 2
Fore
SplineSet
70 100 m 1x8e
 30 100 l 1
 30 90 l 1
 10 90 l 1
 10 110 l 1
 20 110 l 1
 20 120 l 1x8e
 80 120 l 1
 80 110 l 1
 90 110 l 1x96
 90 70 l 1
 80 70 l 1
 80 60 l 1
 90 60 l 1xae
 90 10 l 1
 80 10 l 1
 80 0 l 1x8e
 20 0 l 1
 20 10 l 1
 10 10 l 1
 10 30 l 1x4e
 30 30 l 1
 30 20 l 1
 70 20 l 1x8e
 70 50 l 1
 30 50 l 1
 30 70 l 1
 70 70 l 1xae
 70 100 l 1x8e
EndSplineSet
Validated: 1
AlternateSubs2: "'ssty' Math Script Style lookup 4 subtable" three.ssty three.ssty2
AlternateSubs2: "'aalt' Access All Alternates lookup 1 subtable" three.ssty three.ssty2
EndChar

StartChar: four
Encoding: 22 52 23
Width: 110
GlyphClass: 2
Flags: MW
HStem: 0 40<30 60 30 80> 20 20<30 60 30 60 80 90> 50 10 70 10 90 30<50 60 50 80>
VStem: 10 20<40 40 40 50 40 60> 30 10<40 70> 60 20<0 20 0 20 40 90 90 90>
LayerCount: 2
Fore
SplineSet
30 40 m 1x7b
 60 40 l 1
 60 90 l 1
 50 90 l 1
 50 70 l 1
 40 70 l 1
 40 50 l 1
 30 50 l 1
 30 40 l 1x7b
60 0 m 1xbd
 60 20 l 1
 10 20 l 1
 10 60 l 1x7d
 20 60 l 1
 20 80 l 1
 30 80 l 1
 30 100 l 1
 40 100 l 1
 40 110 l 1
 50 110 l 1
 50 120 l 1
 80 120 l 1
 80 40 l 1
 90 40 l 1
 90 20 l 1
 80 20 l 1x7b
 80 0 l 1
 60 0 l 1xbd
EndSplineSet
Validated: 1
AlternateSubs2: "'ssty' Math Script Style lookup 4 subtable" four.ssty four.ssty2
AlternateSubs2: "'aalt' Access All Alternates lookup 1 subtable" four.ssty four.ssty2
EndChar

StartChar: five
Encoding: 23 53 24
Width: 110
GlyphClass: 2
Flags: MW
HStem: 0 20<30 70 30 80 20 70> 10 10 60 20<30 70> 100 20<30 90 30 30>
VStem: 10 20<20 30 20 30 20 30 80 100> 70 20<20 60 60 60>
LayerCount: 2
Fore
SplineSet
90 100 m 1x9c
 30 100 l 1x9c
 30 80 l 1
 80 80 l 1
 80 70 l 1
 90 70 l 1
 90 10 l 1
 80 10 l 1
 80 0 l 1xbc
 20 0 l 1
 20 10 l 1
 10 10 l 1
 10 30 l 1x5c
 30 30 l 1
 30 20 l 1
 70 20 l 1
 70 60 l 1
 10 60 l 1xbc
 10 120 l 1
 90 120 l 1
 90 100 l 1x9c
EndSplineSet
Validated: 1
AlternateSubs2: "'ssty' Math Script Style lookup 4 subtable" five.ssty five.ssty2
AlternateSubs2: "'aalt' Access All Alternates lookup 1 subtable" five.ssty five.ssty2
EndChar

StartChar: six
Encoding: 24 54 25
Width: 110
GlyphClass: 2
Flags: MW
HStem: 0 20<30 70 30 80 20 70> 10 10 50 20<30 70 30 80> 100 10 100 20<30 30 30 70>
VStem: 10 20<20 20 20 50 70 100> 70 20<20 50 50 50 90 100 100 100>
LayerCount: 2
Fore
SplineSet
30 20 m 1xae
 70 20 l 1
 70 50 l 1
 30 50 l 1
 30 20 l 1xae
30 100 m 1
 30 70 l 1
 80 70 l 1
 80 60 l 1
 90 60 l 1
 90 10 l 1
 80 10 l 1x6e
 80 0 l 1
 20 0 l 1xae
 20 10 l 1
 10 10 l 1
 10 110 l 1
 20 110 l 1x76
 20 120 l 1
 80 120 l 1xae
 80 110 l 1
 90 110 l 1xb6
 90 90 l 1
 70 90 l 1
 70 100 l 1
 30 100 l 1
EndSplineSet
Validated: 1
AlternateSubs2: "'ssty' Math Script Style lookup 4 subtable" six.ssty six.ssty2
AlternateSubs2: "'aalt' Access All Alternates lookup 1 subtable" six.ssty six.ssty2
EndChar

StartChar: seven
Encoding: 25 55 26
Width: 110
GlyphClass: 2
Flags: MW
HStem: 0 30<30 40 30 50 30 40> 20 10 40 10 60 10 80 10 100 20<10 70 10 90>
VStem: 40 10<50 50> 50 10<0 40> 60 10<20 60> 70 20<90 100 100 100>
CounterMasks: 1 0e
LayerCount: 2
Fore
SplineSet
50 0 m 1x86
 30 0 l 1
 30 30 l 1
 40 30 l 1x86
 40 50 l 1
 50 50 l 1xa5
 50 70 l 1
 60 70 l 1x9680
 60 90 l 1
 70 90 l 1
 70 100 l 1
 10 100 l 1
 10 120 l 1
 90 120 l 1x8640
 90 80 l 1
 80 80 l 1x8e40
 80 60 l 1
 70 60 l 1x9680
 70 40 l 1
 60 40 l 1xa5
 60 20 l 1
 50 20 l 1x46
 50 0 l 1x86
EndSplineSet
Validated: 1
AlternateSubs2: "'ssty' Math Script Style lookup 4 subtable" seven.ssty seven.ssty2
AlternateSubs2: "'aalt' Access All Alternates lookup 1 subtable" seven.ssty seven.ssty2
EndChar

StartChar: eight
Encoding: 26 56 27
Width: 110
GlyphClass: 2
Flags: MW
HStem: 0 20<30 70 30 80 20 70> 10 10 50 20<30 70> 70 50<10 80 10 80 30 70 70 70 20 80 20 90> 100 10 100 20<30 70 30 30>
VStem: 10 20<20 20 20 50 70 100> 70 20<20 50 50 50 70 100 100 100>
LayerCount: 2
Fore
SplineSet
30 70 m 1xa7
 70 70 l 1
 70 100 l 1
 30 100 l 1
 30 70 l 1xa7
30 20 m 1
 70 20 l 1
 70 50 l 1
 30 50 l 1
 30 20 l 1
10 70 m 1
 10 110 l 1
 20 110 l 1xb3
 20 120 l 1
 80 120 l 1xa7
 80 110 l 1
 90 110 l 1
 90 70 l 1
 80 70 l 1
 80 60 l 1
 90 60 l 1
 90 10 l 1
 80 10 l 1x6b
 80 0 l 1
 20 0 l 1xa7
 20 10 l 1
 10 10 l 1x67
 10 60 l 1
 20 60 l 1
 20 70 l 1
 10 70 l 1
EndSplineSet
Validated: 1
AlternateSubs2: "'ssty' Math Script Style lookup 4 subtable" eight.ssty eight.ssty2
AlternateSubs2: "'aalt' Access All Alternates lookup 1 subtable" eight.ssty eight.ssty2
EndChar

StartChar: nine
Encoding: 27 57 28
Width: 110
GlyphClass: 2
Flags: MW
HStem: 0 20<30 70 30 80 20 70> 10 10 50 20<30 70 30 70 20 70> 100 10 100 20<30 70 30 30>
VStem: 10 20<20 30 20 30 20 30 70 100> 70 20<20 50 50 50 70 100 100 100>
LayerCount: 2
Fore
SplineSet
70 100 m 1xb6
 30 100 l 1
 30 70 l 1
 70 70 l 1
 70 100 l 1xb6
70 20 m 1
 70 50 l 1
 20 50 l 1
 20 60 l 1
 10 60 l 1
 10 110 l 1
 20 110 l 1xb6
 20 120 l 1
 80 120 l 1xae
 80 110 l 1
 90 110 l 1
 90 10 l 1
 80 10 l 1x76
 80 0 l 1
 20 0 l 1xae
 20 10 l 1
 10 10 l 1x6e
 10 30 l 1
 30 30 l 1
 30 20 l 1
 70 20 l 1
EndSplineSet
Validated: 1
AlternateSubs2: "'ssty' Math Script Style lookup 4 subtable" nine.ssty nine.ssty2
AlternateSubs2: "'aalt' Access All Alternates lookup 1 subtable" nine.ssty nine.ssty2
EndChar

StartChar: colon
Encoding: 28 58 29
Width: 110
GlyphClass: 2
Flags: MW
HStem: 10 30<40 70 40 70> 70 30<40 70 40 70>
VStem: 40 30<10 40 10 40 70 100>
LayerCount: 2
Fore
SplineSet
40 10 m 1
 40 40 l 1
 70 40 l 1
 70 10 l 1
 40 10 l 1
40 70 m 1x60
 40 100 l 1
 70 100 l 1
 70 70 l 1
 40 70 l 1x60
EndSplineSet
Validated: 1
AlternateSubs2: "'ssty' Math Script Style lookup 4 subtable" colon.ssty colon.ssty2
AlternateSubs2: "'aalt' Access All Alternates lookup 1 subtable" colon.ssty colon.ssty2
EndChar

StartChar: semicolon
Encoding: 29 59 30
Width: 110
GlyphClass: 2
Flags: MW
HStem: -10 50<40 70 40 60> 10 30<60 70 60 60> 70 30<40 70 40 70>
VStem: 40 30<10 40 10 40 10 40 70 100>
LayerCount: 2
Fore
SplineSet
40 70 m 1xb0
 40 100 l 1
 70 100 l 1
 70 70 l 1
 40 70 l 1xb0
40 -10 m 1
 40 40 l 1
 70 40 l 1
 70 10 l 1
 60 10 l 1x70
 60 -10 l 1
 40 -10 l 1
EndSplineSet
Validated: 1
AlternateSubs2: "'ssty' Math Script Style lookup 4 subtable" semicolon.ssty semicolon.ssty2
AlternateSubs2: "'aalt' Access All Alternates lookup 1 subtable" semicolon.ssty semicolon.ssty2
EndChar

StartChar: less
Encoding: 30 60 31
Width: 110
GlyphClass: 2
Flags: MW
HStem: 0 20<70 80 40 60> 40 10<40 60> 90 20<40 80 50 80 70 70 70 80>
VStem: 30 10<20 40> 60 20<0 10 10 10 100 110>
LayerCount: 2
Fore
SplineSet
80 0 m 1
 60 0 l 1
 60 10 l 1
 50 10 l 1
 50 20 l 1
 40 20 l 1
 40 30 l 1
 30 30 l 1
 30 40 l 1
 20 40 l 1xf8
 20 70 l 1
 30 70 l 1
 30 80 l 1
 40 80 l 1
 40 90 l 1
 50 90 l 1
 50 100 l 1
 60 100 l 1
 60 110 l 1
 80 110 l 1
 80 90 l 1
 70 90 l 1
 70 80 l 1
 60 80 l 1
 60 70 l 1
 50 70 l 1
 50 60 l 1
 40 60 l 1
 40 50 l 1
 50 50 l 1
 50 40 l 1
 60 40 l 1
 60 30 l 1
 70 30 l 1
 70 20 l 1
 80 20 l 1
 80 0 l 1
EndSplineSet
Validated: 1
AlternateSubs2: "'ssty' Math Script Style lookup 4 subtable" less.ssty less.ssty2
AlternateSubs2: "'aalt' Access All Alternates lookup 1 subtable" less.ssty less.ssty2
EndChar

StartChar: equal
Encoding: 31 61 32
Width: 110
GlyphClass: 2
Flags: MW
HStem: 30 20<0 100 0 100> 70 20<0 100 0 100>
VStem: 0 100<30 50 30 50 70 90 30 90>
LayerCount: 2
Fore
SplineSet
0 70 m 1
 0 90 l 1
 100 90 l 1
 100 70 l 1
 0 70 l 1
0 30 m 1xe0
 0 50 l 1
 100 50 l 1
 100 30 l 1
 0 30 l 1xe0
EndSplineSet
Validated: 1
AlternateSubs2: "'ssty' Math Script Style lookup 4 subtable" equal.ssty equal.ssty2
AlternateSubs2: "'aalt' Access All Alternates lookup 1 subtable" equal.ssty equal.ssty2
EndChar

StartChar: greater
Encoding: 32 62 33
Width: 110
GlyphClass: 2
Flags: MW
HStem: 0 20<20 30 20 30 20 40> 60 10<40 60 40 50> 90 20<20 30 20 40 20 60>
VStem: 20 20<0 10 0 20 0 20 100 110> 60 10<20 40>
LayerCount: 2
Fore
SplineSet
20 0 m 1
 20 20 l 1
 30 20 l 1
 30 30 l 1
 40 30 l 1
 40 40 l 1
 50 40 l 1
 50 50 l 1
 60 50 l 1
 60 60 l 1
 50 60 l 1
 50 70 l 1
 40 70 l 1
 40 80 l 1
 30 80 l 1
 30 90 l 1
 20 90 l 1
 20 110 l 1xb0
 40 110 l 1
 40 100 l 1
 50 100 l 1
 50 90 l 1
 60 90 l 1
 60 80 l 1
 70 80 l 1
 70 70 l 1
 80 70 l 1xf8
 80 40 l 1
 70 40 l 1
 70 30 l 1
 60 30 l 1
 60 20 l 1
 50 20 l 1
 50 10 l 1
 40 10 l 1
 40 0 l 1
 20 0 l 1
EndSplineSet
Validated: 1
AlternateSubs2: "'ssty' Math Script Style lookup 4 subtable" greater.ssty greater.ssty2
AlternateSubs2: "'aalt' Access All Alternates lookup 1 subtable" greater.ssty greater.ssty2
EndChar

StartChar: question
Encoding: 33 63 34
Width: 110
GlyphClass: 2
Flags: MW
HStem: 0 20<40 60 40 60> 40 20<40 50 40 60 40 50> 60 20<40 60 50 60 50 70 50 60> 100 10 100 20<40 60 40 40>
VStem: 20 20<90 100> 40 20<0 20 0 20 40 60 90 90 90 100> 60 10<40 80 60 100>
CounterMasks: 1 0380
LayerCount: 2
Fore
SplineSet
20 90 m 1xad
 20 110 l 1
 30 110 l 1xb5
 30 120 l 1
 70 120 l 1xad
 70 110 l 1
 80 110 l 1
 80 80 l 1
 70 80 l 1
 70 60 l 1xb5
 60 60 l 1
 60 40 l 1
 40 40 l 1xca
 40 60 l 1
 50 60 l 1
 50 80 l 1
 60 80 l 1
 60 100 l 1
 40 100 l 1
 40 90 l 1
 20 90 l 1xad
40 0 m 1
 40 20 l 1
 60 20 l 1
 60 0 l 1
 40 0 l 1
EndSplineSet
Validated: 1
AlternateSubs2: "'ssty' Math Script Style lookup 4 subtable" question.ssty question.ssty2
AlternateSubs2: "'aalt' Access All Alternates lookup 1 subtable" question.ssty question.ssty2
EndChar

StartChar: at
Encoding: 34 64 35
Width: 110
GlyphClass: 2
Flags: MW
HStem: -10 20<30 90> 0 10<10 10> 20 20<50 60 50 60 40 60 70 80 50 70> 30 60<20 40 20 30 60 70 60 60> 70 20<50 60 50 50> 100 20<0 80 10 80 30 30 30 70 20 100>
VStem: 0 20<20 90> 30 40<10 30 10 30 20 40 40 80 80 80 90 100> 40 10 80 20<40 90 90 90 30 120 30 110>
CounterMasks: 1 8840
LayerCount: 2
Fore
SplineSet
50 40 m 1xaec0
 60 40 l 1
 60 70 l 1
 50 70 l 1
 50 40 l 1xaec0
0 10 m 1
 0 100 l 1
 10 100 l 1
 10 110 l 1
 20 110 l 1
 20 120 l 1
 80 120 l 1
 80 110 l 1
 90 110 l 1
 90 100 l 1
 100 100 l 1
 100 30 l 1
 90 30 l 1x9740
 90 20 l 1
 70 20 l 1xaf40
 70 30 l 1
 60 30 l 1x9740
 60 20 l 1
 40 20 l 1xaec0
 40 30 l 1x96c0
 30 30 l 1
 30 80 l 1x9740
 40 80 l 1
 40 90 l 1x96c0
 70 90 l 1
 70 40 l 1
 80 40 l 1
 80 90 l 1
 70 90 l 1
 70 100 l 1
 30 100 l 1
 30 90 l 1
 20 90 l 1
 20 20 l 1
 30 20 l 1
 30 10 l 1
 90 10 l 1
 90 -10 l 1
 20 -10 l 1xaf40
 20 0 l 1
 10 0 l 1x6f40
 10 10 l 1
 0 10 l 1
EndSplineSet
Validated: 5
AlternateSubs2: "'ssty' Math Script Style lookup 4 subtable" at.ssty at.ssty2
AlternateSubs2: "'aalt' Access All Alternates lookup 1 subtable" at.ssty at.ssty2
EndChar

StartChar: A
Encoding: 35 65 36
Width: 110
GlyphClass: 2
Flags: MW
HStem: 0 50<10 20 10 30 10 20 90 100> 30 20<40 70 10 30> 70 10 70 50<40 50 40 70 60 70 60 60> 90 10 90 30<50 60 50 50>
VStem: 10 20<0 30> 30 10<100 100> 40 10<50 90> 60 10<50 90> 80 20<0 30 30 30>
LayerCount: 2
Fore
SplineSet
40 50 m 1x52e0
 70 50 l 1
 70 70 l 1
 60 70 l 1x5160
 60 90 l 1
 50 90 l 1x66e0
 50 70 l 1
 40 70 l 1
 40 50 l 1x52e0
30 0 m 1xa6e0
 10 0 l 1
 10 50 l 1xa6e0
 20 50 l 1
 20 80 l 1
 30 80 l 1
 30 100 l 1
 40 100 l 1x6960
 40 120 l 1
 70 120 l 1x6560
 70 100 l 1
 80 100 l 1
 80 80 l 1
 90 80 l 1
 90 50 l 1
 100 50 l 1
 100 0 l 1
 80 0 l 1xaae0
 80 30 l 1
 30 30 l 1x6560
 30 0 l 1xa6e0
EndSplineSet
Validated: 1
AlternateSubs2: "'ssty' Math Script Style lookup 4 subtable" A.ssty A.ssty2
AlternateSubs2: "'aalt' Access All Alternates lookup 1 subtable" A.ssty A.ssty2
EndChar

StartChar: B
Encoding: 36 66 37
Width: 110
GlyphClass: 2
Flags: MW
HStem: 0 20<30 70 30 80> 50 20<30 70 30 70> 100 20<30 30 30 70>
VStem: 10 20<20 20 20 50 70 100> 70 20<20 50 50 50 70 100 100 100>
LayerCount: 2
Fore
SplineSet
30 20 m 1
 70 20 l 1
 70 50 l 1
 30 50 l 1
 30 20 l 1
30 100 m 1
 30 70 l 1
 70 70 l 1
 70 100 l 1
 30 100 l 1
10 0 m 1
 10 120 l 1
 80 120 l 1
 80 110 l 1
 90 110 l 1
 90 70 l 1
 80 70 l 1
 80 60 l 1
 90 60 l 1
 90 10 l 1
 80 10 l 1
 80 0 l 1
 10 0 l 1
EndSplineSet
Validated: 1
AlternateSubs2: "'ssty' Math Script Style lookup 4 subtable" B.ssty B.ssty2
AlternateSubs2: "'aalt' Access All Alternates lookup 1 subtable" B.ssty B.ssty2
EndChar

StartChar: C
Encoding: 37 67 38
Width: 110
GlyphClass: 2
Flags: MW
HStem: 0 20<40 70> 10 10<20 20> 100 10<10 30 20 30> 100 20<10 80 20 80 40 40 40 70>
VStem: 10 20<30 90> 70 20<20 30 10 30 90 100 100 100>
CounterMasks: 1 e0
LayerCount: 2
Fore
SplineSet
10 20 m 1x5c
 10 100 l 1
 20 100 l 1
 20 110 l 1
 30 110 l 1
 30 120 l 1x9c
 80 120 l 1
 80 110 l 1
 90 110 l 1
 90 90 l 1xac
 70 90 l 1
 70 100 l 1
 40 100 l 1
 40 90 l 1
 30 90 l 1
 30 30 l 1
 40 30 l 1
 40 20 l 1
 70 20 l 1
 70 30 l 1
 90 30 l 1
 90 10 l 1
 80 10 l 1
 80 0 l 1x9c
 30 0 l 1
 30 10 l 1
 20 10 l 1
 20 20 l 1
 10 20 l 1x5c
EndSplineSet
Validated: 1
AlternateSubs2: "'ssty' Math Script Style lookup 4 subtable" C.ssty C.ssty2
AlternateSubs2: "'aalt' Access All Alternates lookup 1 subtable" C.ssty C.ssty2
EndChar

StartChar: D
Encoding: 38 68 39
Width: 110
GlyphClass: 2
Flags: MW
HStem: 0 20<30 60 30 70> 100 20<30 60 30 30 10 90>
VStem: 10 20<20 20 20 100> 70 20<0 20 30 90 90 90>
CounterMasks: 1 e0
LayerCount: 2
Fore
SplineSet
30 20 m 1
 60 20 l 1
 60 30 l 1
 70 30 l 1
 70 90 l 1
 60 90 l 1
 60 100 l 1
 30 100 l 1
 30 20 l 1
90 20 m 1
 80 20 l 1
 80 10 l 1
 70 10 l 1
 70 0 l 1
 10 0 l 1
 10 120 l 1
 70 120 l 1
 70 110 l 1
 80 110 l 1
 80 100 l 1
 90 100 l 1
 90 20 l 1
EndSplineSet
Validated: 1
AlternateSubs2: "'ssty' Math Script Style lookup 4 subtable" D.ssty D.ssty2
AlternateSubs2: "'aalt' Access All Alternates lookup 1 subtable" D.ssty D.ssty2
EndChar

StartChar: E
Encoding: 39 69 40
Width: 110
GlyphClass: 2
Flags: MW
HStem: 0 20<30 90 30 90> 50 20<30 80 30 80> 100 20<30 90 30 30>
VStem: 10 20<20 50 70 100>
LayerCount: 2
Fore
SplineSet
10 0 m 1
 10 120 l 1
 90 120 l 1
 90 100 l 1
 30 100 l 1xb0
 30 70 l 1
 80 70 l 1
 80 50 l 1
 30 50 l 1xf0
 30 20 l 1
 90 20 l 1
 90 0 l 1
 10 0 l 1
EndSplineSet
Validated: 1
AlternateSubs2: "'ssty' Math Script Style lookup 4 subtable" E.ssty E.ssty2
AlternateSubs2: "'aalt' Access All Alternates lookup 1 subtable" E.ssty E.ssty2
EndChar

StartChar: F
Encoding: 40 70 41
Width: 110
GlyphClass: 2
Flags: MW
HStem: 0 21G<10 10 10 30> 50 20<30 80 30 80> 100 20<30 90 30 30>
VStem: 10 20<0 50 70 100>
LayerCount: 2
Fore
SplineSet
10 0 m 1
 10 120 l 1
 90 120 l 1
 90 100 l 1
 30 100 l 1xb0
 30 70 l 1
 80 70 l 1
 80 50 l 1
 30 50 l 1xf0
 30 0 l 1
 10 0 l 1
EndSplineSet
Validated: 1
AlternateSubs2: "'ssty' Math Script Style lookup 4 subtable" F.ssty F.ssty2
AlternateSubs2: "'aalt' Access All Alternates lookup 1 subtable" F.ssty F.ssty2
EndChar

StartChar: G
Encoding: 41 71 42
Width: 110
GlyphClass: 2
Flags: MW
HStem: 0 20<40 70> 10 10<20 20> 50 20<50 70 50 90> 100 10<10 30 20 30> 100 20<10 80 20 80 40 40 40 70>
VStem: 10 20<30 90> 70 20<20 50 50 50 90 100 100 100>
CounterMasks: 1 d0
LayerCount: 2
Fore
SplineSet
10 20 m 1x4e
 10 100 l 1
 20 100 l 1
 20 110 l 1
 30 110 l 1
 30 120 l 1x8e
 80 120 l 1
 80 110 l 1
 90 110 l 1
 90 90 l 1x96
 70 90 l 1
 70 100 l 1
 40 100 l 1
 40 90 l 1
 30 90 l 1
 30 30 l 1
 40 30 l 1
 40 20 l 1
 70 20 l 1x8e
 70 50 l 1
 50 50 l 1
 50 70 l 1
 90 70 l 1xae
 90 10 l 1
 80 10 l 1
 80 0 l 1x8e
 30 0 l 1
 30 10 l 1
 20 10 l 1
 20 20 l 1
 10 20 l 1x4e
EndSplineSet
Validated: 1
AlternateSubs2: "'ssty' Math Script Style lookup 4 subtable" G.ssty G.ssty2
AlternateSubs2: "'aalt' Access All Alternates lookup 1 subtable" G.ssty G.ssty2
EndChar

StartChar: H
Encoding: 42 72 43
Width: 104
GlyphClass: 2
Flags: MW
HStem: 0 70<10 70 10 70 30 70 30 90> 50 20<30 70 30 70> 50 70<10 70 10 30>
VStem: 10 20<0 50 70 120> 70 20<0 50 50 50 70 120 0 120>
LayerCount: 2
Fore
SplineSet
10 0 m 1x58
 10 120 l 1
 30 120 l 1x38
 30 70 l 1
 70 70 l 1x58
 70 120 l 1
 90 120 l 1x38
 90 0 l 1
 70 0 l 1x98
 70 50 l 1
 30 50 l 1x58
 30 0 l 1x98
 10 0 l 1x58
EndSplineSet
Validated: 1
AlternateSubs2: "'ssty' Math Script Style lookup 4 subtable" H.ssty H.ssty2
AlternateSubs2: "'aalt' Access All Alternates lookup 1 subtable" H.ssty H.ssty2
EndChar

StartChar: I
Encoding: 43 73 44
Width: 110
GlyphClass: 2
Flags: MW
HStem: 0 20<20 40 60 80 20 40> 100 20<20 80 20 40 60 60 60 80>
VStem: 40 20<20 100 20 100>
LayerCount: 2
Fore
SplineSet
20 100 m 1
 20 120 l 1
 80 120 l 1
 80 100 l 1
 60 100 l 1
 60 20 l 1
 80 20 l 1
 80 0 l 1
 20 0 l 1
 20 20 l 1
 40 20 l 1
 40 100 l 1
 20 100 l 1
EndSplineSet
Validated: 1
AlternateSubs2: "'ssty' Math Script Style lookup 4 subtable" I.ssty I.ssty2
AlternateSubs2: "'aalt' Access All Alternates lookup 1 subtable" I.ssty I.ssty2
EndChar

StartChar: J
Encoding: 44 74 45
Width: 110
GlyphClass: 2
Flags: MW
HStem: -10 20<20 50 20 60 20 50> 100 20G<60 80 80 80>
VStem: 60 20<-10 120 20 120 10 120>
LayerCount: 2
Fore
SplineSet
60 -10 m 1
 20 -10 l 1
 20 10 l 1
 50 10 l 1
 50 20 l 1
 60 20 l 1
 60 120 l 1
 80 120 l 1
 80 10 l 1
 70 10 l 1
 70 0 l 1
 60 0 l 1
 60 -10 l 1
EndSplineSet
Validated: 1
AlternateSubs2: "'ssty' Math Script Style lookup 4 subtable" J.ssty J.ssty2
AlternateSubs2: "'aalt' Access All Alternates lookup 1 subtable" J.ssty J.ssty2
EndChar

StartChar: K
Encoding: 45 75 46
Width: 110
GlyphClass: 2
Flags: MW
HStem: 0 30<70 90 80 90 80 90> 20 10 40 10 60 20<30 50 30 40> 100 20<80 80 80 90>
VStem: 10 20<0 50 80 120> 50 10<20 60> 60 10<0 40> 70 10<30 70 30 50>
LayerCount: 2
Fore
SplineSet
10 0 m 1x8c80
 10 120 l 1
 30 120 l 1
 30 80 l 1
 40 80 l 1
 40 90 l 1
 50 90 l 1
 50 100 l 1
 60 100 l 1
 60 110 l 1
 70 110 l 1
 70 120 l 1
 90 120 l 1x8c80
 90 100 l 1
 80 100 l 1
 80 90 l 1
 70 90 l 1
 70 80 l 1
 60 80 l 1
 60 70 l 1
 70 70 l 1x9d
 70 50 l 1
 80 50 l 1xac80
 80 30 l 1
 90 30 l 1
 90 0 l 1
 70 0 l 1x8c80
 70 20 l 1
 60 20 l 1x4d
 60 40 l 1
 50 40 l 1xae80
 50 60 l 1
 40 60 l 1
 40 50 l 1
 30 50 l 1x9c80
 30 0 l 1
 10 0 l 1x8c80
EndSplineSet
Validated: 1
AlternateSubs2: "'ssty' Math Script Style lookup 4 subtable" K.ssty K.ssty2
AlternateSubs2: "'aalt' Access All Alternates lookup 1 subtable" K.ssty K.ssty2
EndChar

StartChar: L
Encoding: 46 76 47
Width: 110
GlyphClass: 2
Flags: MW
HStem: 0 20<30 90 30 90> 100 20G<10 30 30 30>
VStem: 10 20<20 120 20 120 20 120>
LayerCount: 2
Fore
SplineSet
10 0 m 1
 10 120 l 1
 30 120 l 1
 30 20 l 1
 90 20 l 1
 90 0 l 1
 10 0 l 1
EndSplineSet
Validated: 1
AlternateSubs2: "'ssty' Math Script Style lookup 4 subtable" L.ssty L.ssty2
AlternateSubs2: "'aalt' Access All Alternates lookup 1 subtable" L.ssty L.ssty2
EndChar

StartChar: M
Encoding: 47 77 48
Width: 110
GlyphClass: 2
Flags: MW
HStem: 0 60<10 60 10 60 40 60 40 60 40 70 40 90> 40 20<30 60 30 60 40 70 40 60> 40 50<30 40 30 40 60 70 30 60> 100 20G<10 30 30 30 70 90 90 90>
VStem: 10 20<0 40 90 120> 40 20<0 40 0 40 60 90> 70 20<0 40 40 40 90 120 0 120>
LayerCount: 2
Fore
SplineSet
10 0 m 1x5a
 10 120 l 1
 30 120 l 1x5a
 30 90 l 1
 40 90 l 1x3a
 40 60 l 1
 60 60 l 1x5a
 60 90 l 1
 70 90 l 1x3a
 70 120 l 1
 90 120 l 1
 90 0 l 1
 70 0 l 1x9a
 70 40 l 1
 60 40 l 1x5e
 60 0 l 1
 40 0 l 1x9e
 40 40 l 1
 30 40 l 1x5a
 30 0 l 1x9a
 10 0 l 1x5a
EndSplineSet
Validated: 1
AlternateSubs2: "'ssty' Math Script Style lookup 4 subtable" M.ssty M.ssty2
AlternateSubs2: "'aalt' Access All Alternates lookup 1 subtable" M.ssty M.ssty2
EndChar

StartChar: N
Encoding: 48 78 49
Width: 110
GlyphClass: 2
Flags: MW
HStem: 0 50<10 50 10 50 40 70 40 90> 30 20<40 60 40 50> 50 20<30 50 30 40> 70 20<30 50 30 50 40 60 40 60> 70 50<10 40 10 30 10 60 10 60>
VStem: 10 20<0 70 110 120> 40 10<30 70> 50 10<10 50> 70 20<0 10 10 10 50 120 0 120>
LayerCount: 2
Fore
SplineSet
10 0 m 1x1480
 10 120 l 1
 30 120 l 1
 30 110 l 1
 40 110 l 1x0c80
 40 90 l 1
 50 90 l 1x1680
 50 70 l 1
 60 70 l 1x2580
 60 50 l 1
 70 50 l 1x5480
 70 120 l 1
 90 120 l 1x0c80
 90 0 l 1
 70 0 l 1
 70 10 l 1
 60 10 l 1x9480
 60 30 l 1
 50 30 l 1x5580
 50 50 l 1
 40 50 l 1x2680
 40 70 l 1
 30 70 l 1x1480
 30 0 l 1x9480
 10 0 l 1x1480
EndSplineSet
Validated: 1
AlternateSubs2: "'ssty' Math Script Style lookup 4 subtable" N.ssty N.ssty2
AlternateSubs2: "'aalt' Access All Alternates lookup 1 subtable" N.ssty N.ssty2
EndChar

StartChar: O
Encoding: 49 79 50
Width: 110
GlyphClass: 2
Flags: MW
HStem: 0 20<40 70 10 30> 10 10<10 30 10 20> 100 10<10 30 20 30> 100 20<10 80 20 80 40 70 40 40 30 100>
VStem: 10 20<30 90> 80 20<0 100 30 90 90 90 20 110 20 120>
CounterMasks: 1 e0
LayerCount: 2
Fore
SplineSet
40 30 m 1x9c
 40 20 l 1
 70 20 l 1
 70 30 l 1
 80 30 l 1
 80 90 l 1
 70 90 l 1
 70 100 l 1
 40 100 l 1
 40 90 l 1
 30 90 l 1
 30 30 l 1
 40 30 l 1x9c
20 20 m 1
 10 20 l 1
 10 100 l 1
 20 100 l 1
 20 110 l 1
 30 110 l 1x6c
 30 120 l 1
 80 120 l 1x9c
 80 110 l 1
 90 110 l 1xac
 90 100 l 1
 100 100 l 1
 100 20 l 1
 90 20 l 1
 90 10 l 1
 80 10 l 1x5c
 80 0 l 1
 30 0 l 1x9c
 30 10 l 1
 20 10 l 1x5c
 20 20 l 1
EndSplineSet
Validated: 1
AlternateSubs2: "'ssty' Math Script Style lookup 4 subtable" O.ssty O.ssty2
AlternateSubs2: "'aalt' Access All Alternates lookup 1 subtable" O.ssty O.ssty2
EndChar

StartChar: P
Encoding: 50 80 51
Width: 110
GlyphClass: 2
Flags: MW
HStem: 0 21G<10 10 10 30> 50 20<30 70 30 80 30 70> 100 20<30 30 30 70>
VStem: 10 20<0 50 70 100> 70 20<70 100 100 100>
LayerCount: 2
Fore
SplineSet
30 100 m 1
 30 70 l 1
 70 70 l 1
 70 100 l 1
 30 100 l 1
10 0 m 1
 10 120 l 1
 80 120 l 1
 80 110 l 1
 90 110 l 1
 90 60 l 1
 80 60 l 1
 80 50 l 1
 30 50 l 1
 30 0 l 1
 10 0 l 1
EndSplineSet
Validated: 1
AlternateSubs2: "'ssty' Math Script Style lookup 4 subtable" P.ssty P.ssty2
AlternateSubs2: "'aalt' Access All Alternates lookup 1 subtable" P.ssty P.ssty2
EndChar

StartChar: Q
Encoding: 51 81 52
Width: 110
GlyphClass: 2
Flags: MW
HStem: -10 20<90 100> 0 20<40 70> 0 40<30 40 70 80 30 40> 20 20<10 40 30 70> 30 20<40 70 40 70> 100 10<10 30 20 30> 100 20<10 80 20 80 40 70 40 40 30 100>
VStem: 10 20<40 90> 30 10<40 50> 80 20<-10 0 0 0 40 90 90 90>
CounterMasks: 1 4f20
LayerCount: 2
Fore
SplineSet
30 40 m 1x22c0
 40 40 l 1x9340
 40 50 l 1
 70 50 l 1x4ac0
 70 40 l 1
 80 40 l 1
 80 90 l 1
 70 90 l 1
 70 100 l 1
 40 100 l 1
 40 90 l 1
 30 90 l 1
 30 40 l 1x22c0
40 20 m 1x4ac0
 70 20 l 1
 70 30 l 1
 40 30 l 1
 40 20 l 1x4ac0
10 20 m 1x4b40
 10 100 l 1
 20 100 l 1
 20 110 l 1
 30 110 l 1x4d40
 30 120 l 1
 80 120 l 1x4b40
 80 110 l 1
 90 110 l 1x4d40
 90 100 l 1
 100 100 l 1
 100 20 l 1
 90 20 l 1x4b40
 90 10 l 1
 100 10 l 1
 100 -10 l 1
 80 -10 l 1x8b40
 80 0 l 1
 30 0 l 1x4b40
 30 10 l 1
 20 10 l 1x8b40
 20 20 l 1
 10 20 l 1x4b40
EndSplineSet
Validated: 1
AlternateSubs2: "'ssty' Math Script Style lookup 4 subtable" Q.ssty Q.ssty2
AlternateSubs2: "'aalt' Access All Alternates lookup 1 subtable" Q.ssty Q.ssty2
EndChar

StartChar: R
Encoding: 52 82 53
Width: 110
GlyphClass: 2
Flags: MW
HStem: 0 20<70 90 80 90 80 90> 10 10 30 10 50 20<30 50 30 70 30 80 30 70> 100 20<30 30 30 70>
VStem: 10 20<0 50 70 100> 70 20<0 10 10 10 70 100 100 100>
LayerCount: 2
Fore
SplineSet
30 100 m 1xbe
 30 70 l 1
 70 70 l 1
 70 100 l 1
 30 100 l 1xbe
10 0 m 1
 10 120 l 1
 80 120 l 1
 80 110 l 1
 90 110 l 1
 90 60 l 1
 80 60 l 1
 80 50 l 1
 70 50 l 1
 70 40 l 1
 80 40 l 1
 80 20 l 1
 90 20 l 1
 90 0 l 1
 70 0 l 1xbe
 70 10 l 1
 60 10 l 1x7e
 60 30 l 1
 50 30 l 1
 50 50 l 1
 30 50 l 1
 30 0 l 1
 10 0 l 1
EndSplineSet
Validated: 1
AlternateSubs2: "'ssty' Math Script Style lookup 4 subtable" R.ssty R.ssty2
AlternateSubs2: "'aalt' Access All Alternates lookup 1 subtable" R.ssty R.ssty2
EndChar

StartChar: S
Encoding: 53 83 54
Width: 110
GlyphClass: 2
Flags: MW
HStem: 0 20<30 70 30 80 20 70> 10 10<90 90> 50 20<40 70 10 30> 100 10<10 30 20 30> 100 20<10 90 20 90 40 80 40 40>
VStem: 20 10<60 60 110 110> 30 10<70 90 70 80> 70 10<30 30 40 40> 80 10<0 20>
LayerCount: 2
Fore
SplineSet
80 90 m 1x9480
 80 100 l 1x8c80
 40 100 l 1
 40 90 l 1
 30 90 l 1
 30 80 l 1
 40 80 l 1
 40 70 l 1
 80 70 l 1
 80 60 l 1
 90 60 l 1
 90 50 l 1
 100 50 l 1xaa80
 100 20 l 1
 90 20 l 1
 90 10 l 1
 80 10 l 1
 80 0 l 1x8d
 20 0 l 1
 20 10 l 1
 10 10 l 1
 10 30 l 1x4c80
 30 30 l 1
 30 20 l 1x8c80
 70 20 l 1
 70 30 l 1
 80 30 l 1
 80 40 l 1
 70 40 l 1
 70 50 l 1
 30 50 l 1
 30 60 l 1
 20 60 l 1
 20 70 l 1
 10 70 l 1xad
 10 100 l 1
 20 100 l 1
 20 110 l 1
 30 110 l 1
 30 120 l 1x8a80
 90 120 l 1
 90 110 l 1
 100 110 l 1
 100 90 l 1
 80 90 l 1x9480
EndSplineSet
Validated: 1
AlternateSubs2: "'ssty' Math Script Style lookup 4 subtable" S.ssty S.ssty2
AlternateSubs2: "'aalt' Access All Alternates lookup 1 subtable" S.ssty S.ssty2
EndChar

StartChar: T
Encoding: 54 84 55
Width: 110
GlyphClass: 2
Flags: MW
HStem: 0 21G<40 60 40 40> 100 20<10 90 10 40 60 60 60 90>
VStem: 40 20<0 100 0 100>
CounterMasks: 1 38
LayerCount: 2
Fore
SplineSet
10 100 m 1
 10 120 l 1
 90 120 l 1
 90 100 l 1
 60 100 l 1
 60 0 l 1
 40 0 l 1
 40 100 l 1
 10 100 l 1
EndSplineSet
Validated: 1
AlternateSubs2: "'ssty' Math Script Style lookup 4 subtable" T.ssty T.ssty2
AlternateSubs2: "'aalt' Access All Alternates lookup 1 subtable" T.ssty T.ssty2
EndChar

StartChar: U
Encoding: 55 85 56
Width: 110
GlyphClass: 2
Flags: MW
HStem: 0 20<30 70 30 80 20 70> 10 10 100 20G<10 30 30 30 70 90 90 90>
VStem: 10 20<20 120 20 120 20 120> 70 20<20 120 10 120>
LayerCount: 2
Fore
SplineSet
20 10 m 1x78
 10 10 l 1x78
 10 120 l 1
 30 120 l 1
 30 20 l 1
 70 20 l 1
 70 120 l 1
 90 120 l 1
 90 10 l 1
 80 10 l 1
 80 0 l 1xb8
 20 0 l 1
 20 10 l 1x78
EndSplineSet
Validated: 1
AlternateSubs2: "'ssty' Math Script Style lookup 4 subtable" U.ssty U.ssty2
AlternateSubs2: "'aalt' Access All Alternates lookup 1 subtable" U.ssty U.ssty2
EndChar

StartChar: V
Encoding: 56 86 57
Width: 110
GlyphClass: 2
Flags: MW
HStem: 0 30<50 60 50 70 40 60> 20 10 50 10 80 10 80 40<10 30 10 20 90 90 90 100>
VStem: 20 10<20 80> 30 10<0 50> 40 10<30 90 30 60> 60 10<60 60> 70 10<0 50> 80 10<20 80>
LayerCount: 2
Fore
SplineSet
10 80 m 1x9440
 10 120 l 1
 30 120 l 1x8c40
 30 90 l 1
 40 90 l 1x9240
 40 60 l 1
 50 60 l 1xb540
 50 30 l 1
 60 30 l 1x9480
 60 60 l 1
 70 60 l 1xb440
 70 90 l 1
 80 90 l 1x9420
 80 120 l 1
 100 120 l 1x8c20
 100 80 l 1
 90 80 l 1x9420
 90 50 l 1
 80 50 l 1xb440
 80 20 l 1
 70 20 l 1x5480
 70 0 l 1x9480
 40 0 l 1x9540
 40 20 l 1
 30 20 l 1x5240
 30 50 l 1
 20 50 l 1xb440
 20 80 l 1
 10 80 l 1x9440
EndSplineSet
Validated: 1
AlternateSubs2: "'ssty' Math Script Style lookup 4 subtable" V.ssty V.ssty2
AlternateSubs2: "'aalt' Access All Alternates lookup 1 subtable" V.ssty V.ssty2
EndChar

StartChar: W
Encoding: 57 87 58
Width: 110
GlyphClass: 2
Flags: MW
HStem: 0 50<30 40 10 40 10 20 60 70 10 60> 30 20<40 40 60 60> 50 50<10 60 10 60 30 60 40 60 40 70 40 70 40 90 40 80> 50 70<10 20 10 30 10 40 10 40 10 70 10 70 80 90 80 80>
VStem: 20 10<0 120 50 120> 40 20<0 30 0 30 50 100> 70 10<0 120>
LayerCount: 2
Fore
SplineSet
90 120 m 1x1a
 90 50 l 1
 80 50 l 1x1a
 80 0 l 1
 60 0 l 1x8a
 60 30 l 1
 40 30 l 1x4a
 40 0 l 1
 20 0 l 1x8a
 20 50 l 1
 10 50 l 1
 10 120 l 1
 30 120 l 1x1a
 30 50 l 1
 40 50 l 1x4e
 40 100 l 1
 60 100 l 1x2e
 60 50 l 1
 70 50 l 1x4a
 70 120 l 1
 90 120 l 1x1a
EndSplineSet
Validated: 1
AlternateSubs2: "'ssty' Math Script Style lookup 4 subtable" W.ssty W.ssty2
AlternateSubs2: "'aalt' Access All Alternates lookup 1 subtable" W.ssty W.ssty2
EndChar

StartChar: X
Encoding: 58 88 59
Width: 110
GlyphClass: 2
Flags: MW
HStem: 0 30<10 20 10 30 10 20 80 90> 20 10 40 10 70 10 90 10 90 30<10 30 10 20 80 80 80 90>
VStem: 20 10<50 50 70 70> 30 10<0 40> 60 10<0 40> 70 10<30 70 30 50>
LayerCount: 2
Fore
SplineSet
10 90 m 1x8640
 10 120 l 1
 30 120 l 1x8640
 30 100 l 1
 40 100 l 1x8940
 40 80 l 1x9540
 60 80 l 1x9680
 60 100 l 1
 70 100 l 1x8a40
 70 120 l 1
 90 120 l 1
 90 90 l 1
 80 90 l 1x8640
 80 70 l 1
 70 70 l 1x9680
 70 50 l 1
 80 50 l 1xa640
 80 30 l 1
 90 30 l 1
 90 0 l 1
 70 0 l 1x8640
 70 20 l 1
 60 20 l 1x4680
 60 40 l 1xa680
 40 40 l 1xa540
 40 20 l 1
 30 20 l 1x4640
 30 0 l 1
 10 0 l 1
 10 30 l 1
 20 30 l 1x8640
 20 50 l 1
 30 50 l 1xa540
 30 70 l 1
 20 70 l 1x9640
 20 90 l 1
 10 90 l 1x8640
EndSplineSet
Validated: 1
AlternateSubs2: "'ssty' Math Script Style lookup 4 subtable" X.ssty X.ssty2
AlternateSubs2: "'aalt' Access All Alternates lookup 1 subtable" X.ssty X.ssty2
EndChar

StartChar: Y
Encoding: 59 89 60
Width: 110
GlyphClass: 2
Flags: MW
HStem: 0 21G<40 60 40 40> 70 10 90 10 90 30<10 20 10 30 80 80 80 90>
VStem: 20 10<50 90> 30 10<0 70> 40 20<0 50 0 50 80 100> 60 10<0 50> 70 10<50 90>
LayerCount: 2
Fore
SplineSet
70 50 m 1xd1
 60 50 l 1
 60 0 l 1
 40 0 l 1xd2
 40 50 l 1
 30 50 l 1x94
 30 70 l 1
 20 70 l 1xda
 20 90 l 1
 10 90 l 1
 10 120 l 1
 30 120 l 1x9a
 30 100 l 1
 40 100 l 1xa4
 40 80 l 1xd4
 60 80 l 1xd1
 60 100 l 1
 70 100 l 1xa280
 70 120 l 1
 90 120 l 1
 90 90 l 1
 80 90 l 1x9280
 80 70 l 1
 70 70 l 1
 70 50 l 1xd1
EndSplineSet
Validated: 1
AlternateSubs2: "'ssty' Math Script Style lookup 4 subtable" Y.ssty Y.ssty2
AlternateSubs2: "'aalt' Access All Alternates lookup 1 subtable" Y.ssty Y.ssty2
EndChar

StartChar: Z
Encoding: 60 90 61
Width: 110
GlyphClass: 2
Flags: MW
HStem: 0 20<40 90 40 90> 30 10<10 30 20 30> 50 10<60 60> 60 10<30 50 40 50> 80 10<80 80> 100 20<10 90 10 60>
VStem: 30 10<60 60> 40 10<20 50> 50 10<30 60> 60 10<50 80>
LayerCount: 2
Fore
SplineSet
10 100 m 1x8640
 10 120 l 1
 90 120 l 1x8640
 90 90 l 1
 80 90 l 1
 80 80 l 1
 70 80 l 1x8e40
 70 60 l 1
 60 60 l 1
 60 50 l 1
 50 50 l 1xa5
 50 30 l 1
 40 30 l 1
 40 20 l 1
 90 20 l 1
 90 0 l 1
 10 0 l 1x86
 10 30 l 1
 20 30 l 1
 20 40 l 1
 30 40 l 1xc6
 30 60 l 1
 40 60 l 1
 40 70 l 1
 50 70 l 1x9680
 50 90 l 1
 60 90 l 1
 60 100 l 1
 10 100 l 1x8640
EndSplineSet
Validated: 1
AlternateSubs2: "'ssty' Math Script Style lookup 4 subtable" Z.ssty Z.ssty2
AlternateSubs2: "'aalt' Access All Alternates lookup 1 subtable" Z.ssty Z.ssty2
EndChar

StartChar: bracketleft
Encoding: 61 91 62
Width: 110
GlyphClass: 2
Flags: MW
HStem: 0 20<40 70 40 70> 100 20<40 70 40 40>
VStem: 20 20<20 100 20 120>
LayerCount: 2
Fore
SplineSet
20 0 m 1
 20 120 l 1
 70 120 l 1
 70 100 l 1
 40 100 l 1
 40 20 l 1
 70 20 l 1
 70 0 l 1
 20 0 l 1
EndSplineSet
Validated: 1
AlternateSubs2: "'ssty' Math Script Style lookup 4 subtable" bracketleft.ssty bracketleft.ssty2
AlternateSubs2: "'aalt' Access All Alternates lookup 1 subtable" bracketleft.ssty bracketleft.ssty2
EndChar

StartChar: backslash
Encoding: 62 92 63
Width: 110
GlyphClass: 2
Flags: HMW
HStem: 0 30<70 80 70 80 60 80> 20 10 40 10 70 10 90 10 90 30<20 30 30 30>
VStem: 60 10<50 50> 50 10<0 40> 40 10<20 70> 30 10<40 90>
CounterMasks: 1 a8
LayerCount: 2
Fore
SplineSet
80 0 m 5x86
 80 30 l 5
 70 30 l 5x86
 70 50 l 5
 60 50 l 5xa5
 60 80 l 5
 50 80 l 5x9480
 50 100 l 5
 40 100 l 5x8940
 40 120 l 5
 20 120 l 5
 20 90 l 5
 30 90 l 5x8540
 30 70 l 5
 40 70 l 5x9480
 40 40 l 5
 50 40 l 5xa5
 50 20 l 5
 60 20 l 5x46
 60 0 l 5
 80 0 l 5x86
EndSplineSet
Validated: 9
AlternateSubs2: "'ssty' Math Script Style lookup 4 subtable" backslash.ssty backslash.ssty2
AlternateSubs2: "'aalt' Access All Alternates lookup 1 subtable" backslash.ssty backslash.ssty2
EndChar

StartChar: bracketright
Encoding: 63 93 64
Width: 110
GlyphClass: 2
Flags: MW
HStem: 0 20<30 60 30 80 30 60> 100 20<30 60 30 80>
VStem: 60 20<20 100 100 100>
LayerCount: 2
Fore
SplineSet
30 120 m 1
 80 120 l 1
 80 0 l 1
 30 0 l 1
 30 20 l 1
 60 20 l 1
 60 100 l 1
 30 100 l 1
 30 120 l 1
EndSplineSet
Validated: 1
AlternateSubs2: "'ssty' Math Script Style lookup 4 subtable" bracketright.ssty bracketright.ssty2
AlternateSubs2: "'aalt' Access All Alternates lookup 1 subtable" bracketright.ssty bracketright.ssty2
EndChar

StartChar: asciicircum
Encoding: 64 94 65
Width: 110
GlyphClass: 2
Flags: MW
HStem: 80 20<10 20 10 20 10 30 80 90> 100 20<10 70 20 70 40 40 40 60 30 90>
VStem: 10 20<80 90 80 100 80 100> 30 10<80 100> 70 20<80 90 90 90 80 120 80 110>
CounterMasks: 1 2a
LayerCount: 2
Fore
SplineSet
10 80 m 1xa8
 10 100 l 1
 20 100 l 1
 20 110 l 1
 30 110 l 1
 30 120 l 1x58
 70 120 l 1
 70 110 l 1
 80 110 l 1
 80 100 l 1
 90 100 l 1
 90 80 l 1xa8
 70 80 l 1
 70 90 l 1
 60 90 l 1
 60 100 l 1x68
 40 100 l 1
 40 90 l 1
 30 90 l 1
 30 80 l 1
 10 80 l 1xa8
EndSplineSet
Validated: 1
AlternateSubs2: "'ssty' Math Script Style lookup 4 subtable" asciicircum.ssty asciicircum.ssty2
AlternateSubs2: "'aalt' Access All Alternates lookup 1 subtable" asciicircum.ssty asciicircum.ssty2
EndChar

StartChar: underscore
Encoding: 65 95 66
Width: 110
GlyphClass: 2
Flags: MW
HStem: -10 20<0 100 0 100>
VStem: 0 100<-10 10 -10 10>
LayerCount: 2
Fore
SplineSet
0 -10 m 1
 0 10 l 1
 100 10 l 1
 100 -10 l 1
 0 -10 l 1
EndSplineSet
Validated: 1
AlternateSubs2: "'ssty' Math Script Style lookup 4 subtable" underscore.ssty underscore.ssty2
AlternateSubs2: "'aalt' Access All Alternates lookup 1 subtable" underscore.ssty underscore.ssty2
EndChar

StartChar: a
Encoding: 66 97 67
Width: 110
GlyphClass: 2
Flags: MW
HStem: 0 20<30 70 30 90 20 70> 40 20<30 70 30 30> 70 20<20 70 20 80>
VStem: 10 20<20 20 20 40> 70 20<20 40 40 40 60 70 70 70>
LayerCount: 2
Fore
SplineSet
30 20 m 1
 70 20 l 1
 70 40 l 1
 30 40 l 1
 30 20 l 1
80 90 m 1
 80 80 l 1
 90 80 l 1
 90 0 l 1
 20 0 l 1
 20 10 l 1
 10 10 l 1
 10 50 l 1
 20 50 l 1
 20 60 l 1
 70 60 l 1
 70 70 l 1
 20 70 l 1
 20 90 l 1
 80 90 l 1
EndSplineSet
Validated: 1
AlternateSubs2: "'ssty' Math Script Style lookup 4 subtable" a.ssty a.ssty2
AlternateSubs2: "'aalt' Access All Alternates lookup 1 subtable" a.ssty a.ssty2
EndChar

StartChar: b
Encoding: 67 98 68
Width: 110
GlyphClass: 2
Flags: MW
HStem: 0 20<30 70 30 80> 70 20<30 70 30 80> 70 50<10 70 10 30>
VStem: 10 20<20 20 20 70 90 120> 70 20<20 70 70 70>
LayerCount: 2
Fore
SplineSet
30 20 m 1xd8
 70 20 l 1
 70 70 l 1
 30 70 l 1
 30 20 l 1xd8
10 120 m 1xb8
 30 120 l 1xb8
 30 90 l 1
 80 90 l 1xd8
 80 80 l 1
 90 80 l 1
 90 10 l 1
 80 10 l 1
 80 0 l 1
 10 0 l 1
 10 120 l 1xb8
EndSplineSet
Validated: 1
AlternateSubs2: "'ssty' Math Script Style lookup 4 subtable" b.ssty b.ssty2
AlternateSubs2: "'aalt' Access All Alternates lookup 1 subtable" b.ssty b.ssty2
EndChar

StartChar: c
Encoding: 68 99 69
Width: 110
GlyphClass: 2
Flags: MW
HStem: 0 20<30 70 30 80 20 70> 70 10 70 20<30 70 30 30>
VStem: 10 20<20 70 20 80 20 80> 70 20<20 30 10 30 60 70 70 70>
LayerCount: 2
Fore
SplineSet
10 10 m 1xb8
 10 80 l 1
 20 80 l 1
 20 90 l 1xb8
 80 90 l 1
 80 80 l 1
 90 80 l 1
 90 60 l 1xd8
 70 60 l 1
 70 70 l 1
 30 70 l 1
 30 20 l 1
 70 20 l 1
 70 30 l 1
 90 30 l 1
 90 10 l 1
 80 10 l 1
 80 0 l 1
 20 0 l 1
 20 10 l 1
 10 10 l 1xb8
EndSplineSet
Validated: 1
AlternateSubs2: "'ssty' Math Script Style lookup 4 subtable" c.ssty c.ssty2
AlternateSubs2: "'aalt' Access All Alternates lookup 1 subtable" c.ssty c.ssty2
EndChar

StartChar: d
Encoding: 69 100 70
Width: 110
GlyphClass: 2
Flags: MW
HStem: 0 20<30 70 30 90 20 70> 70 20<30 70 30 30> 70 50<30 90 30 90>
VStem: 10 20<20 70 20 80 20 80> 70 20<20 70 70 70 90 120 0 120>
LayerCount: 2
Fore
SplineSet
70 20 m 1xd8
 70 70 l 1
 30 70 l 1
 30 20 l 1
 70 20 l 1xd8
90 120 m 1xb8
 90 0 l 1
 20 0 l 1
 20 10 l 1
 10 10 l 1
 10 80 l 1
 20 80 l 1
 20 90 l 1
 70 90 l 1xd8
 70 120 l 1
 90 120 l 1xb8
EndSplineSet
Validated: 1
AlternateSubs2: "'ssty' Math Script Style lookup 4 subtable" d.ssty d.ssty2
AlternateSubs2: "'aalt' Access All Alternates lookup 1 subtable" d.ssty d.ssty2
EndChar

StartChar: e
Encoding: 70 101 71
Width: 110
GlyphClass: 2
Flags: MW
HStem: 0 20<30 70 30 80 20 70> 10 10 40 20<30 70 30 90 30 70> 70 10 70 20<30 30 30 70>
VStem: 10 20<20 40 60 70> 70 20<20 30 10 30 60 70 70 70>
LayerCount: 2
Fore
SplineSet
30 70 m 1x76
 30 60 l 1
 70 60 l 1
 70 70 l 1
 30 70 l 1x76
20 10 m 1
 10 10 l 1
 10 80 l 1
 20 80 l 1x76
 20 90 l 1
 80 90 l 1xae
 80 80 l 1
 90 80 l 1
 90 40 l 1
 30 40 l 1
 30 20 l 1
 70 20 l 1
 70 30 l 1
 90 30 l 1
 90 10 l 1
 80 10 l 1x76
 80 0 l 1
 20 0 l 1xae
 20 10 l 1
EndSplineSet
Validated: 1
AlternateSubs2: "'ssty' Math Script Style lookup 4 subtable" e.ssty e.ssty2
AlternateSubs2: "'aalt' Access All Alternates lookup 1 subtable" e.ssty e.ssty2
EndChar

StartChar: f
Encoding: 71 102 72
Width: 110
GlyphClass: 2
Flags: MW
HStem: 0 21G<30 50 30 30> 60 20<10 30 10 30 50 80> 100 10 100 20<50 70 50 50>
VStem: 30 20<0 60 0 60 80 100> 70 10
LayerCount: 2
Fore
SplineSet
10 60 m 1xc8
 10 80 l 1
 30 80 l 1xc8
 30 110 l 1
 40 110 l 1
 40 120 l 1xd8
 80 120 l 1
 80 110 l 1
 90 110 l 1
 90 90 l 1xec
 70 90 l 1
 70 100 l 1xdc
 50 100 l 1xd8
 50 80 l 1xc8
 80 80 l 1
 80 60 l 1xcc
 50 60 l 1
 50 0 l 1
 30 0 l 1
 30 60 l 1
 10 60 l 1xc8
EndSplineSet
Validated: 1
AlternateSubs2: "'ssty' Math Script Style lookup 4 subtable" f.ssty f.ssty2
AlternateSubs2: "'aalt' Access All Alternates lookup 1 subtable" f.ssty f.ssty2
EndChar

StartChar: g
Encoding: 72 103 73
Width: 110
GlyphClass: 2
Flags: MW
HStem: -10 20<30 70 30 80 20 70> 0 30<10 20 10 20 80 90> 20 20<20 30 50 70> 60 10 80 20<30 30 30 60 80 80 80 90>
VStem: 20 10<40 40 50 50> 30 20<40 50 40 50> 60 10 70 10<60 60>
LayerCount: 2
Fore
SplineSet
30 80 m 1xbd
 30 70 l 1
 60 70 l 1
 60 80 l 1
 30 80 l 1xbd
30 20 m 1
 30 10 l 1
 70 10 l 1
 70 20 l 1
 30 20 l 1
20 0 m 1x5c80
 10 0 l 1
 10 30 l 1
 20 30 l 1x5c80
 20 40 l 1
 30 40 l 1
 30 50 l 1
 20 50 l 1
 20 60 l 1
 10 60 l 1
 10 90 l 1
 20 90 l 1
 20 100 l 1xbc80
 90 100 l 1
 90 80 l 1
 80 80 l 1
 80 60 l 1
 70 60 l 1
 70 50 l 1
 50 50 l 1
 50 40 l 1
 80 40 l 1xba80
 80 30 l 1
 90 30 l 1
 90 0 l 1
 80 0 l 1x5c80
 80 -10 l 1
 20 -10 l 1xbc80
 20 0 l 1x5c80
EndSplineSet
Validated: 1
AlternateSubs2: "'ssty' Math Script Style lookup 4 subtable" g.ssty g.ssty2
AlternateSubs2: "'aalt' Access All Alternates lookup 1 subtable" g.ssty g.ssty2
EndChar

StartChar: h
Encoding: 73 104 74
Width: 110
GlyphClass: 2
Flags: MW
HStem: 0 21G<10 30 10 10 70 90 70 70> 70 10<30 70 30 40> 70 20<40 70 40 80> 70 50<10 70 10 40>
VStem: 10 20<0 60 80 120> 70 20<0 70 70 70>
LayerCount: 2
Fore
SplineSet
90 0 m 1xac
 70 0 l 1
 70 70 l 1
 40 70 l 1
 40 60 l 1
 30 60 l 1xac
 30 0 l 1
 10 0 l 1
 10 120 l 1
 30 120 l 1x9c
 30 80 l 1
 40 80 l 1
 40 90 l 1xac
 80 90 l 1
 80 80 l 1
 90 80 l 1xcc
 90 0 l 1xac
EndSplineSet
Validated: 1
AlternateSubs2: "'ssty' Math Script Style lookup 4 subtable" h.ssty h.ssty2
AlternateSubs2: "'aalt' Access All Alternates lookup 1 subtable" h.ssty h.ssty2
EndChar

StartChar: i
Encoding: 74 105 75
Width: 110
GlyphClass: 2
Flags: MW
HStem: 0 20<20 40 60 80 20 40> 70 20<20 60 20 40> 100 20<40 60 40 60>
VStem: 40 20<20 70 70 70 100 120>
LayerCount: 2
Fore
SplineSet
20 70 m 1
 20 90 l 1
 60 90 l 1
 60 20 l 1
 80 20 l 1
 80 0 l 1
 20 0 l 1
 20 20 l 1
 40 20 l 1
 40 70 l 1
 20 70 l 1
40 100 m 1
 40 120 l 1
 60 120 l 1
 60 100 l 1
 40 100 l 1
EndSplineSet
Validated: 1
AlternateSubs2: "'ssty' Math Script Style lookup 4 subtable" i.ssty i.ssty2
AlternateSubs2: "'aalt' Access All Alternates lookup 1 subtable" i.ssty i.ssty2
EndChar

StartChar: j
Encoding: 75 106 76
Width: 110
GlyphClass: 2
Flags: MW
HStem: -10 20<30 60 30 70 30 60> 70 20<40 80 40 60> 100 20<60 80 60 80>
VStem: 60 20<10 70 70 70 100 120>
LayerCount: 2
Fore
SplineSet
40 70 m 1
 40 90 l 1
 80 90 l 1
 80 0 l 1
 70 0 l 1
 70 -10 l 1
 30 -10 l 1
 30 10 l 1
 60 10 l 1
 60 70 l 1
 40 70 l 1
60 100 m 1xf0
 60 120 l 1
 80 120 l 1
 80 100 l 1
 60 100 l 1xf0
EndSplineSet
Validated: 1
AlternateSubs2: "'ssty' Math Script Style lookup 4 subtable" j.ssty j.ssty2
AlternateSubs2: "'aalt' Access All Alternates lookup 1 subtable" j.ssty j.ssty2
EndChar

StartChar: k
Encoding: 76 107 77
Width: 110
GlyphClass: 2
Flags: MW
HStem: 0 20<10 40 80 90> 30 20<30 50 30 40> 70 20<50 90 60 90 80 80 80 90> 100 20G<10 30 30 30>
VStem: 10 20<0 20 50 120> 70 20<0 10 10 10 0 40 0 30 80 90>
CounterMasks: 1 e0
LayerCount: 2
Fore
SplineSet
10 0 m 1
 10 120 l 1
 30 120 l 1xbc
 30 50 l 1
 40 50 l 1
 40 60 l 1
 50 60 l 1
 50 70 l 1
 60 70 l 1
 60 80 l 1
 70 80 l 1
 70 90 l 1
 90 90 l 1
 90 70 l 1
 80 70 l 1
 80 60 l 1
 70 60 l 1
 70 50 l 1
 60 50 l 1
 60 40 l 1
 70 40 l 1
 70 30 l 1
 80 30 l 1
 80 20 l 1
 90 20 l 1
 90 0 l 1xac
 70 0 l 1
 70 10 l 1
 60 10 l 1
 60 20 l 1
 50 20 l 1
 50 30 l 1
 40 30 l 1
 40 20 l 1
 30 20 l 1xec
 30 0 l 1
 10 0 l 1
EndSplineSet
Validated: 1
AlternateSubs2: "'ssty' Math Script Style lookup 4 subtable" k.ssty k.ssty2
AlternateSubs2: "'aalt' Access All Alternates lookup 1 subtable" k.ssty k.ssty2
EndChar

StartChar: l
Encoding: 77 108 78
Width: 110
GlyphClass: 2
Flags: MW
HStem: 0 20<20 40 60 80 20 40> 100 20<20 60 20 40>
VStem: 40 20<20 100 100 100>
LayerCount: 2
Fore
SplineSet
20 100 m 1
 20 120 l 1
 60 120 l 1
 60 20 l 1
 80 20 l 1
 80 0 l 1
 20 0 l 1
 20 20 l 1
 40 20 l 1
 40 100 l 1
 20 100 l 1
EndSplineSet
Validated: 1
AlternateSubs2: "'ssty' Math Script Style lookup 4 subtable" l.ssty l.ssty2
AlternateSubs2: "'aalt' Access All Alternates lookup 1 subtable" l.ssty l.ssty2
EndChar

StartChar: m
Encoding: 78 109 79
Width: 110
GlyphClass: 2
Flags: MW
HStem: 0 80<0 30 0 30 50 60 20 60 20 40 20 80 90 100 20 100> 70 20<30 40 0 30 70 70 70 80>
VStem: 0 20<0 60 80 90> 30 20<60 90 80 90 80 90> 40 20<0 60> 60 10<0 70> 80 20<0 70 70 70>
LayerCount: 2
Fore
SplineSet
60 0 m 1xaa
 40 0 l 1xaa
 40 70 l 1
 30 70 l 1
 30 60 l 1
 20 60 l 1x62
 20 0 l 1
 0 0 l 1xa2
 0 90 l 1x62
 20 90 l 1
 20 80 l 1
 30 80 l 1
 30 90 l 1x72
 50 90 l 1
 50 80 l 1
 60 80 l 1
 60 90 l 1x66
 90 90 l 1
 90 80 l 1
 100 80 l 1
 100 0 l 1
 80 0 l 1xa2
 80 70 l 1
 70 70 l 1
 70 60 l 1
 60 60 l 1x6a
 60 0 l 1xaa
EndSplineSet
Validated: 1
AlternateSubs2: "'ssty' Math Script Style lookup 4 subtable" m.ssty m.ssty2
AlternateSubs2: "'aalt' Access All Alternates lookup 1 subtable" m.ssty m.ssty2
EndChar

StartChar: n
Encoding: 79 110 80
Width: 110
GlyphClass: 2
Flags: MW
HStem: 0 21G<10 30 10 10 70 90 70 70> 70 10<30 70 30 40> 70 20<40 70 10 40>
VStem: 10 20<0 60 80 90> 70 20<0 70 70 70>
LayerCount: 2
Fore
SplineSet
90 0 m 1xb8
 70 0 l 1
 70 70 l 1
 40 70 l 1
 40 60 l 1
 30 60 l 1
 30 0 l 1
 10 0 l 1
 10 90 l 1
 30 90 l 1
 30 80 l 1
 40 80 l 1
 40 90 l 1xb8
 80 90 l 1
 80 80 l 1
 90 80 l 1xd8
 90 0 l 1xb8
EndSplineSet
Validated: 1
AlternateSubs2: "'ssty' Math Script Style lookup 4 subtable" n.ssty n.ssty2
AlternateSubs2: "'aalt' Access All Alternates lookup 1 subtable" n.ssty n.ssty2
EndChar

StartChar: o
Encoding: 80 111 81
Width: 110
GlyphClass: 2
Flags: MW
HStem: 0 20<30 70 30 80 20 70> 10 10 70 10 70 20<30 30 30 70>
VStem: 10 20<20 70 20 80 20 80> 70 20<20 70 70 70>
LayerCount: 2
Fore
SplineSet
30 70 m 1xac
 30 20 l 1
 70 20 l 1
 70 70 l 1
 30 70 l 1xac
20 10 m 1x5c
 10 10 l 1
 10 80 l 1
 20 80 l 1x6c
 20 90 l 1
 80 90 l 1x9c
 80 80 l 1
 90 80 l 1
 90 10 l 1
 80 10 l 1x6c
 80 0 l 1
 20 0 l 1x9c
 20 10 l 1x5c
EndSplineSet
Validated: 1
AlternateSubs2: "'ssty' Math Script Style lookup 4 subtable" o.ssty o.ssty2
AlternateSubs2: "'aalt' Access All Alternates lookup 1 subtable" o.ssty o.ssty2
EndChar

StartChar: p
Encoding: 81 112 82
Width: 110
GlyphClass: 2
Flags: MW
HStem: -10 50<10 70 10 70> 20 20<30 70 30 80 30 70> 70 20<30 70 30 30>
VStem: 10 20<-10 20 40 70> 70 20<40 70 70 70>
LayerCount: 2
Fore
SplineSet
70 70 m 1x78
 30 70 l 1
 30 40 l 1
 70 40 l 1
 70 70 l 1x78
30 -10 m 1xb8
 10 -10 l 1xb8
 10 90 l 1
 80 90 l 1
 80 80 l 1
 90 80 l 1
 90 30 l 1
 80 30 l 1
 80 20 l 1
 30 20 l 1x78
 30 -10 l 1xb8
EndSplineSet
Validated: 1
AlternateSubs2: "'ssty' Math Script Style lookup 4 subtable" p.ssty p.ssty2
AlternateSubs2: "'aalt' Access All Alternates lookup 1 subtable" p.ssty p.ssty2
EndChar

StartChar: q
Encoding: 82 113 83
Width: 110
GlyphClass: 2
Flags: MW
HStem: -10 50<30 90 30 70> 20 20<30 70 30 70 20 70> 70 20<30 70 30 30>
VStem: 10 20<40 70 40 80 40 80> 70 20<-10 20 20 20 40 70 70 70>
LayerCount: 2
Fore
SplineSet
70 40 m 1x78
 70 70 l 1
 30 70 l 1
 30 40 l 1
 70 40 l 1x78
90 90 m 1
 90 -10 l 1
 70 -10 l 1xb8
 70 20 l 1
 20 20 l 1
 20 30 l 1
 10 30 l 1
 10 80 l 1
 20 80 l 1
 20 90 l 1
 90 90 l 1
EndSplineSet
Validated: 1
AlternateSubs2: "'ssty' Math Script Style lookup 4 subtable" q.ssty q.ssty2
AlternateSubs2: "'aalt' Access All Alternates lookup 1 subtable" q.ssty q.ssty2
EndChar

StartChar: r
Encoding: 83 114 84
Width: 110
GlyphClass: 2
Flags: MW
HStem: 0 21G<20 40 20 20> 70 20<50 90 20 50>
VStem: 20 20<0 60 80 90> 50 40<60 70 60 70 80 90 70 90>
LayerCount: 2
Fore
SplineSet
90 70 m 1
 50 70 l 1
 50 60 l 1
 40 60 l 1
 40 0 l 1
 20 0 l 1
 20 90 l 1xe0
 40 90 l 1
 40 80 l 1
 50 80 l 1
 50 90 l 1
 90 90 l 1
 90 70 l 1
EndSplineSet
Validated: 1
AlternateSubs2: "'ssty' Math Script Style lookup 4 subtable" r.ssty r.ssty2
AlternateSubs2: "'aalt' Access All Alternates lookup 1 subtable" r.ssty r.ssty2
EndChar

StartChar: s
Encoding: 84 115 85
Width: 110
GlyphClass: 2
Flags: MW
HStem: 0 20<30 70 30 80 20 70> 10 10 40 20<30 50 20 60 80 90> 70 10 70 20<30 70 30 30>
VStem: 20 10 50 10 70 10
CounterMasks: 1 e0
LayerCount: 2
Fore
SplineSet
10 10 m 1x8d
 10 30 l 1x4d
 30 30 l 1
 30 20 l 1
 70 20 l 1
 70 30 l 1x8d
 50 30 l 1
 50 40 l 1xaf
 20 40 l 1
 20 50 l 1
 10 50 l 1xad
 10 80 l 1
 20 80 l 1
 20 90 l 1x8d
 80 90 l 1
 80 80 l 1
 90 80 l 1
 90 60 l 1x95
 70 60 l 1
 70 70 l 1x8d
 30 70 l 1
 30 60 l 1xad
 60 60 l 1
 60 50 l 1xaf
 80 50 l 1
 80 40 l 1
 90 40 l 1xad
 90 10 l 1
 80 10 l 1
 80 0 l 1
 20 0 l 1
 20 10 l 1
 10 10 l 1x8d
EndSplineSet
Validated: 1
AlternateSubs2: "'ssty' Math Script Style lookup 4 subtable" s.ssty s.ssty2
AlternateSubs2: "'aalt' Access All Alternates lookup 1 subtable" s.ssty s.ssty2
EndChar

StartChar: t
Encoding: 85 116 86
Width: 110
GlyphClass: 2
Flags: MW
HStem: 0 20<50 80 50 80 40 80> 70 20<10 30 10 30 50 80>
VStem: 30 20<20 70 20 70 20 70 90 110>
LayerCount: 2
Fore
SplineSet
10 90 m 1
 30 90 l 1
 30 110 l 1
 50 110 l 1
 50 90 l 1
 80 90 l 1
 80 70 l 1
 50 70 l 1
 50 20 l 1
 80 20 l 1
 80 0 l 1
 40 0 l 1
 40 10 l 1
 30 10 l 1
 30 70 l 1
 10 70 l 1
 10 90 l 1
EndSplineSet
Validated: 1
AlternateSubs2: "'ssty' Math Script Style lookup 4 subtable" t.ssty t.ssty2
AlternateSubs2: "'aalt' Access All Alternates lookup 1 subtable" t.ssty t.ssty2
EndChar

StartChar: u
Encoding: 86 117 87
Width: 110
GlyphClass: 2
Flags: MW
HStem: 0 20<30 60 30 60 20 60 30 90 30 70> 10 10<30 70 30 60> 70 20G<10 30 30 30 70 90 90 90>
VStem: 10 20<20 90 20 90 20 90> 70 20<0 10 10 10 30 90 0 90>
LayerCount: 2
Fore
SplineSet
10 90 m 1xb8
 30 90 l 1
 30 20 l 1
 60 20 l 1
 60 30 l 1
 70 30 l 1
 70 90 l 1
 90 90 l 1
 90 0 l 1
 70 0 l 1
 70 10 l 1
 60 10 l 1
 60 0 l 1xb8
 20 0 l 1
 20 10 l 1
 10 10 l 1x78
 10 90 l 1xb8
EndSplineSet
Validated: 1
AlternateSubs2: "'ssty' Math Script Style lookup 4 subtable" u.ssty u.ssty2
AlternateSubs2: "'aalt' Access All Alternates lookup 1 subtable" u.ssty u.ssty2
EndChar

StartChar: v
Encoding: 87 118 88
Width: 110
GlyphClass: 2
Flags: MW
HStem: 0 40<40 60 20 40> 20 20<20 40 20 30> 40 20<10 30 10 20> 60 30<10 30 10 20 10 40 10 40 80 80 80 90>
VStem: 20 10<20 60> 30 10<0 40> 40 20<0 20 0 20 40 60> 60 10<0 40 20 60> 70 10<20 60 40 90>
LayerCount: 2
Fore
SplineSet
10 60 m 1x5880
 10 90 l 1
 30 90 l 1x5880
 30 60 l 1
 40 60 l 1x2480
 40 40 l 1x4480
 60 40 l 1x49
 60 60 l 1
 70 60 l 1x2880
 70 90 l 1
 90 90 l 1
 90 60 l 1
 80 60 l 1x5880
 80 40 l 1
 70 40 l 1x29
 70 20 l 1
 60 20 l 1x4a80
 60 0 l 1
 40 0 l 1x8a80
 40 20 l 1
 30 20 l 1x4480
 30 40 l 1
 20 40 l 1x2880
 20 60 l 1
 10 60 l 1x5880
EndSplineSet
Validated: 1
AlternateSubs2: "'ssty' Math Script Style lookup 4 subtable" v.ssty v.ssty2
AlternateSubs2: "'aalt' Access All Alternates lookup 1 subtable" v.ssty v.ssty2
EndChar

StartChar: w
Encoding: 88 119 89
Width: 110
GlyphClass: 2
Flags: MW
HStem: 0 40<0 10 20 30 0 30 70 80> 20 20<30 30 40 40 60 60 70 70> 40 20<20 40 30 40 30 40 30 60> 40 50<0 10 0 20 0 30 0 30 0 40 40 60 90 90 90 100>
VStem: 10 10<0 90 40 90> 30 10<0 40 20 60> 40 20<20 40 20 40 60 90> 60 10<0 40> 80 10<0 90>
LayerCount: 2
Fore
SplineSet
10 0 m 1x2880
 10 40 l 1
 0 40 l 1x2880
 0 90 l 1
 20 90 l 1x1880
 20 40 l 1
 30 40 l 1x4c80
 30 60 l 1
 40 60 l 1x2a80
 40 90 l 1
 60 90 l 1x1a80
 60 60 l 1
 70 60 l 1x2980
 70 40 l 1
 80 40 l 1x4880
 80 90 l 1
 100 90 l 1x1880
 100 40 l 1
 90 40 l 1x2880
 90 0 l 1
 70 0 l 1x8880
 70 20 l 1
 60 20 l 1x4980
 60 40 l 1x2980
 40 40 l 1x2c80
 40 20 l 1
 30 20 l 1x4c80
 30 0 l 1x8c80
 10 0 l 1x2880
EndSplineSet
Validated: 1
AlternateSubs2: "'ssty' Math Script Style lookup 4 subtable" w.ssty w.ssty2
AlternateSubs2: "'aalt' Access All Alternates lookup 1 subtable" w.ssty w.ssty2
EndChar

StartChar: x
Encoding: 89 120 90
Width: 110
GlyphClass: 2
Flags: MW
HStem: 0 20<10 20 10 30 10 20 80 90> 20 10<10 30 20 30> 60 10<10 20 10 30> 70 20<10 20 10 30 10 60 80 80 80 90>
VStem: 10 20<0 10 0 20 0 20 80 90> 30 10<0 20> 60 10<0 20> 70 20<0 10 10 10 0 40 0 30 80 90>
CounterMasks: 1 a8
LayerCount: 2
Fore
SplineSet
20 60 m 1xa9
 20 70 l 1
 10 70 l 1
 10 90 l 1x99
 30 90 l 1
 30 80 l 1
 40 80 l 1
 40 70 l 1xa5
 60 70 l 1
 60 80 l 1
 70 80 l 1
 70 90 l 1
 90 90 l 1
 90 70 l 1
 80 70 l 1
 80 60 l 1
 70 60 l 1
 70 50 l 1
 60 50 l 1
 60 40 l 1
 70 40 l 1
 70 30 l 1
 80 30 l 1
 80 20 l 1
 90 20 l 1
 90 0 l 1x99
 70 0 l 1
 70 10 l 1
 60 10 l 1
 60 20 l 1x5a
 40 20 l 1
 40 10 l 1
 30 10 l 1
 30 0 l 1
 10 0 l 1
 10 20 l 1
 20 20 l 1
 20 30 l 1
 30 30 l 1
 30 40 l 1
 40 40 l 1
 40 50 l 1
 30 50 l 1
 30 60 l 1
 20 60 l 1xa9
EndSplineSet
Validated: 1
AlternateSubs2: "'ssty' Math Script Style lookup 4 subtable" x.ssty x.ssty2
AlternateSubs2: "'aalt' Access All Alternates lookup 1 subtable" x.ssty x.ssty2
EndChar

StartChar: y
Encoding: 90 121 91
Width: 110
GlyphClass: 2
Flags: MW
HStem: -10 20<10 30 10 40 10 30> 30 20<20 40 20 30> 50 20<10 30 10 20> 70 20<10 30 10 20 10 40 10 40 80 80 80 90>
VStem: 20 10<50 50 70 70> 30 10<20 20 30 30 50 50 70 70> 60 10<10 50 30 70> 70 10<30 70 50 90>
CounterMasks: 1 68
LayerCount: 2
Fore
SplineSet
10 70 m 1x98
 10 90 l 1
 30 90 l 1x98
 30 70 l 1
 40 70 l 1xa4
 40 50 l 1xd4
 60 50 l 1xd6
 60 70 l 1
 70 70 l 1xa5
 70 90 l 1
 90 90 l 1
 90 70 l 1
 80 70 l 1x95
 80 50 l 1
 70 50 l 1xa6
 70 30 l 1
 60 30 l 1xd6
 60 10 l 1
 50 10 l 1
 50 0 l 1
 40 0 l 1
 40 -10 l 1
 10 -10 l 1
 10 10 l 1x94
 30 10 l 1
 30 20 l 1
 40 20 l 1
 40 30 l 1
 30 30 l 1xd4
 30 50 l 1
 20 50 l 1xa8
 20 70 l 1
 10 70 l 1x98
EndSplineSet
Validated: 1
AlternateSubs2: "'ssty' Math Script Style lookup 4 subtable" y.ssty y.ssty2
AlternateSubs2: "'aalt' Access All Alternates lookup 1 subtable" y.ssty y.ssty2
EndChar

StartChar: z
Encoding: 91 122 92
Width: 110
GlyphClass: 2
Flags: MW
HStem: 0 20<40 90 40 90> 70 20<10 90 10 50 80 80 80 90>
VStem: 30 10<50 50> 40 10<20 40>
LayerCount: 2
Fore
SplineSet
10 70 m 1xe0
 10 90 l 1
 90 90 l 1xe0
 90 70 l 1
 80 70 l 1
 80 60 l 1
 70 60 l 1
 70 50 l 1
 60 50 l 1
 60 40 l 1
 50 40 l 1
 50 30 l 1
 40 30 l 1
 40 20 l 1
 90 20 l 1
 90 0 l 1xd0
 10 0 l 1xe0
 10 30 l 1
 20 30 l 1
 20 40 l 1
 30 40 l 1
 30 50 l 1
 40 50 l 1
 40 60 l 1
 50 60 l 1
 50 70 l 1xd0
 10 70 l 1xe0
EndSplineSet
Validated: 1
AlternateSubs2: "'ssty' Math Script Style lookup 4 subtable" z.ssty z.ssty2
AlternateSubs2: "'aalt' Access All Alternates lookup 1 subtable" z.ssty z.ssty2
EndChar

StartChar: braceleft
Encoding: 92 123 93
Width: 110
GlyphClass: 2
Flags: MW
HStem: -10 20<60 80 60 80 50 80> 0 10 30 10<20 40 20 30> 60 10<50 50> 100 20<60 80 60 60>
VStem: 40 20<10 30 30 30 10 60 10 50 80 100>
LayerCount: 2
Fore
SplineSet
50 120 m 1x8c
 80 120 l 1
 80 100 l 1
 60 100 l 1
 60 70 l 1
 50 70 l 1
 50 60 l 1
 40 60 l 1
 40 50 l 1
 50 50 l 1
 50 40 l 1
 60 40 l 1xac
 60 10 l 1
 80 10 l 1
 80 -10 l 1x8c
 50 -10 l 1
 50 0 l 1
 40 0 l 1x4c
 40 30 l 1
 30 30 l 1
 30 40 l 1
 20 40 l 1xac
 20 70 l 1
 30 70 l 1
 30 80 l 1
 40 80 l 1x9c
 40 110 l 1
 50 110 l 1
 50 120 l 1x8c
EndSplineSet
Validated: 1
EndChar

StartChar: bar
Encoding: 93 124 94
Width: 110
GlyphClass: 2
Flags: MW
HStem: 0 21G<-10 -10 -10 20> 100 20G<-10 20 20 20>
VStem: -10 30<0 120 0 120>
LayerCount: 2
Fore
SplineSet
-10 0 m 1
 -10 120 l 1
 20 120 l 1
 20 0 l 1
 -10 0 l 1
EndSplineSet
Validated: 1
EndChar

StartChar: braceright
Encoding: 94 125 95
Width: 110
GlyphClass: 2
Flags: MW
HStem: -10 20<30 50 30 60 30 50> 40 10<50 70 60 70> 70 10<70 90> 100 10 100 20<30 60 30 50>
VStem: 50 20<10 30 0 40 0 40 80 100 100 100>
LayerCount: 2
Fore
SplineSet
30 100 m 1x8c
 30 120 l 1x8c
 60 120 l 1
 60 110 l 1
 70 110 l 1x94
 70 80 l 1
 80 80 l 1
 80 70 l 1
 90 70 l 1xac
 90 40 l 1
 80 40 l 1
 80 30 l 1
 70 30 l 1xcc
 70 0 l 1
 60 0 l 1
 60 -10 l 1
 30 -10 l 1
 30 10 l 1
 50 10 l 1
 50 40 l 1
 60 40 l 1
 60 50 l 1
 70 50 l 1
 70 60 l 1
 60 60 l 1
 60 70 l 1
 50 70 l 1xac
 50 100 l 1
 30 100 l 1x8c
EndSplineSet
Validated: 1
EndChar

StartChar: asciitilde
Encoding: 95 126 96
Width: 110
GlyphClass: 2
Flags: MW
HStem: 60 20<20 40 20 20>
VStem: 0 20<40 60 40 70 40 70> 40 10 60 10 80 20<60 80 50 80>
LayerCount: 2
Fore
SplineSet
0 40 m 1
 0 70 l 1
 10 70 l 1
 10 80 l 1xc8
 50 80 l 1
 50 70 l 1xe8
 70 70 l 1
 70 60 l 1
 80 60 l 1
 80 80 l 1
 100 80 l 1
 100 50 l 1
 90 50 l 1
 90 40 l 1xc8
 60 40 l 1
 60 50 l 1xd8
 40 50 l 1
 40 60 l 1xe8
 20 60 l 1
 20 40 l 1
 0 40 l 1
EndSplineSet
Validated: 1
EndChar

StartChar: exclamdown
Encoding: 97 161 98
Width: 110
GlyphClass: 2
Flags: MW
HStem: 0 80<40 60 40 60> 0 100<40 60 40 60>
VStem: 40 20<0 80 100 120>
LayerCount: 2
Fore
SplineSet
60 0 m 1xa0
 40 0 l 1
 40 80 l 1
 60 80 l 1
 60 0 l 1xa0
40 120 m 1x60
 40 100 l 1
 60 100 l 1
 60 120 l 1
 40 120 l 1x60
EndSplineSet
Validated: 9
EndChar

StartChar: brokenbar
Encoding: 98 166 99
Width: 110
GlyphClass: 2
Flags: MW
HStem: 0 50<40 60 40 60> 70 50<40 60 40 60>
VStem: 40 20<0 50 0 50 70 120>
LayerCount: 2
Fore
SplineSet
40 50 m 1
 60 50 l 1
 60 0 l 1
 40 0 l 1
 40 50 l 1
40 70 m 1x60
 40 120 l 1
 60 120 l 1
 60 70 l 1
 40 70 l 1x60
EndSplineSet
Validated: 1
EndChar

StartChar: degree
Encoding: 99 176 100
Width: 110
GlyphClass: 2
Flags: MW
HStem: 60 20<30 50 30 60 20 50> 100 10 100 20<30 50 30 30>
VStem: 10 20<80 80 80 100> 50 20<80 100 100 100>
LayerCount: 2
Fore
SplineSet
30 80 m 1xb8
 50 80 l 1
 50 100 l 1
 30 100 l 1
 30 80 l 1xb8
10 70 m 1
 10 110 l 1
 20 110 l 1xd8
 20 120 l 1
 60 120 l 1xb8
 60 110 l 1
 70 110 l 1xd8
 70 70 l 1
 60 70 l 1
 60 60 l 1
 20 60 l 1
 20 70 l 1
 10 70 l 1
EndSplineSet
Validated: 1
AlternateSubs2: "'ssty' Math Script Style lookup 4 subtable" degree.ssty degree.ssty2
AlternateSubs2: "'aalt' Access All Alternates lookup 1 subtable" degree.ssty degree.ssty2
EndChar

StartChar: twosuperior
Encoding: 100 178 101
Width: 110
GlyphClass: 2
Flags: MW
HStem: 50 20<20 30 50 80 20 30> 80 10<30 60 40 60 50 60 40 70 50 50> 100 20<20 70 20 60>
VStem: 40 10<70 90> 60 10<80 100>
CounterMasks: 1 e0
LayerCount: 2
Fore
SplineSet
20 100 m 1
 20 120 l 1
 70 120 l 1
 70 110 l 1
 80 110 l 1xa8
 80 90 l 1
 70 90 l 1
 70 80 l 1xc8
 50 80 l 1
 50 70 l 1x98
 80 70 l 1
 80 50 l 1
 20 50 l 1x88
 20 70 l 1
 30 70 l 1
 30 80 l 1
 40 80 l 1
 40 90 l 1xd8
 60 90 l 1
 60 100 l 1
 20 100 l 1
EndSplineSet
Validated: 1
AlternateSubs2: "'ssty' Math Script Style lookup 4 subtable" twosuperior.ssty twosuperior.ssty2
AlternateSubs2: "'aalt' Access All Alternates lookup 1 subtable" twosuperior.ssty twosuperior.ssty2
EndChar

StartChar: threesuperior
Encoding: 101 179 102
Width: 110
GlyphClass: 2
Flags: MW
HStem: 50 20<20 60 20 70 20 60> 80 10<30 60 30 60 70 80> 100 20<20 70 20 60>
VStem: 60 10<80 80 90 90>
CounterMasks: 1 e0
LayerCount: 2
Fore
SplineSet
20 100 m 5
 20 120 l 5
 70 120 l 5
 70 110 l 5
 80 110 l 5
 80 90 l 5
 70 90 l 5
 70 80 l 5
 80 80 l 5x30
 80 60 l 5
 70 60 l 5
 70 50 l 5
 20 50 l 5
 20 70 l 5xb0
 60 70 l 5
 60 80 l 5
 30 80 l 5
 30 90 l 5x70
 60 90 l 5
 60 100 l 5
 20 100 l 5
EndSplineSet
Validated: 1
AlternateSubs2: "'ssty' Math Script Style lookup 4 subtable" threesuperior.ssty threesuperior.ssty2
AlternateSubs2: "'aalt' Access All Alternates lookup 1 subtable" threesuperior.ssty threesuperior.ssty2
EndChar

StartChar: onesuperior
Encoding: 102 185 103
Width: 110
GlyphClass: 2
Flags: MW
HStem: 90 20<20 40 20 40> 90 30<20 60 20 60>
VStem: 40 20<51 90 90 90 110 120 51 120>
LayerCount: 2
Fore
SplineSet
20 90 m 1xa0
 20 110 l 1xa0
 40 110 l 1
 40 120 l 1
 60 120 l 1
 60 51 l 1
 40 51 l 1x60
 40 90 l 1
 20 90 l 1xa0
EndSplineSet
Validated: 1
AlternateSubs2: "'ssty' Math Script Style lookup 4 subtable" onesuperior.ssty onesuperior.ssty2
AlternateSubs2: "'aalt' Access All Alternates lookup 1 subtable" onesuperior.ssty onesuperior.ssty2
EndChar

StartChar: questiondown
Encoding: 103 191 104
Width: 110
GlyphClass: 2
Flags: MW
HStem: 0 20<40 60 40 70 30 60> 10 10 40 20<20 40 30 40 30 40 30 50> 60 20<30 60 40 60 50 50 50 60> 100 20<40 60 40 60>
VStem: 30 10<20 60> 40 20<20 30 20 40 20 30 60 80 100 120> 60 20<20 30 10 30>
CounterMasks: 1 0380
LayerCount: 2
Fore
SplineSet
80 30 m 1xad
 80 10 l 1
 70 10 l 1x6d
 70 0 l 1
 30 0 l 1xad
 30 10 l 1
 20 10 l 1
 20 40 l 1
 30 40 l 1
 30 60 l 1x6d
 40 60 l 1
 40 80 l 1
 60 80 l 1x9a
 60 60 l 1
 50 60 l 1
 50 40 l 1
 40 40 l 1
 40 20 l 1
 60 20 l 1
 60 30 l 1
 80 30 l 1xad
60 120 m 1
 60 100 l 1
 40 100 l 1
 40 120 l 1
 60 120 l 1
EndSplineSet
Validated: 1
EndChar

StartChar: Aacute
Encoding: 105 193 105
Width: 110
GlyphClass: 2
Flags: MW
HStem: 0 30<10 20 10 30 10 20 90 100> 20 20<40 70 40 80 30 70> 50 10 70 10 110 10<30 80 50 80 60 60 60 80>
VStem: 20 10<60 60> 40 10<40 70> 60 10<40 70> 80 10<30 60 30 80>
CounterMasks: 1 02c0
LayerCount: 2
Fore
SplineSet
40 50 m 1x7f80
 40 40 l 1
 70 40 l 1
 70 50 l 1
 60 50 l 1
 60 70 l 1
 50 70 l 1
 50 50 l 1
 40 50 l 1x7f80
100 30 m 1xbf80
 100 0 l 1
 80 0 l 1xbf80
 80 20 l 1
 30 20 l 1x7f80
 30 0 l 1
 10 0 l 1
 10 30 l 1
 20 30 l 1
 20 60 l 1
 30 60 l 1
 30 80 l 1
 40 80 l 1
 40 100 l 1
 30 100 l 1
 30 110 l 1
 50 110 l 1
 50 120 l 1
 80 120 l 1
 80 110 l 1
 60 110 l 1
 60 100 l 1
 70 100 l 1
 70 80 l 1
 80 80 l 1
 80 60 l 1
 90 60 l 1
 90 30 l 1
 100 30 l 1xbf80
EndSplineSet
Validated: 1
EndChar

StartChar: Acircumflex
Encoding: 106 194 106
Width: 110
GlyphClass: 2
Flags: MW
HStem: 0 30<10 20 10 30 10 20 90 100> 20 20<40 70 40 80 30 70> 50 10 70 10 100 20<30 40 20 70 40 60 60 60 30 70 30 80> 110 10<20 70 30 70 40 40 40 60 30 80>
VStem: 20 10<60 60 110 110> 30 10<80 80 110 110> 40 10<40 70> 60 10<40 70> 80 10<30 80 30 60>
CounterMasks: 1 02c0
LayerCount: 2
Fore
SplineSet
40 110 m 1x7560
 40 100 l 1
 60 100 l 1x7960
 60 110 l 1
 40 110 l 1x7560
40 40 m 1
 70 40 l 1
 70 50 l 1
 60 50 l 1
 60 70 l 1
 50 70 l 1
 50 50 l 1x76e0
 40 50 l 1
 40 40 l 1
30 0 m 1xb560
 10 0 l 1
 10 30 l 1
 20 30 l 1
 20 60 l 1xb6e0
 30 60 l 1
 30 80 l 1
 40 80 l 1
 40 100 l 1x7960
 20 100 l 1x7ae0
 20 110 l 1x76e0
 30 110 l 1
 30 120 l 1
 70 120 l 1
 70 110 l 1
 80 110 l 1x7560
 80 100 l 1
 70 100 l 1
 70 80 l 1
 80 80 l 1
 80 60 l 1
 90 60 l 1
 90 30 l 1
 100 30 l 1
 100 0 l 1
 80 0 l 1xb960
 80 20 l 1
 30 20 l 1x7560
 30 0 l 1xb560
EndSplineSet
Validated: 5
EndChar

StartChar: Aring
Encoding: 109 197 107
Width: 110
GlyphClass: 2
Flags: MW
HStem: 0 30<10 20 10 30 10 20 90 100> 20 20<40 70 40 80 30 70> 50 10 50 70<40 50 40 70 60 70 60 60> 70 10 70 20<50 60 30 50> 90 20<30 40 30 40 30 60 70 80> 100 20<50 60 50 50>
VStem: 20 10<60 60> 40 10<40 70> 60 10<40 70> 80 10<30 80 30 60>
LayerCount: 2
Fore
SplineSet
50 90 m 1x65f0
 60 90 l 1
 60 100 l 1
 50 100 l 1
 50 90 l 1x65f0
40 40 m 1
 70 40 l 1
 70 50 l 1
 60 50 l 1x50f0
 60 70 l 1
 50 70 l 1x65f0
 50 50 l 1
 40 50 l 1x50f0
 40 40 l 1
30 0 m 1xa5f0
 10 0 l 1
 10 30 l 1
 20 30 l 1
 20 60 l 1
 30 60 l 1
 30 80 l 1
 40 80 l 1
 40 90 l 1
 30 90 l 1
 30 110 l 1
 40 110 l 1xaaf0
 40 120 l 1
 70 120 l 1x65f0
 70 110 l 1
 80 110 l 1x6af0
 80 90 l 1
 70 90 l 1x65f0
 70 80 l 1
 80 80 l 1
 80 60 l 1
 90 60 l 1
 90 30 l 1
 100 30 l 1
 100 0 l 1
 80 0 l 1xa9f0
 80 20 l 1
 30 20 l 1x65f0
 30 0 l 1xa5f0
EndSplineSet
Validated: 1
EndChar

StartChar: Eacute
Encoding: 113 201 108
Width: 110
GlyphClass: 2
Flags: MW
HStem: 0 20<30 90 30 90> 40 20<30 80 30 80> 80 20<30 40 60 90 30 30> 110 10<40 80 50 80 60 60 60 80>
VStem: 10 20<20 40 60 80> 50 10<100 120>
LayerCount: 2
Fore
SplineSet
10 0 m 1
 10 100 l 1xa8
 40 100 l 1
 40 110 l 1
 50 110 l 1
 50 120 l 1
 80 120 l 1
 80 110 l 1xbc
 60 110 l 1
 60 100 l 1
 90 100 l 1
 90 80 l 1xac
 30 80 l 1xa8
 30 60 l 1xe8
 80 60 l 1
 80 40 l 1xec
 30 40 l 1xe8
 30 20 l 1
 90 20 l 1
 90 0 l 1
 10 0 l 1
EndSplineSet
Validated: 1
EndChar

StartChar: Eth
Encoding: 120 208 109
Width: 110
GlyphClass: 2
Flags: MW
HStem: 0 20<30 60 30 70> 50 20<0 10 0 10 30 60> 100 20<30 60 30 30 10 90>
VStem: 10 20<20 50 20 50 20 50 70 100> 70 20<0 100 30 90 90 90 20 110 20 120>
CounterMasks: 1 d0
LayerCount: 2
Fore
SplineSet
60 50 m 1
 30 50 l 1
 30 20 l 1
 60 20 l 1
 60 30 l 1
 70 30 l 1
 70 90 l 1
 60 90 l 1
 60 100 l 1
 30 100 l 1
 30 70 l 1
 60 70 l 1
 60 50 l 1
10 50 m 1
 0 50 l 1
 0 70 l 1
 10 70 l 1
 10 120 l 1
 70 120 l 1
 70 110 l 1
 80 110 l 1
 80 100 l 1
 90 100 l 1
 90 20 l 1
 80 20 l 1
 80 10 l 1
 70 10 l 1
 70 0 l 1
 10 0 l 1
 10 50 l 1
EndSplineSet
Validated: 1
EndChar

StartChar: Odieresis
Encoding: 126 214 110
Width: 110
GlyphClass: 2
Flags: MW
HStem: 0 20<40 70 10 30> 10 10<10 30 10 20> 70 10<10 30 20 30> 70 20<10 80 20 80 40 70 40 40 30 100> 100 20<30 50 30 50 30 60 60 80>
VStem: 10 20<30 60> 30 20<80 100 90 100 100 120> 60 20<100 120> 80 20<0 70 30 60 60 60 20 80 20 90>
LayerCount: 2
Fore
SplineSet
40 30 m 1x9c80
 40 20 l 1
 70 20 l 1
 70 30 l 1
 80 30 l 1
 80 60 l 1
 70 60 l 1
 70 70 l 1
 40 70 l 1
 40 60 l 1
 30 60 l 1
 30 30 l 1
 40 30 l 1x9c80
50 100 m 1x5a80
 30 100 l 1
 30 120 l 1
 50 120 l 1
 50 100 l 1x5a80
20 20 m 1
 10 20 l 1
 10 70 l 1
 20 70 l 1
 20 80 l 1
 30 80 l 1x6c80
 30 90 l 1
 80 90 l 1x9c80
 80 80 l 1
 90 80 l 1xac80
 90 70 l 1
 100 70 l 1
 100 20 l 1
 90 20 l 1
 90 10 l 1
 80 10 l 1x5c80
 80 0 l 1
 30 0 l 1x9c80
 30 10 l 1
 20 10 l 1
 20 20 l 1
80 100 m 1
 60 100 l 1
 60 120 l 1x9d
 80 120 l 1
 80 100 l 1
EndSplineSet
Validated: 1
EndChar

StartChar: multiply
Encoding: 127 215 111
Width: 110
GlyphClass: 2
Flags: MW
HStem: 20 10<0 10 0 10 90 100> 40 10<10 30 20 30> 70 10<10 30 10 20> 80 10<0 20 0 10> 90 10<0 10 0 10 90 100>
VStem: 10 10<10 20 10 20 100 110> 30 10<20 40> 60 10<20 40> 80 10<10 20 10 20 100 110>
LayerCount: 2
Fore
SplineSet
10 90 m 1x8c80
 0 90 l 1
 0 100 l 1
 10 100 l 1
 10 110 l 1
 20 110 l 1
 20 100 l 1
 30 100 l 1
 30 90 l 1
 40 90 l 1
 40 80 l 1xa680
 60 80 l 1
 60 90 l 1
 70 90 l 1
 70 100 l 1
 80 100 l 1
 80 110 l 1
 90 110 l 1
 90 100 l 1
 100 100 l 1
 100 90 l 1
 90 90 l 1
 90 80 l 1
 80 80 l 1
 80 70 l 1
 70 70 l 1xa580
 70 50 l 1
 80 50 l 1
 80 40 l 1
 90 40 l 1
 90 30 l 1
 100 30 l 1
 100 20 l 1
 90 20 l 1
 90 10 l 1
 80 10 l 1
 80 20 l 1
 70 20 l 1
 70 30 l 1
 60 30 l 1
 60 40 l 1xd580
 40 40 l 1
 40 30 l 1
 30 30 l 1
 30 20 l 1
 20 20 l 1
 20 10 l 1
 10 10 l 1
 10 20 l 1
 0 20 l 1
 0 30 l 1
 10 30 l 1
 10 40 l 1
 20 40 l 1
 20 50 l 1
 30 50 l 1xd680
 30 70 l 1
 20 70 l 1
 20 80 l 1
 10 80 l 1
 10 90 l 1x8c80
EndSplineSet
Validated: 1
AlternateSubs2: "'ssty' Math Script Style lookup 4 subtable" multiply.ssty multiply.ssty2
AlternateSubs2: "'aalt' Access All Alternates lookup 1 subtable" multiply.ssty multiply.ssty2
EndChar

StartChar: Uacute
Encoding: 130 218 112
Width: 110
GlyphClass: 2
Flags: MW
HStem: 0 20<20 70 30 70 30 80> 10 10 100 10<40 60 40 60 40 70 70 90> 110 10<40 90 60 90 70 70 70 90>
VStem: 10 20<20 100 20 100 20 100> 70 20<20 100 10 100 10 110 10 100>
LayerCount: 2
Fore
SplineSet
20 0 m 1x9c
 20 10 l 1
 10 10 l 1
 10 100 l 1
 30 100 l 1x6c
 30 20 l 1
 70 20 l 1
 70 100 l 1
 40 100 l 1
 40 110 l 1xac
 60 110 l 1
 60 120 l 1
 90 120 l 1
 90 110 l 1
 70 110 l 1
 70 100 l 1
 90 100 l 1
 90 10 l 1
 80 10 l 1
 80 0 l 1
 20 0 l 1x9c
EndSplineSet
Validated: 5
EndChar

StartChar: Udieresis
Encoding: 132 220 113
Width: 110
GlyphClass: 2
Flags: MW
HStem: 0 20<30 70 30 80 20 70> 10 10 70 20G<10 30 30 30 70 90 90 90> 100 20<30 50 30 50 60 80 30 60>
VStem: 10 20<20 90 20 90 20 90> 30 20<20 120 100 120 100 120> 60 20<100 120> 70 20<20 90 10 90>
LayerCount: 2
Fore
SplineSet
20 10 m 1x59
 10 10 l 1x59
 10 90 l 1
 30 90 l 1
 30 20 l 1
 70 20 l 1
 70 90 l 1
 90 90 l 1
 90 10 l 1
 80 10 l 1
 80 0 l 1xb9
 20 0 l 1
 20 10 l 1x59
30 100 m 1x95
 30 120 l 1x95
 50 120 l 1
 50 100 l 1x99
 30 100 l 1x95
60 100 m 1x9a
 60 120 l 1x9a
 80 120 l 1
 80 100 l 1x99
 60 100 l 1x9a
EndSplineSet
Validated: 1
EndChar

StartChar: germandbls
Encoding: 135 223 114
Width: 110
GlyphClass: 3
Flags: MW
HStem: 0 20<10 70 40 70 40 70 40 80> 50 20<40 50 40 60 40 50> 100 10 100 20<30 60 30 30>
VStem: 10 20<0 100 0 110 0 110> 60 20<80 100 100 100> 70 20<20 40 40 40 10 70 10 60>
LayerCount: 2
Fore
SplineSet
10 0 m 1x9a
 10 110 l 1
 20 110 l 1
 20 120 l 1x9a
 70 120 l 1
 70 110 l 1
 80 110 l 1xac
 80 70 l 1
 70 70 l 1
 70 60 l 1
 80 60 l 1
 80 50 l 1
 90 50 l 1xda
 90 10 l 1
 80 10 l 1
 80 0 l 1
 40 0 l 1
 40 20 l 1
 70 20 l 1x9c
 70 40 l 1
 60 40 l 1
 60 50 l 1
 40 50 l 1
 40 70 l 1
 50 70 l 1
 50 80 l 1
 60 80 l 1xdc
 60 100 l 1x9c
 30 100 l 1
 30 0 l 1
 10 0 l 1x9a
EndSplineSet
Validated: 1
EndChar

StartChar: agrave
Encoding: 136 224 115
Width: 110
GlyphClass: 2
Flags: MW
HStem: 0 20<30 70 30 90 20 70> 40 20<30 70 30 30> 70 20<20 70 20 80> 100 10<50 70 20 40> 110 10<20 40 20 50 20 70>
VStem: 10 20<20 20 20 40> 40 10<100 120 110 120> 70 20<20 40 40 40 60 70 70 70>
LayerCount: 2
Fore
SplineSet
30 20 m 1xf7
 70 20 l 1
 70 40 l 1
 30 40 l 1
 30 20 l 1xf7
70 110 m 1
 70 100 l 1
 40 100 l 1xf7
 40 110 l 1
 20 110 l 1
 20 120 l 1
 50 120 l 1xef
 50 110 l 1
 70 110 l 1
80 90 m 1
 80 80 l 1
 90 80 l 1
 90 0 l 1
 20 0 l 1
 20 10 l 1
 10 10 l 1
 10 50 l 1
 20 50 l 1
 20 60 l 1
 70 60 l 1
 70 70 l 1
 20 70 l 1
 20 90 l 1
 80 90 l 1
EndSplineSet
Validated: 1
EndChar

StartChar: aacute
Encoding: 137 225 116
Width: 110
GlyphClass: 2
Flags: MW
HStem: 0 20<30 70 30 90 20 70> 40 20<30 70 30 30> 70 20<20 70 20 80> 100 10<30 50 30 60 30 50> 110 10<30 80 50 80 60 60 60 80>
VStem: 10 20<20 20 20 40> 50 10<110 110> 70 20<20 40 40 40 60 70 70 70>
LayerCount: 2
Fore
SplineSet
30 20 m 1xf7
 70 20 l 1
 70 40 l 1
 30 40 l 1
 30 20 l 1xf7
80 90 m 1
 80 80 l 1
 90 80 l 1
 90 0 l 1
 20 0 l 1
 20 10 l 1
 10 10 l 1
 10 50 l 1
 20 50 l 1
 20 60 l 1
 70 60 l 1
 70 70 l 1
 20 70 l 1
 20 90 l 1
 80 90 l 1
60 100 m 1
 30 100 l 1xf7
 30 110 l 1
 50 110 l 1
 50 120 l 1
 80 120 l 1xef
 80 110 l 1
 60 110 l 1
 60 100 l 1
EndSplineSet
Validated: 1
EndChar

StartChar: acircumflex
Encoding: 138 226 117
Width: 110
GlyphClass: 2
Flags: MW
HStem: 0 20<30 70 30 90 20 70> 40 20<30 70 30 30> 70 20<20 70 20 80> 100 10<20 30 20 40 20 30 70 80> 110 10<20 70 30 70 40 60 40 40 30 80>
VStem: 10 20<20 20 20 40> 30 10<100 120> 60 10<110 110> 70 20<20 40 40 40 60 70 70 70>
LayerCount: 2
Fore
SplineSet
30 20 m 1xf480
 70 20 l 1
 70 40 l 1
 30 40 l 1
 30 20 l 1xf480
80 90 m 1
 80 80 l 1
 90 80 l 1
 90 0 l 1
 20 0 l 1
 20 10 l 1
 10 10 l 1
 10 50 l 1
 20 50 l 1
 20 60 l 1
 70 60 l 1
 70 70 l 1
 20 70 l 1
 20 90 l 1
 80 90 l 1
80 100 m 1
 60 100 l 1
 60 110 l 1
 40 110 l 1
 40 100 l 1
 20 100 l 1xf3
 20 110 l 1
 30 110 l 1
 30 120 l 1
 70 120 l 1xed
 70 110 l 1
 80 110 l 1
 80 100 l 1
EndSplineSet
Validated: 1
EndChar

StartChar: atilde
Encoding: 139 227 118
Width: 110
GlyphClass: 2
Flags: MW
HStem: 0 20<30 70 30 90 20 70> 40 20<30 70 30 30> 70 20<20 70 20 80> 100 20<30 40 20 60 50 60 70 80 50 50> 110 10<20 60 30 60 40 50 40 40 30 70 80 80 80 90>
VStem: 10 20<20 20 20 40> 30 10<100 120> 70 20<20 40 40 40 60 70 70 70 110 120>
LayerCount: 2
Fore
SplineSet
30 20 m 1xf5
 70 20 l 1
 70 40 l 1
 30 40 l 1
 30 20 l 1xf5
80 90 m 1
 80 80 l 1
 90 80 l 1
 90 0 l 1
 20 0 l 1
 20 10 l 1
 10 10 l 1
 10 50 l 1
 20 50 l 1
 20 60 l 1
 70 60 l 1
 70 70 l 1
 20 70 l 1
 20 90 l 1
 80 90 l 1
80 100 m 1
 50 100 l 1xf5
 50 110 l 1
 40 110 l 1xeb
 40 100 l 1
 20 100 l 1xf3
 20 110 l 1
 30 110 l 1
 30 120 l 1
 60 120 l 1
 60 110 l 1
 70 110 l 1
 70 120 l 1
 90 120 l 1
 90 110 l 1
 80 110 l 1xed
 80 100 l 1
EndSplineSet
Validated: 1
EndChar

StartChar: adieresis
Encoding: 140 228 119
Width: 110
GlyphClass: 2
Flags: MW
HStem: 0 20<30 70 30 90 20 70> 40 20<30 70 30 30> 70 20<20 70 20 80> 100 20<20 40 20 40 20 50 50 70>
VStem: 10 20<20 20 20 40> 20 20<70 100 90 100 100 120> 50 20<100 120> 70 20<20 40 40 40 60 70 70 70>
LayerCount: 2
Fore
SplineSet
30 20 m 1xf9
 70 20 l 1
 70 40 l 1
 30 40 l 1
 30 20 l 1xf9
40 100 m 1xf5
 20 100 l 1
 20 120 l 1
 40 120 l 1
 40 100 l 1xf5
80 90 m 1
 80 80 l 1
 90 80 l 1
 90 0 l 1
 20 0 l 1
 20 10 l 1xf5
 10 10 l 1
 10 50 l 1xf9
 20 50 l 1
 20 60 l 1
 70 60 l 1
 70 70 l 1
 20 70 l 1
 20 90 l 1
 80 90 l 1
70 100 m 1
 50 100 l 1
 50 120 l 1xfa
 70 120 l 1
 70 100 l 1
EndSplineSet
Validated: 1
EndChar

StartChar: ccedilla
Encoding: 143 231 120
Width: 110
GlyphClass: 2
Flags: MW
HStem: -10 10<20 40 20 50 20 40> 10 20<30 40 20 70 60 70 30 80 60 60> 70 10 70 20<30 70 30 30>
VStem: 10 20<30 70 30 80 30 80> 40 10<-10 10> 70 20<30 40 20 40 60 70 70 70>
CounterMasks: 1 0540
LayerCount: 2
Fore
SplineSet
10 20 m 1xda
 10 80 l 1
 20 80 l 1
 20 90 l 1x9a
 80 90 l 1
 80 80 l 1
 90 80 l 1
 90 60 l 1xaa
 70 60 l 1
 70 70 l 1
 30 70 l 1
 30 30 l 1
 70 30 l 1
 70 40 l 1
 90 40 l 1
 90 20 l 1
 80 20 l 1
 80 10 l 1xda
 60 10 l 1
 60 0 l 1
 50 0 l 1
 50 -10 l 1x9e
 20 -10 l 1
 20 0 l 1x9a
 40 0 l 1
 40 10 l 1xde
 20 10 l 1
 20 20 l 1
 10 20 l 1xda
EndSplineSet
Validated: 1
EndChar

StartChar: egrave
Encoding: 144 232 121
Width: 110
GlyphClass: 2
Flags: MW
HStem: 0 20<30 70 30 80 20 70> 10 10 40 20<30 70 30 90 30 70> 70 10 70 20<30 30 30 70> 100 10<50 70 20 40> 110 10<20 40 20 50 20 70>
VStem: 10 20<20 40 60 70> 40 10<100 120 110 120> 70 20<20 30 10 30 60 70 70 70>
LayerCount: 2
Fore
SplineSet
30 70 m 1xb5c0
 30 60 l 1
 70 60 l 1
 70 70 l 1
 30 70 l 1xb5c0
70 110 m 1
 70 100 l 1
 40 100 l 1x6dc0
 40 110 l 1
 20 110 l 1
 20 120 l 1
 50 120 l 1xabc0
 50 110 l 1
 70 110 l 1
20 10 m 1
 10 10 l 1
 10 80 l 1
 20 80 l 1x75c0
 20 90 l 1
 80 90 l 1xadc0
 80 80 l 1
 90 80 l 1
 90 40 l 1
 30 40 l 1
 30 20 l 1
 70 20 l 1
 70 30 l 1
 90 30 l 1
 90 10 l 1
 80 10 l 1x75c0
 80 0 l 1
 20 0 l 1xadc0
 20 10 l 1
EndSplineSet
Validated: 1
EndChar

StartChar: eacute
Encoding: 145 233 122
Width: 110
GlyphClass: 2
Flags: MW
HStem: 0 20<30 70 30 80 20 70> 10 10 40 20<30 70 30 90 30 70> 70 10 70 20<30 30 30 70> 100 10<30 50 30 60 30 50> 110 10<30 80 50 80 60 60 60 80>
VStem: 10 20<20 40 60 70> 50 10<110 110> 70 20<20 30 10 30 60 70 70 70>
LayerCount: 2
Fore
SplineSet
30 70 m 1x73c0
 30 60 l 1
 70 60 l 1
 70 70 l 1
 30 70 l 1x73c0
20 10 m 1
 10 10 l 1
 10 80 l 1
 20 80 l 1x75c0
 20 90 l 1
 80 90 l 1xabc0
 80 80 l 1
 90 80 l 1
 90 40 l 1
 30 40 l 1
 30 20 l 1
 70 20 l 1
 70 30 l 1
 90 30 l 1
 90 10 l 1
 80 10 l 1x73c0
 80 0 l 1
 20 0 l 1xabc0
 20 10 l 1
60 100 m 1
 30 100 l 1xadc0
 30 110 l 1
 50 110 l 1
 50 120 l 1
 80 120 l 1xabc0
 80 110 l 1
 60 110 l 1
 60 100 l 1
EndSplineSet
Validated: 1
EndChar

StartChar: ecircumflex
Encoding: 146 234 123
Width: 110
GlyphClass: 2
Flags: MW
HStem: 0 20<30 70 30 80 20 70> 10 10 40 20<30 70 30 90 30 70> 70 10 70 20<30 30 30 70> 100 10<20 30 20 40 20 30 70 80> 110 10<20 70 30 70 40 60 40 40 30 80>
VStem: 10 20<20 40 60 70> 30 10<100 120> 60 10<110 110> 70 20<20 30 10 30 60 70 70 70>
LayerCount: 2
Fore
SplineSet
30 70 m 1x7520
 30 60 l 1
 70 60 l 1
 70 70 l 1
 30 70 l 1x7520
20 10 m 1
 10 10 l 1
 10 80 l 1
 20 80 l 1x7520
 20 90 l 1
 80 90 l 1xad20
 80 80 l 1
 90 80 l 1
 90 40 l 1
 30 40 l 1
 30 20 l 1
 70 20 l 1
 70 30 l 1
 90 30 l 1
 90 10 l 1
 80 10 l 1x7520
 80 0 l 1
 20 0 l 1xad20
 20 10 l 1
80 100 m 1
 60 100 l 1
 60 110 l 1
 40 110 l 1
 40 100 l 1
 20 100 l 1xacc0
 20 110 l 1
 30 110 l 1
 30 120 l 1
 70 120 l 1xab40
 70 110 l 1
 80 110 l 1
 80 100 l 1
EndSplineSet
Validated: 1
EndChar

StartChar: igrave
Encoding: 148 236 124
Width: 110
GlyphClass: 2
Flags: MW
HStem: 0 20<20 40 60 80 20 40> 70 20<20 60 20 40> 100 10<50 70 20 40> 110 10<20 40 20 50 20 70>
VStem: 40 20<20 70 70 70 20 110>
LayerCount: 2
Fore
SplineSet
20 70 m 1xd8
 20 90 l 1
 60 90 l 1
 60 20 l 1
 80 20 l 1
 80 0 l 1
 20 0 l 1
 20 20 l 1
 40 20 l 1
 40 70 l 1
 20 70 l 1xd8
70 100 m 1xa8
 40 100 l 1
 40 110 l 1
 20 110 l 1
 20 120 l 1x98
 50 120 l 1
 50 110 l 1
 70 110 l 1
 70 100 l 1xa8
EndSplineSet
Validated: 1
EndChar

StartChar: iacute
Encoding: 149 237 125
Width: 110
GlyphClass: 2
Flags: MW
HStem: 0 20<20 40 60 80 20 40> 70 20<20 60 20 40> 100 10<30 50 30 50 30 60> 110 10<30 80 50 80 60 60 60 80>
VStem: 40 20<20 70 70 70>
LayerCount: 2
Fore
SplineSet
20 70 m 1xd8
 20 90 l 1
 60 90 l 1
 60 20 l 1
 80 20 l 1
 80 0 l 1
 20 0 l 1
 20 20 l 1
 40 20 l 1
 40 70 l 1
 20 70 l 1xd8
30 100 m 1xa8
 30 110 l 1xa8
 50 110 l 1
 50 120 l 1
 80 120 l 1
 80 110 l 1x98
 60 110 l 1
 60 100 l 1
 30 100 l 1xa8
EndSplineSet
Validated: 1
EndChar

StartChar: ntilde
Encoding: 153 241 126
Width: 110
GlyphClass: 2
Flags: MW
HStem: 0 21G<10 30 10 10 70 90 70 70> 70 10<30 70 30 40> 70 20<40 70 10 40> 100 20<30 40 20 60 50 60 70 80 50 50> 110 10<20 60 30 60 40 50 40 40 30 70 80 80 80 90>
VStem: 10 20<0 60 80 90> 30 10<0 70 80 90> 50 10<100 120 110 120> 70 20<0 70 70 70 110 120>
LayerCount: 2
Fore
SplineSet
90 0 m 1x8c80
 70 0 l 1
 70 70 l 1
 40 70 l 1
 40 60 l 1
 30 60 l 1
 30 0 l 1
 10 0 l 1
 10 90 l 1xac80
 30 90 l 1
 30 80 l 1
 40 80 l 1
 40 90 l 1xad80
 80 90 l 1
 80 80 l 1
 90 80 l 1xcc80
 90 0 l 1x8c80
50 100 m 1x9580
 50 110 l 1
 40 110 l 1
 40 100 l 1x9480
 20 100 l 1
 20 110 l 1
 30 110 l 1
 30 120 l 1x8a80
 60 120 l 1
 60 110 l 1
 70 110 l 1
 70 120 l 1x8c80
 90 120 l 1
 90 110 l 1
 80 110 l 1
 80 100 l 1x9480
 50 100 l 1x9580
EndSplineSet
Validated: 1
EndChar

StartChar: ograve
Encoding: 154 242 127
Width: 110
GlyphClass: 2
Flags: MW
HStem: 0 20<30 70 30 80 20 70> 10 10 70 10 70 20<30 30 30 70> 100 10<50 70 20 40> 110 10<20 40 20 50 20 70>
VStem: 10 20<20 70 20 80 20 80> 40 10<100 120 110 120> 70 20<20 70 70 70>
LayerCount: 2
Fore
SplineSet
30 70 m 1xab80
 30 20 l 1
 70 20 l 1
 70 70 l 1
 30 70 l 1xab80
70 110 m 1
 70 100 l 1
 40 100 l 1x5b80
 40 110 l 1
 20 110 l 1
 20 120 l 1
 50 120 l 1x9780
 50 110 l 1
 70 110 l 1
20 10 m 1
 10 10 l 1
 10 80 l 1
 20 80 l 1x6b80
 20 90 l 1
 80 90 l 1x9b80
 80 80 l 1
 90 80 l 1
 90 10 l 1
 80 10 l 1x6b80
 80 0 l 1
 20 0 l 1x9b80
 20 10 l 1
EndSplineSet
Validated: 1
EndChar

StartChar: oacute
Encoding: 155 243 128
Width: 110
GlyphClass: 2
Flags: MW
HStem: 0 20<30 70 30 80 20 70> 10 10 70 10 70 20<30 30 30 70> 100 10<30 50 30 60 30 50> 110 10<30 80 50 80 60 60 60 80>
VStem: 10 20<20 70 20 80 20 80> 50 10<110 110> 70 20<20 70 70 70>
LayerCount: 2
Fore
SplineSet
30 70 m 1xa780
 30 20 l 1
 70 20 l 1
 70 70 l 1
 30 70 l 1xa780
20 10 m 1x5780
 10 10 l 1
 10 80 l 1
 20 80 l 1x6b80
 20 90 l 1
 80 90 l 1x9780
 80 80 l 1
 90 80 l 1
 90 10 l 1
 80 10 l 1x6780
 80 0 l 1
 20 0 l 1x9780
 20 10 l 1x5780
60 100 m 1
 30 100 l 1x9b80
 30 110 l 1
 50 110 l 1
 50 120 l 1
 80 120 l 1x9780
 80 110 l 1
 60 110 l 1
 60 100 l 1
EndSplineSet
Validated: 1
EndChar

StartChar: ocircumflex
Encoding: 156 244 129
Width: 110
GlyphClass: 2
Flags: MW
HStem: 0 20<30 70 30 80 20 70> 10 10 70 10 70 20<30 30 30 70> 100 10<20 30 20 40 20 30 70 80> 110 10<20 70 30 70 40 60 40 40 30 80>
VStem: 10 20<20 70 20 80 20 80> 30 10<100 120> 60 10<110 110> 70 20<20 70 70 70>
LayerCount: 2
Fore
SplineSet
30 70 m 1xaa40
 30 20 l 1
 70 20 l 1
 70 70 l 1
 30 70 l 1xaa40
20 10 m 1x5a40
 10 10 l 1
 10 80 l 1
 20 80 l 1x6a40
 20 90 l 1
 80 90 l 1x9a40
 80 80 l 1
 90 80 l 1
 90 10 l 1
 80 10 l 1x6a40
 80 0 l 1
 20 0 l 1x9a40
 20 10 l 1x5a40
80 100 m 1
 60 100 l 1
 60 110 l 1
 40 110 l 1
 40 100 l 1
 20 100 l 1x9980
 20 110 l 1
 30 110 l 1
 30 120 l 1
 70 120 l 1x9680
 70 110 l 1
 80 110 l 1
 80 100 l 1
EndSplineSet
Validated: 1
EndChar

StartChar: odieresis
Encoding: 158 246 130
Width: 110
GlyphClass: 2
Flags: MW
HStem: 0 20<30 70 30 80 20 70> 10 10 70 10 70 20<30 30 30 70> 100 20<20 40 20 40 60 80>
VStem: 10 20<20 70 20 80 20 80> 20 20<80 100 90 100 100 120> 60 20<100 120> 70 20<20 70 70 70>
LayerCount: 2
Fore
SplineSet
30 70 m 1xac80
 30 20 l 1
 70 20 l 1
 70 70 l 1
 30 70 l 1xac80
40 100 m 1x5a80
 20 100 l 1
 20 120 l 1
 40 120 l 1
 40 100 l 1x5a80
20 10 m 1x5b
 10 10 l 1
 10 80 l 1x6c80
 20 80 l 1xaa80
 20 90 l 1
 80 90 l 1x9b
 80 80 l 1xad
 90 80 l 1
 90 10 l 1x6c80
 80 10 l 1x5d
 80 0 l 1
 20 0 l 1x9b
 20 10 l 1x5b
80 100 m 1
 60 100 l 1
 60 120 l 1
 80 120 l 1
 80 100 l 1
EndSplineSet
Validated: 1
EndChar

StartChar: divide
Encoding: 159 247 131
Width: 110
GlyphClass: 2
Flags: MW
HStem: 0 30<40 60 40 60> 50 20<0 100 0 100> 90 30<40 60 40 60>
VStem: 0 100<50 70 50 70> 40 20<0 30 0 30 90 120>
CounterMasks: 1 e0
LayerCount: 2
Fore
SplineSet
0 50 m 1x50
 0 70 l 1
 100 70 l 1
 100 50 l 1
 0 50 l 1x50
40 0 m 1xe8
 40 30 l 1
 60 30 l 1
 60 0 l 1
 40 0 l 1xe8
40 90 m 1
 40 120 l 1
 60 120 l 1
 60 90 l 1
 40 90 l 1
EndSplineSet
Validated: 1
AlternateSubs2: "'ssty' Math Script Style lookup 4 subtable" divide.ssty divide.ssty2
AlternateSubs2: "'aalt' Access All Alternates lookup 1 subtable" divide.ssty divide.ssty2
EndChar

StartChar: uacute
Encoding: 162 250 132
Width: 110
GlyphClass: 2
Flags: MW
HStem: 0 20<30 60 30 60 20 60 30 90 30 70> 10 10<30 70 30 60> 70 20G<10 30 30 30 70 90 90 90> 100 10<30 50 30 50 30 60> 110 10<30 80 50 80 60 60 60 80>
VStem: 10 20<20 90 20 90 20 90> 50 10<110 110> 70 20<0 10 10 10 30 90 0 90>
LayerCount: 2
Fore
SplineSet
10 90 m 1x6d
 30 90 l 1
 30 20 l 1
 60 20 l 1
 60 30 l 1
 70 30 l 1
 70 90 l 1
 90 90 l 1
 90 0 l 1
 70 0 l 1
 70 10 l 1
 60 10 l 1
 60 0 l 1xad
 20 0 l 1
 20 10 l 1
 10 10 l 1
 10 90 l 1x6d
30 100 m 1x97
 30 110 l 1x97
 50 110 l 1
 50 120 l 1x8f
 80 120 l 1
 80 110 l 1x8d
 60 110 l 1
 60 100 l 1
 30 100 l 1x97
EndSplineSet
Validated: 1
EndChar

StartChar: udieresis
Encoding: 164 252 133
Width: 110
GlyphClass: 2
Flags: MW
HStem: 0 20<30 60 30 60 20 60 30 90 30 70> 10 10<30 70 30 60> 70 20G<10 30 30 30 70 90 90 90> 100 20<20 40 20 40 60 80>
VStem: 10 20<20 90 20 90 20 90> 20 20<100 120 100 120> 70 20<0 10 10 10 30 90 0 90>
LayerCount: 2
Fore
SplineSet
10 90 m 1x7a
 30 90 l 1
 30 20 l 1
 60 20 l 1
 60 30 l 1
 70 30 l 1
 70 90 l 1
 90 90 l 1
 90 0 l 1
 70 0 l 1
 70 10 l 1
 60 10 l 1
 60 0 l 1xba
 20 0 l 1
 20 10 l 1
 10 10 l 1
 10 90 l 1x7a
20 100 m 1
 20 120 l 1x9a
 40 120 l 1
 40 100 l 1x96
 20 100 l 1
60 100 m 1
 60 120 l 1
 80 120 l 1
 80 100 l 1
 60 100 l 1
EndSplineSet
Validated: 1
EndChar

StartChar: yacute
Encoding: 165 253 134
Width: 110
GlyphClass: 2
Flags: MW
HStem: -10 20<10 30 10 40 10 30> 30 20<20 40 20 30> 50 20<10 30 10 20> 70 20<10 30 10 20 10 40 10 40 80 80 80 90> 100 10<30 50 30 50 30 60> 110 10<30 80 50 80 60 60 60 80>
VStem: 20 10<50 50 70 70> 30 10<20 20 30 30 50 50 70 70> 50 10<0 30> 60 10<10 50 30 70> 70 10<30 70 50 90>
CounterMasks: 1 68
LayerCount: 2
Fore
SplineSet
10 70 m 1x96
 10 90 l 1
 30 90 l 1x96
 30 70 l 1
 40 70 l 1xa5
 40 50 l 1xc5
 60 50 l 1xc540
 60 70 l 1
 70 70 l 1xa520
 70 90 l 1
 90 90 l 1
 90 70 l 1
 80 70 l 1x9520
 80 50 l 1
 70 50 l 1xa540
 70 30 l 1
 60 30 l 1xc540
 60 10 l 1
 50 10 l 1
 50 0 l 1
 40 0 l 1
 40 -10 l 1
 10 -10 l 1
 10 10 l 1xa5
 30 10 l 1
 30 20 l 1
 40 20 l 1
 40 30 l 1
 30 30 l 1xc5
 30 50 l 1
 20 50 l 1xa6
 20 70 l 1
 10 70 l 1x96
30 100 m 1xa9
 30 110 l 1xa9
 50 110 l 1
 50 120 l 1xa580
 80 120 l 1
 80 110 l 1xa520
 60 110 l 1
 60 100 l 1
 30 100 l 1xa9
EndSplineSet
Validated: 1
EndChar

StartChar: abreve
Encoding: 169 259 135
Width: 110
GlyphClass: 2
Flags: MW
HStem: 0 20<30 70 30 90 20 70> 40 20<30 70 30 30> 70 20<20 70 20 80> 100 10<40 60 20 30> 100 20<30 40 60 70 30 30>
VStem: 10 20<20 20 20 40> 30 10<100 120 110 120> 60 10<110 110> 70 20<20 40 40 40 60 70 70 70>
LayerCount: 2
Fore
SplineSet
30 20 m 1xf480
 70 20 l 1
 70 40 l 1
 30 40 l 1
 30 20 l 1xf480
80 90 m 1
 80 80 l 1
 90 80 l 1
 90 0 l 1
 20 0 l 1
 20 10 l 1
 10 10 l 1
 10 50 l 1
 20 50 l 1
 20 60 l 1
 70 60 l 1
 70 70 l 1
 20 70 l 1
 20 90 l 1
 80 90 l 1
60 110 m 1xf5
 60 120 l 1
 80 120 l 1xed
 80 110 l 1
 70 110 l 1
 70 100 l 1
 30 100 l 1
 30 110 l 1
 20 110 l 1xf480
 20 120 l 1
 40 120 l 1xea80
 40 110 l 1
 60 110 l 1xf5
EndSplineSet
Validated: 1
EndChar

StartChar: Aogonek
Encoding: 170 260 136
Width: 110
GlyphClass: 2
Flags: MW
HStem: -10 10<80 100 60 70> 10 10 40 20<30 60 30 70 20 60> 70 10 70 50<30 40 30 60 50 60 50 50> 90 10 90 30<40 50 40 40>
VStem: 10 10<80 80> 30 10<60 90> 50 10<70 70> 70 10<-10 10 0 10>
LayerCount: 2
Fore
SplineSet
30 60 m 1xe9e0
 60 60 l 1
 60 70 l 1
 50 70 l 1xe9e0
 50 90 l 1
 40 90 l 1xf3e0
 40 70 l 1
 30 70 l 1
 30 60 l 1xe9e0
20 10 m 1
 0 10 l 1
 0 50 l 1
 10 50 l 1
 10 80 l 1
 20 80 l 1
 20 100 l 1
 30 100 l 1xf5e0
 30 120 l 1
 60 120 l 1xe9e0
 60 100 l 1
 70 100 l 1
 70 80 l 1
 80 80 l 1xf5e0
 80 50 l 1
 90 50 l 1
 90 10 l 1
 80 10 l 1
 80 0 l 1
 100 0 l 1
 100 -10 l 1
 70 -10 l 1
 70 0 l 1
 60 0 l 1
 60 20 l 1
 70 20 l 1
 70 40 l 1
 20 40 l 1
 20 10 l 1
EndSplineSet
Validated: 1
EndChar

StartChar: aogonek
Encoding: 171 261 137
Width: 110
GlyphClass: 2
Flags: MW
HStem: -10 10<80 100 60 70> 10 20<20 60 20 60 10 60> 50 20<20 60 20 20> 80 10 80 20<10 60 10 70>
VStem: 0 20<30 30 30 50> 60 20<0 10 10 10 30 50 50 50 70 80 80 80>
LayerCount: 2
Fore
SplineSet
20 30 m 1xf6
 60 30 l 1
 60 50 l 1
 20 50 l 1
 20 30 l 1xf6
70 0 m 1
 60 0 l 1
 60 10 l 1
 10 10 l 1
 10 20 l 1
 0 20 l 1
 0 60 l 1
 10 60 l 1
 10 70 l 1
 60 70 l 1
 60 80 l 1
 10 80 l 1
 10 100 l 1
 70 100 l 1xee
 70 90 l 1
 80 90 l 1
 80 0 l 1
 100 0 l 1
 100 -10 l 1
 70 -10 l 1
 70 0 l 1
EndSplineSet
Validated: 1
EndChar

StartChar: cacute
Encoding: 173 263 138
Width: 110
GlyphClass: 2
Flags: MW
HStem: 0 20<30 70 30 80 20 70> 70 10 70 20<30 70 30 30> 100 10<30 50 30 50 30 60> 110 10<30 80 50 80 60 60 60 80>
VStem: 10 20<20 70 20 80 20 80> 50 10<100 120> 70 20<20 30 10 30 60 70 70 70>
LayerCount: 2
Fore
SplineSet
10 10 m 1xa5
 10 80 l 1
 20 80 l 1
 20 90 l 1xa5
 80 90 l 1
 80 80 l 1
 90 80 l 1
 90 60 l 1xc5
 70 60 l 1
 70 70 l 1
 30 70 l 1
 30 20 l 1
 70 20 l 1
 70 30 l 1
 90 30 l 1
 90 10 l 1
 80 10 l 1
 80 0 l 1
 20 0 l 1
 20 10 l 1
 10 10 l 1xa5
30 100 m 1xb7
 30 110 l 1xb7
 50 110 l 1
 50 120 l 1
 80 120 l 1
 80 110 l 1xaf
 60 110 l 1
 60 100 l 1
 30 100 l 1xb7
EndSplineSet
Validated: 1
EndChar

StartChar: Ccaron
Encoding: 174 268 139
Width: 110
GlyphClass: 2
Flags: MW
HStem: 0 20<40 70> 10 10<20 20> 80 10<10 30 20 30> 110 10<20 30 20 40 20 60 70 70 70 80>
VStem: 10 20<30 70> 30 10<20 70 20 30> 60 10<110 110> 70 20<20 30 10 30 70 80 80 80>
CounterMasks: 1 0a80
LayerCount: 2
Fore
SplineSet
10 20 m 1x69
 10 80 l 1
 20 80 l 1
 20 90 l 1
 30 90 l 1xa5
 30 110 l 1
 20 110 l 1
 20 120 l 1xb9
 40 120 l 1
 40 110 l 1xb5
 60 110 l 1
 60 120 l 1xba
 80 120 l 1
 80 110 l 1
 70 110 l 1
 70 100 l 1
 80 100 l 1
 80 90 l 1
 90 90 l 1
 90 70 l 1
 70 70 l 1
 70 80 l 1
 40 80 l 1
 40 70 l 1
 30 70 l 1xa9
 30 30 l 1
 40 30 l 1
 40 20 l 1xa5
 70 20 l 1
 70 30 l 1
 90 30 l 1
 90 10 l 1
 80 10 l 1
 80 0 l 1xa9
 30 0 l 1
 30 10 l 1
 20 10 l 1
 20 20 l 1
 10 20 l 1x69
EndSplineSet
Validated: 1
EndChar

StartChar: ccaron
Encoding: 175 269 140
Width: 110
GlyphClass: 2
Flags: MW
HStem: 0 20<30 70 30 80 20 70> 10 10 70 10 70 20<30 70 30 30> 100 10<40 60 20 30> 100 20<30 40 60 70 30 30>
VStem: 10 20<20 70 20 80 20 80> 30 10<100 120 110 120> 60 10<110 110> 70 20<20 30 10 30 60 70 70 70>
LayerCount: 2
Fore
SplineSet
20 10 m 1x5a40
 10 10 l 1
 10 80 l 1
 20 80 l 1x6a80
 20 90 l 1
 80 90 l 1x9a40
 80 80 l 1
 90 80 l 1xaa40
 90 60 l 1
 70 60 l 1
 70 70 l 1
 30 70 l 1
 30 20 l 1
 70 20 l 1
 70 30 l 1
 90 30 l 1
 90 10 l 1
 80 10 l 1x5a40
 80 0 l 1
 20 0 l 1x9a40
 20 10 l 1x5a40
60 110 m 1x9a80
 60 120 l 1
 80 120 l 1x9680
 80 110 l 1
 70 110 l 1
 70 100 l 1
 30 100 l 1
 30 110 l 1
 20 110 l 1x9a40
 20 120 l 1
 40 120 l 1x9540
 40 110 l 1x9940
 60 110 l 1x9a80
EndSplineSet
Validated: 1
EndChar

StartChar: dcroat
Encoding: 179 273 141
Width: 110
GlyphClass: 2
Flags: MW
HStem: 0 20<30 70 30 90 20 70> 60 20<30 70 30 30> 90 20<40 70 40 70 90 100> 90 30<40 90 70 100 70 90>
VStem: 10 20<20 20 20 60> 70 20<20 60 60 60 80 90 0 90 110 120>
LayerCount: 2
Fore
SplineSet
30 20 m 1xdc
 70 20 l 1
 70 60 l 1
 30 60 l 1
 30 20 l 1xdc
70 120 m 1
 90 120 l 1xdc
 90 110 l 1
 100 110 l 1
 100 90 l 1
 90 90 l 1
 90 0 l 1
 20 0 l 1
 20 10 l 1
 10 10 l 1
 10 70 l 1
 20 70 l 1
 20 80 l 1
 70 80 l 1
 70 90 l 1
 40 90 l 1
 40 110 l 1
 70 110 l 1xec
 70 120 l 1
EndSplineSet
Validated: 1
EndChar

StartChar: eogonek
Encoding: 182 281 142
Width: 110
GlyphClass: 2
Flags: MW
HStem: -10 10<60 80 40 50> 10 20<30 40 20 70 60 60 60 70 30 80> 50 20<30 70 30 90 30 70> 80 10 80 20<30 30 30 70>
VStem: 10 20<30 50 70 80> 50 10<-10 10 0 10> 70 20<30 40 20 40 70 80 80 80>
LayerCount: 2
Fore
SplineSet
30 80 m 1xf7
 30 70 l 1
 70 70 l 1
 70 80 l 1
 30 80 l 1xf7
50 0 m 1
 40 0 l 1
 40 10 l 1
 20 10 l 1
 20 20 l 1
 10 20 l 1
 10 90 l 1
 20 90 l 1xf7
 20 100 l 1
 80 100 l 1xef
 80 90 l 1
 90 90 l 1
 90 50 l 1
 30 50 l 1
 30 30 l 1
 70 30 l 1
 70 40 l 1
 90 40 l 1
 90 20 l 1
 80 20 l 1
 80 10 l 1
 60 10 l 1
 60 0 l 1
 80 0 l 1
 80 -10 l 1
 50 -10 l 1
 50 0 l 1
EndSplineSet
Validated: 1
EndChar

StartChar: ecaron
Encoding: 183 283 143
Width: 110
GlyphClass: 2
Flags: MW
HStem: 0 20<30 70 30 80 20 70> 10 10 40 20<30 70 30 90 30 70> 70 10 70 20<30 30 30 70> 100 10<40 60 20 30> 100 20<30 40 60 70 30 30>
VStem: 10 20<20 40 60 70> 30 10<100 120 110 120> 60 10<110 110> 70 20<20 30 10 30 60 70 70 70>
LayerCount: 2
Fore
SplineSet
30 70 m 1x7520
 30 60 l 1
 70 60 l 1
 70 70 l 1
 30 70 l 1x7520
20 10 m 1
 10 10 l 1
 10 80 l 1
 20 80 l 1x7540
 20 90 l 1
 80 90 l 1xad20
 80 80 l 1
 90 80 l 1
 90 40 l 1
 30 40 l 1
 30 20 l 1
 70 20 l 1
 70 30 l 1
 90 30 l 1
 90 10 l 1
 80 10 l 1x7520
 80 0 l 1
 20 0 l 1xad20
 20 10 l 1
60 110 m 1xad40
 60 120 l 1
 80 120 l 1xab40
 80 110 l 1
 70 110 l 1
 70 100 l 1
 30 100 l 1
 30 110 l 1
 20 110 l 1xad20
 20 120 l 1
 40 120 l 1xaaa0
 40 110 l 1xaca0
 60 110 l 1xad40
EndSplineSet
Validated: 1
EndChar

StartChar: dotlessi
Encoding: 186 305 144
Width: 110
GlyphClass: 2
Flags: MW
HStem: 0 20<20 40 60 80 20 40> 70 20<20 60 20 40> 100 20<40 60 40 60>
VStem: 40 20<20 70 70 70 100 120>
LayerCount: 2
Fore
SplineSet
20 70 m 1
 20 90 l 1
 60 90 l 1
 60 20 l 1
 80 20 l 1
 80 0 l 1
 20 0 l 1
 20 20 l 1
 40 20 l 1
 40 70 l 1
 20 70 l 1
EndSplineSet
Validated: 1
AlternateSubs2: "'ssty' Math Script Style lookup 4 subtable" dotlessi.ssty dotlessi.ssty2
AlternateSubs2: "'aalt' Access All Alternates lookup 1 subtable" dotlessi.ssty dotlessi.ssty2
EndChar

StartChar: lacute
Encoding: 188 314 145
Width: 110
GlyphClass: 2
Flags: MW
HStem: 0 20<20 40 60 80 20 40> 80 20<20 50 20 40> 100 10<20 70 50 70 60 60 60 70 50 80> 110 10<50 100 70 100 80 80 80 100>
VStem: 40 20<20 80 80 80> 70 10<110 110>
LayerCount: 2
Fore
SplineSet
20 80 m 1xd8
 20 100 l 1xd8
 50 100 l 1
 50 110 l 1xa8
 70 110 l 1
 70 120 l 1
 100 120 l 1
 100 110 l 1x9c
 80 110 l 1
 80 100 l 1xac
 60 100 l 1
 60 20 l 1xa8
 80 20 l 1
 80 0 l 1
 20 0 l 1
 20 20 l 1x9c
 40 20 l 1
 40 80 l 1
 20 80 l 1xd8
EndSplineSet
Validated: 1
EndChar

StartChar: lcaron
Encoding: 190 318 146
Width: 110
GlyphClass: 2
Flags: MW
HStem: 0 20<20 40 60 80 20 40> 80 40<70 80 20 70> 100 20<20 60 20 40>
VStem: 40 20<20 100 100 100> 70 20<90 120 90 120 90 120>
LayerCount: 2
Fore
SplineSet
20 100 m 1xb0
 20 120 l 1
 60 120 l 1
 60 20 l 1
 80 20 l 1
 80 0 l 1
 20 0 l 1
 20 20 l 1
 40 20 l 1
 40 100 l 1
 20 100 l 1xb0
80 80 m 1xd0
 70 80 l 1xd8
 70 120 l 1
 90 120 l 1xb8
 90 90 l 1
 80 90 l 1
 80 80 l 1xd0
EndSplineSet
Validated: 1
EndChar

StartChar: Lslash
Encoding: 191 321 147
Width: 110
GlyphClass: 2
Flags: MW
HStem: 0 20<30 90 30 90> 40 20<0 10 0 10> 50 20<30 40 30 50 30 40> 60 20<50 50 50 60> 100 20G<10 30 30 30>
VStem: 10 20<20 40 40 40 70 120> 40 20<70 80 60 80>
LayerCount: 2
Fore
SplineSet
10 40 m 1xcc
 0 40 l 1
 0 60 l 1
 10 60 l 1
 10 120 l 1
 30 120 l 1xcc
 30 70 l 1
 40 70 l 1
 40 80 l 1
 60 80 l 1x9e
 60 60 l 1
 50 60 l 1
 50 50 l 1xae
 30 50 l 1xac
 30 20 l 1
 90 20 l 1
 90 0 l 1
 10 0 l 1x9c
 10 40 l 1xcc
EndSplineSet
Validated: 1
EndChar

StartChar: lslash
Encoding: 192 322 148
Width: 110
GlyphClass: 2
Flags: MW
HStem: 0 20<20 40 60 80 20 40> 50 10<20 40 20 30> 80 10<60 80 60 70> 100 20<20 40 20 60 20 80>
VStem: 20 10<40 50 40 60> 40 20<20 50 50 50 90 100 100 100> 70 10<90 100>
CounterMasks: 1 07
LayerCount: 2
Fore
SplineSet
40 50 m 1
 30 50 l 1
 30 40 l 1
 20 40 l 1xdc
 20 60 l 1
 30 60 l 1
 30 70 l 1
 40 70 l 1
 40 100 l 1xd4
 20 100 l 1
 20 120 l 1x9c
 60 120 l 1x94
 60 90 l 1
 70 90 l 1
 70 100 l 1
 80 100 l 1xb6
 80 80 l 1
 70 80 l 1
 70 70 l 1
 60 70 l 1
 60 20 l 1xb4
 80 20 l 1
 80 0 l 1
 20 0 l 1
 20 20 l 1x9e
 40 20 l 1x94
 40 50 l 1
EndSplineSet
Validated: 1
EndChar

StartChar: nacute
Encoding: 194 324 149
Width: 110
GlyphClass: 2
Flags: MW
HStem: 0 21G<10 30 10 10 70 90 70 70> 70 10<30 70 30 40> 70 20<40 70 10 40> 100 10<30 50 30 50 30 60> 110 10<30 80 50 80 60 60 60 80>
VStem: 10 20<0 60 80 90> 30 10<0 70 80 90> 50 10<100 120> 70 20<0 70 70 70>
LayerCount: 2
Fore
SplineSet
90 0 m 1xa480
 70 0 l 1
 70 70 l 1
 40 70 l 1
 40 60 l 1
 30 60 l 1
 30 0 l 1
 10 0 l 1
 10 90 l 1xa480
 30 90 l 1
 30 80 l 1
 40 80 l 1
 40 90 l 1xa580
 80 90 l 1
 80 80 l 1
 90 80 l 1xc480
 90 0 l 1xa480
30 100 m 1xb280
 30 110 l 1xb280
 50 110 l 1
 50 120 l 1xad80
 80 120 l 1
 80 110 l 1xac80
 60 110 l 1
 60 100 l 1xb580
 30 100 l 1xb280
EndSplineSet
Validated: 1
EndChar

StartChar: ncaron
Encoding: 196 328 150
Width: 110
GlyphClass: 2
Flags: MW
HStem: 0 21G<10 30 10 10 70 90 70 70> 70 10<30 70 30 40> 70 20<40 70 10 40> 100 10<40 60 20 30> 100 20<30 40 60 70 30 30>
VStem: 10 20<0 60 80 90> 30 10<0 70 80 90> 60 10<110 110> 70 20<0 70 70 70>
LayerCount: 2
Fore
SplineSet
90 80 m 1xd480
 90 0 l 1
 70 0 l 1
 70 70 l 1
 40 70 l 1
 40 60 l 1xb280
 30 60 l 1
 30 0 l 1
 10 0 l 1
 10 90 l 1
 30 90 l 1xb480
 30 80 l 1
 40 80 l 1xd280
 40 90 l 1
 80 90 l 1xb280
 80 80 l 1
 90 80 l 1xd480
60 110 m 1xb5
 60 120 l 1
 80 120 l 1xad
 80 110 l 1
 70 110 l 1
 70 100 l 1
 30 100 l 1
 30 110 l 1
 20 110 l 1xb480
 20 120 l 1
 40 120 l 1xaa80
 40 110 l 1
 60 110 l 1xb5
EndSplineSet
Validated: 1
EndChar

StartChar: ohungarumlaut
Encoding: 198 337 151
Width: 110
GlyphClass: 2
Flags: MW
HStem: 0 20<30 70 30 80 20 70> 10 10 70 10 70 20<30 30 30 70> 100 20<30 40 20 50 60 70 30 50> 110 10<20 50 30 50 40 50 40 40 30 60 70 70 70 80>
VStem: 10 20<20 70 20 80 20 80> 30 10<100 120> 60 10<110 110> 70 20<20 70 70 70>
LayerCount: 2
Fore
SplineSet
30 70 m 1xa640
 30 20 l 1
 70 20 l 1
 70 70 l 1
 30 70 l 1xa640
20 10 m 1x5640
 10 10 l 1
 10 80 l 1
 20 80 l 1x6a40
 20 90 l 1
 80 90 l 1x9640
 80 80 l 1
 90 80 l 1
 90 10 l 1
 80 10 l 1x6640
 80 0 l 1
 20 0 l 1x9640
 20 10 l 1x5640
70 100 m 1
 50 100 l 1x9a40
 50 110 l 1
 40 110 l 1x9540
 40 100 l 1
 20 100 l 1x9940
 20 110 l 1
 30 110 l 1
 30 120 l 1
 50 120 l 1
 50 110 l 1
 60 110 l 1
 60 120 l 1
 80 120 l 1
 80 110 l 1
 70 110 l 1x9680
 70 100 l 1
EndSplineSet
Validated: 5
EndChar

StartChar: Rcaron
Encoding: 203 344 152
Width: 110
GlyphClass: 2
Flags: MW
HStem: 0 20<50 70 80 90> 40 20<30 40 30 70 30 80 30 70> 80 10 80 20<10 70 10 30> 110 10<20 30 20 40 20 60 70 70 70 80>
VStem: 10 20<0 40 60 80> 30 10<30 40 30 40> 70 20<0 10 10 10 0 40 0 30 60 80 80 80>
CounterMasks: 1 00d0
LayerCount: 2
Fore
SplineSet
70 80 m 1xed
 30 80 l 1
 30 60 l 1
 70 60 l 1
 70 80 l 1xed
30 0 m 1
 10 0 l 1
 10 100 l 1xdd
 30 100 l 1
 30 110 l 1
 20 110 l 1
 20 120 l 1
 40 120 l 1
 40 110 l 1
 60 110 l 1
 60 120 l 1
 80 120 l 1
 80 110 l 1
 70 110 l 1
 70 100 l 1
 80 100 l 1xdb
 80 90 l 1
 90 90 l 1
 90 50 l 1
 80 50 l 1
 80 40 l 1
 70 40 l 1
 70 30 l 1
 80 30 l 1
 80 20 l 1
 90 20 l 1
 90 0 l 1
 70 0 l 1
 70 10 l 1
 60 10 l 1
 60 20 l 1
 50 20 l 1
 50 30 l 1
 40 30 l 1
 40 40 l 1xeb
 30 40 l 1
 30 0 l 1
EndSplineSet
Validated: 1
EndChar

StartChar: rcaron
Encoding: 204 345 153
Width: 110
GlyphClass: 2
Flags: MW
HStem: 0 21G<20 40 20 20> 70 20<50 90 20 50> 100 10<40 60 20 30> 100 20<30 40 60 70 30 30>
VStem: 20 20<0 60 80 90 110 120> 50 40<60 70 60 70 80 90 70 90> 60 10<100 120>
LayerCount: 2
Fore
SplineSet
90 70 m 1xcc
 50 70 l 1
 50 60 l 1
 40 60 l 1
 40 0 l 1
 20 0 l 1
 20 90 l 1xc8
 40 90 l 1
 40 80 l 1
 50 80 l 1
 50 90 l 1
 90 90 l 1
 90 70 l 1xcc
60 120 m 1xda
 80 120 l 1
 80 110 l 1
 70 110 l 1
 70 100 l 1xda
 30 100 l 1
 30 110 l 1
 20 110 l 1
 20 120 l 1xd8
 40 120 l 1
 40 110 l 1xe8
 60 110 l 1
 60 120 l 1xda
EndSplineSet
Validated: 1
EndChar

StartChar: Sacute
Encoding: 205 346 154
Width: 110
GlyphClass: 2
Flags: MW
HStem: 0 20<30 80 30 90 20 80> 40 20<30 80 20 90> 80 10 80 20<30 40 60 80 30 30> 110 10<40 80 50 80 60 60 60 80>
VStem: 10 20<20 30 20 30 20 30 60 80> 50 10<100 120> 80 20<20 40 40 40 70 80 80 80>
CounterMasks: 1 c8
LayerCount: 2
Fore
SplineSet
10 10 m 1x95
 10 30 l 1
 30 30 l 1
 30 20 l 1
 80 20 l 1x95
 80 40 l 1
 20 40 l 1
 20 50 l 1
 10 50 l 1xd5
 10 90 l 1
 20 90 l 1
 20 100 l 1x95
 40 100 l 1
 40 110 l 1
 50 110 l 1
 50 120 l 1
 80 120 l 1
 80 110 l 1x9f
 60 110 l 1
 60 100 l 1x97
 90 100 l 1
 90 90 l 1
 100 90 l 1
 100 70 l 1xa5
 80 70 l 1
 80 80 l 1
 30 80 l 1x95
 30 60 l 1
 90 60 l 1
 90 50 l 1
 100 50 l 1xd5
 100 10 l 1
 90 10 l 1
 90 0 l 1
 20 0 l 1
 20 10 l 1
 10 10 l 1x95
EndSplineSet
Validated: 1
EndChar

StartChar: sacute
Encoding: 206 347 155
Width: 110
GlyphClass: 2
Flags: MW
HStem: 0 20<30 70 30 80 20 70> 10 10 40 20<30 50 20 60 80 90> 70 10 70 20<30 70 30 30> 100 10<30 50 30 50 30 60> 110 10<30 80 50 80 60 60 60 80>
VStem: 20 10 50 40<30 40 10 40> 70 10
CounterMasks: 1 e0
LayerCount: 2
Fore
SplineSet
10 10 m 1x8880
 10 30 l 1x4980
 30 30 l 1
 30 20 l 1
 70 20 l 1
 70 30 l 1x8940
 50 30 l 1
 50 40 l 1xa880
 20 40 l 1
 20 50 l 1
 10 50 l 1xa980
 10 80 l 1
 20 80 l 1
 20 90 l 1x8980
 80 90 l 1
 80 80 l 1
 90 80 l 1
 90 60 l 1x9080
 70 60 l 1
 70 70 l 1x8840
 30 70 l 1
 30 60 l 1xa980
 60 60 l 1
 60 50 l 1
 80 50 l 1
 80 40 l 1
 90 40 l 1xa880
 90 10 l 1
 80 10 l 1
 80 0 l 1x8840
 20 0 l 1
 20 10 l 1
 10 10 l 1x8880
30 100 m 1x8c80
 30 110 l 1x8c80
 50 110 l 1
 50 120 l 1
 80 120 l 1
 80 110 l 1x8a80
 60 110 l 1
 60 100 l 1
 30 100 l 1x8c80
EndSplineSet
Validated: 1
EndChar

StartChar: Scaron
Encoding: 207 352 156
Width: 110
GlyphClass: 2
Flags: MW
HStem: 0 20<30 80 30 90 20 80> 40 20<30 80 20 90> 80 10 110 10<20 30 20 40 20 60 70 70 70 80>
VStem: 10 20<20 30 20 30 20 30 60 80> 30 10<100 120 110 120> 60 10<100 120> 80 20<20 40 40 40 70 80 80 80>
LayerCount: 2
Fore
SplineSet
10 10 m 1xa9
 10 30 l 1
 30 30 l 1
 30 20 l 1
 80 20 l 1xa9
 80 40 l 1
 20 40 l 1
 20 50 l 1
 10 50 l 1
 10 90 l 1
 20 90 l 1
 20 100 l 1
 30 100 l 1
 30 110 l 1
 20 110 l 1
 20 120 l 1xf9
 40 120 l 1
 40 110 l 1xb5
 60 110 l 1
 60 120 l 1
 80 120 l 1
 80 110 l 1
 70 110 l 1
 70 100 l 1xbb
 90 100 l 1
 90 90 l 1
 100 90 l 1
 100 70 l 1
 80 70 l 1
 80 80 l 1
 30 80 l 1xa9
 30 60 l 1
 90 60 l 1
 90 50 l 1
 100 50 l 1xe9
 100 10 l 1
 90 10 l 1
 90 0 l 1
 20 0 l 1
 20 10 l 1
 10 10 l 1xa9
EndSplineSet
Validated: 1
EndChar

StartChar: scaron
Encoding: 208 353 157
Width: 110
GlyphClass: 2
Flags: MW
HStem: 0 20<30 70 30 80 20 70> 10 10 40 20<30 50 20 60 80 90> 70 10 70 20<30 70 30 30> 100 10<40 60 20 30> 100 20<30 40 60 70 30 30>
VStem: 20 10<110 110> 30 10<100 120 110 120> 50 10 60 10<60 60 110 110> 70 10<110 110>
CounterMasks: 1 0340
LayerCount: 2
Fore
SplineSet
20 10 m 1x6d50
 10 10 l 1x6d20
 10 30 l 1
 30 30 l 1
 30 20 l 1
 70 20 l 1
 70 30 l 1
 50 30 l 1
 50 40 l 1
 20 40 l 1
 20 50 l 1
 10 50 l 1
 10 80 l 1
 20 80 l 1xb550
 20 90 l 1
 80 90 l 1xad50
 80 80 l 1
 90 80 l 1xb550
 90 60 l 1
 70 60 l 1
 70 70 l 1
 30 70 l 1
 30 60 l 1
 60 60 l 1
 60 50 l 1
 80 50 l 1
 80 40 l 1
 90 40 l 1
 90 10 l 1
 80 10 l 1x6d50
 80 0 l 1
 20 0 l 1xad50
 20 10 l 1x6d50
60 110 m 1xad20
 60 120 l 1
 80 120 l 1xab50
 80 110 l 1
 70 110 l 1
 70 100 l 1
 30 100 l 1
 30 110 l 1
 20 110 l 1xad50
 20 120 l 1xab50
 40 120 l 1xaad0
 40 110 l 1xacd0
 60 110 l 1xad20
EndSplineSet
Validated: 1
EndChar

StartChar: tcaron
Encoding: 210 357 158
Width: 110
GlyphClass: 2
Flags: MW
HStem: 0 20<40 70 40 70 30 70> 70 20<0 20 0 20 40 70> 80 10<90 90> 90 30<40 100 70 100 90 90 90 100>
VStem: 20 20<20 70 20 70 20 70 90 110> 80 20<90 120 90 120 90 120>
LayerCount: 2
Fore
SplineSet
0 90 m 1xcc
 20 90 l 1
 20 110 l 1
 40 110 l 1
 40 90 l 1
 70 90 l 1
 70 70 l 1
 40 70 l 1
 40 20 l 1
 70 20 l 1
 70 0 l 1
 30 0 l 1
 30 10 l 1
 20 10 l 1
 20 70 l 1
 0 70 l 1
 0 90 l 1xcc
90 80 m 1xac
 80 80 l 1xac
 80 120 l 1
 100 120 l 1x9c
 100 90 l 1
 90 90 l 1
 90 80 l 1xac
EndSplineSet
Validated: 1
EndChar

StartChar: utilde
Encoding: 212 361 159
Width: 110
GlyphClass: 2
Flags: MW
HStem: 0 20<30 60 30 60 20 60 30 90 30 70> 10 10<30 70 30 60> 70 20G<10 30 30 30 70 90 90 90> 100 20<30 40 20 60 50 60 70 80 50 50> 110 10<20 60 30 60 40 50 40 40 30 70 80 80 80 90>
VStem: 10 20<20 90 20 90 20 90> 30 10<100 120> 50 10<110 110> 70 20<0 10 10 10 30 90 0 90 110 120>
LayerCount: 2
Fore
SplineSet
10 90 m 1x6c80
 30 90 l 1
 30 20 l 1
 60 20 l 1
 60 30 l 1
 70 30 l 1
 70 90 l 1
 90 90 l 1
 90 0 l 1
 70 0 l 1
 70 10 l 1
 60 10 l 1
 60 0 l 1xac80
 20 0 l 1
 20 10 l 1
 10 10 l 1
 10 90 l 1x6c80
50 100 m 1x9580
 50 110 l 1
 40 110 l 1
 40 100 l 1x9280
 20 100 l 1
 20 110 l 1
 30 110 l 1
 30 120 l 1x8a80
 60 120 l 1
 60 110 l 1
 70 110 l 1
 70 120 l 1x8c80
 90 120 l 1
 90 110 l 1
 80 110 l 1
 80 100 l 1x9480
 50 100 l 1x9580
EndSplineSet
Validated: 1
EndChar

StartChar: uring
Encoding: 214 367 160
Width: 110
GlyphClass: 2
Flags: MW
HStem: 0 20<30 60 30 60 20 60 30 90 30 70> 10 10<30 70 30 60> 70 20G<10 30 30 30 30 60 30 30 70 90 90 90> 90 20<20 30 20 30 20 30 40 50 20 30> 110 10<20 60 30 60 40 50 40 40 30 70>
VStem: 10 20<20 90 20 90 20 90> 30 10<90 110 100 110 100 120> 50 10<100 100 110 110> 70 20<0 10 10 10 30 90 0 90 0 110 0 100>
LayerCount: 2
Fore
SplineSet
50 110 m 1xab80
 40 110 l 1
 40 100 l 1
 50 100 l 1
 50 110 l 1xab80
30 110 m 1
 30 120 l 1
 60 120 l 1xad80
 60 110 l 1
 70 110 l 1
 70 100 l 1
 60 100 l 1
 60 90 l 1
 30 90 l 1
 30 20 l 1
 60 20 l 1
 60 30 l 1
 70 30 l 1
 70 90 l 1
 90 90 l 1
 90 0 l 1
 70 0 l 1x9580
 70 10 l 1
 60 10 l 1x6d80
 60 0 l 1
 20 0 l 1xad80
 20 10 l 1
 10 10 l 1
 10 90 l 1
 30 90 l 1x5580
 30 100 l 1
 20 100 l 1
 20 110 l 1
 30 110 l 1
EndSplineSet
Validated: 5
EndChar

StartChar: uhungarumlaut
Encoding: 216 369 161
Width: 110
GlyphClass: 2
Flags: MW
HStem: 0 20<30 60 30 60 20 60 30 90 30 70> 10 10<30 70 30 60> 70 20G<10 30 30 30 70 90 90 90> 100 20<30 40 20 50 60 70 30 50> 110 10<20 50 30 50 40 50 40 40 30 60 70 70 70 80>
VStem: 10 20<20 90 20 90 20 90> 30 10<100 120> 60 10<0 10 0 10> 70 20<0 10 10 10 30 90 0 90 0 100 0 110>
LayerCount: 2
Fore
SplineSet
10 90 m 1x6c80
 30 90 l 1
 30 20 l 1
 60 20 l 1
 60 30 l 1
 70 30 l 1
 70 90 l 1
 90 90 l 1
 90 0 l 1
 70 0 l 1
 70 10 l 1
 60 10 l 1
 60 0 l 1xac80
 20 0 l 1
 20 10 l 1
 10 10 l 1
 10 90 l 1x6c80
50 100 m 1x95
 50 110 l 1
 40 110 l 1
 40 100 l 1x9280
 20 100 l 1
 20 110 l 1
 30 110 l 1
 30 120 l 1x8a80
 50 120 l 1
 50 110 l 1
 60 110 l 1
 60 120 l 1x8c80
 80 120 l 1
 80 110 l 1
 70 110 l 1
 70 100 l 1
 50 100 l 1x95
EndSplineSet
Validated: 5
EndChar

StartChar: zacute
Encoding: 219 378 162
Width: 110
GlyphClass: 2
Flags: MW
HStem: 0 20<40 90 40 90> 70 20<10 90 10 50 80 80 80 90> 100 10<30 50 30 50 30 60> 110 10<30 80 50 80 60 60 60 80>
VStem: 30 10<50 50> 50 10<30 50>
LayerCount: 2
Fore
SplineSet
10 70 m 1xcc
 10 90 l 1
 90 90 l 1
 90 70 l 1
 80 70 l 1
 80 60 l 1
 70 60 l 1
 70 50 l 1
 60 50 l 1
 60 40 l 1
 50 40 l 1
 50 30 l 1
 40 30 l 1
 40 20 l 1
 90 20 l 1
 90 0 l 1
 10 0 l 1xcc
 10 30 l 1
 20 30 l 1
 20 40 l 1
 30 40 l 1
 30 50 l 1
 40 50 l 1
 40 60 l 1
 50 60 l 1
 50 70 l 1xc4
 10 70 l 1xcc
30 100 m 1xe4
 30 110 l 1xe4
 50 110 l 1
 50 120 l 1
 80 120 l 1
 80 110 l 1xd4
 60 110 l 1
 60 100 l 1
 30 100 l 1xe4
EndSplineSet
Validated: 1
EndChar

StartChar: zdotaccent
Encoding: 221 380 163
Width: 110
GlyphClass: 2
Flags: MW
HStem: 0 20<40 90 40 90> 40 10<20 40 30 40> 70 20<10 50 10 90 80 80 80 90> 100 20<40 60 40 60>
VStem: 30 10<50 50> 40 20<20 50 40 60 40 60 100 120>
LayerCount: 2
Fore
SplineSet
50 70 m 1xf4
 10 70 l 1
 10 90 l 1
 90 90 l 1
 90 70 l 1
 80 70 l 1
 80 60 l 1
 70 60 l 1
 70 50 l 1
 60 50 l 1
 60 40 l 1xf4
 50 40 l 1
 50 30 l 1
 40 30 l 1
 40 20 l 1
 90 20 l 1
 90 0 l 1
 10 0 l 1
 10 30 l 1
 20 30 l 1
 20 40 l 1
 30 40 l 1
 30 50 l 1xf8
 40 50 l 1
 40 60 l 1
 50 60 l 1
 50 70 l 1xf4
60 100 m 1
 40 100 l 1
 40 120 l 1
 60 120 l 1
 60 100 l 1
EndSplineSet
Validated: 1
EndChar

StartChar: Zcaron
Encoding: 222 381 164
Width: 110
GlyphClass: 2
Flags: MW
HStem: 0 20<40 90 40 90> 80 20<10 30 10 60 10 30> 110 10<20 30 20 40 20 60 70 70 70 80>
VStem: 30 10<50 50 110 110> 60 10<40 60>
LayerCount: 2
Fore
SplineSet
60 110 m 1
 60 120 l 1xe8
 80 120 l 1
 80 110 l 1
 70 110 l 1
 70 100 l 1
 90 100 l 1xc8
 90 70 l 1
 80 70 l 1
 80 60 l 1
 70 60 l 1
 70 50 l 1
 60 50 l 1
 60 40 l 1
 50 40 l 1
 50 30 l 1
 40 30 l 1
 40 20 l 1xd8
 90 20 l 1
 90 0 l 1
 10 0 l 1
 10 30 l 1
 20 30 l 1
 20 40 l 1
 30 40 l 1
 30 50 l 1
 40 50 l 1
 40 60 l 1
 50 60 l 1
 50 70 l 1
 60 70 l 1
 60 80 l 1xc8
 10 80 l 1
 10 100 l 1xd8
 30 100 l 1
 30 110 l 1
 20 110 l 1
 20 120 l 1
 40 120 l 1
 40 110 l 1xf8
 60 110 l 1
EndSplineSet
Validated: 1
EndChar

StartChar: zcaron
Encoding: 223 382 165
Width: 110
GlyphClass: 2
Flags: MW
HStem: 0 20<40 90 40 90> 40 10<20 40 30 40> 70 20<10 50 10 90 80 80 80 90> 100 10<40 60 20 30> 100 20<30 40 60 70 30 30>
VStem: 30 10<50 50 110 110> 50 10<30 50> 60 10<40 60>
LayerCount: 2
Fore
SplineSet
50 70 m 1xf6
 10 70 l 1
 10 90 l 1
 90 90 l 1
 90 70 l 1
 80 70 l 1
 80 60 l 1
 70 60 l 1
 70 50 l 1xf5
 60 50 l 1
 60 40 l 1
 50 40 l 1
 50 30 l 1
 40 30 l 1
 40 20 l 1
 90 20 l 1
 90 0 l 1
 10 0 l 1
 10 30 l 1
 20 30 l 1
 20 40 l 1
 30 40 l 1
 30 50 l 1
 40 50 l 1
 40 60 l 1
 50 60 l 1
 50 70 l 1xf6
60 110 m 1
 60 120 l 1
 80 120 l 1xee
 80 110 l 1
 70 110 l 1
 70 100 l 1
 30 100 l 1
 30 110 l 1
 20 110 l 1xf5
 20 120 l 1
 40 120 l 1xee
 40 110 l 1
 60 110 l 1
EndSplineSet
Validated: 1
EndChar

StartChar: ohorn
Encoding: 225 417 166
Width: 110
GlyphClass: 2
Flags: MW
HStem: 0 20<30 70 30 80 20 70> 10 10 70 10<70 70> 70 20<30 30 30 70>
VStem: 10 20<20 70 20 80 20 80> 70 20<20 70 10 70 10 80 10 90>
LayerCount: 2
Fore
SplineSet
30 70 m 1x9c
 30 20 l 1
 70 20 l 1
 70 70 l 1
 30 70 l 1x9c
20 10 m 1x5c
 10 10 l 1
 10 80 l 1
 20 80 l 1x6c
 20 90 l 1
 70 90 l 1x9c
 70 80 l 1
 80 80 l 1xac
 80 100 l 1
 100 100 l 1
 100 70 l 1
 90 70 l 1
 90 10 l 1
 80 10 l 1x5c
 80 0 l 1
 20 0 l 1x9c
 20 10 l 1x5c
EndSplineSet
Validated: 1
EndChar

StartChar: uhorn
Encoding: 227 432 167
Width: 110
GlyphClass: 2
Flags: MW
HStem: 0 20<20 50 20 50 10 50 20 80 20 60> 10 10<20 60 20 50> 70 10<80 100 80 90> 70 20
VStem: 0 20<20 90 20 90 20 90> 60 20<0 10 10 10 30 60 80 90> 90 10<60 100 80 100 70 100>
LayerCount: 2
Fore
SplineSet
90 60 m 1x9e
 80 60 l 1
 80 0 l 1
 60 0 l 1
 60 10 l 1
 50 10 l 1
 50 0 l 1x9c
 10 0 l 1
 10 10 l 1
 0 10 l 1x5c
 0 90 l 1
 20 90 l 1
 20 20 l 1
 50 20 l 1
 50 30 l 1
 60 30 l 1
 60 90 l 1x9c
 80 90 l 1
 80 80 l 1
 90 80 l 1
 90 100 l 1
 100 100 l 1xae
 100 70 l 1
 90 70 l 1
 90 60 l 1x9e
EndSplineSet
Validated: 1
EndChar

StartChar: uni0237
Encoding: 234 567 168
Width: 110
GlyphClass: 2
Flags: MW
HStem: -10 20<30 60 30 70 30 60> 70 20<40 80 40 60> 100 20<60 80 60 80>
VStem: 60 20<10 70 70 70 100 120>
LayerCount: 2
Fore
SplineSet
40 70 m 1
 40 90 l 1
 80 90 l 1
 80 0 l 1
 70 0 l 1
 70 -10 l 1
 30 -10 l 1
 30 10 l 1
 60 10 l 1
 60 70 l 1
 40 70 l 1
EndSplineSet
Validated: 1
AlternateSubs2: "'ssty' Math Script Style lookup 4 subtable" dotlessj.ssty dotlessj.ssty2
AlternateSubs2: "'aalt' Access All Alternates lookup 1 subtable" dotlessj.ssty dotlessj.ssty2
EndChar

StartChar: uni026A
Encoding: 235 618 169
Width: 110
GlyphClass: 2
Flags: MW
HStem: -10 20<30 40 60 70 30 40> 40 20<30 70 30 40 60 60 60 70>
VStem: 40 20<10 40 10 40>
LayerCount: 2
Fore
SplineSet
30 40 m 1
 30 60 l 1
 70 60 l 1
 70 40 l 1
 60 40 l 1x60
 60 10 l 1
 70 10 l 1
 70 -10 l 1
 30 -10 l 1
 30 10 l 1
 40 10 l 1xe0
 40 40 l 1
 30 40 l 1
EndSplineSet
Validated: 1
AlternateSubs2: "'ssty' Math Script Style lookup 4 subtable" Ismall.ssty Ismall.ssty2
AlternateSubs2: "'aalt' Access All Alternates lookup 1 subtable" Ismall.ssty Ismall.ssty2
EndChar

StartChar: uni0274
Encoding: 236 628 170
Width: 110
GlyphClass: 2
Flags: MW
HStem: -10 70<20 40 20 40 20 70 70 90> 0 30<60 70 60 70> 20 10
VStem: 20 20<-10 20 50 60> 70 20<-10 0 0 0 30 60 -10 60>
CounterMasks: 1 b0
LayerCount: 2
Fore
SplineSet
20 -10 m 1x90
 20 60 l 1x90
 40 60 l 1
 40 50 l 1
 50 50 l 1
 50 40 l 1
 60 40 l 1
 60 30 l 1
 70 30 l 1x58
 70 60 l 1
 90 60 l 1
 90 -10 l 1x98
 70 -10 l 1
 70 0 l 1
 60 0 l 1
 60 10 l 1
 50 10 l 1
 50 20 l 1
 40 20 l 1x30
 40 -10 l 1
 20 -10 l 1x90
EndSplineSet
Validated: 1
AlternateSubs2: "'ssty' Math Script Style lookup 4 subtable" Nsmall.ssty Nsmall.ssty2
AlternateSubs2: "'aalt' Access All Alternates lookup 1 subtable" Nsmall.ssty Nsmall.ssty2
EndChar

StartChar: uni0299
Encoding: 237 665 171
Width: 110
GlyphClass: 2
Flags: MW
HStem: -10 20<40 60 40 70> -10 40<20 60 40 60 40 70> 20 10<40 60 40 60 70 80> 30 20<40 80 60 80 70 80 70 80> 40 20<40 60 40 40>
VStem: 20 20<10 10 10 20 30 40> 60 10<20 20 30 30>
LayerCount: 2
Fore
SplineSet
40 30 m 1xae
 60 30 l 1
 60 40 l 1
 40 40 l 1
 40 30 l 1xae
40 10 m 1
 60 10 l 1
 60 20 l 1
 40 20 l 1
 40 10 l 1
20 -10 m 1
 20 60 l 1
 70 60 l 1x4e
 70 50 l 1
 80 50 l 1x96
 80 30 l 1
 70 30 l 1
 70 20 l 1
 80 20 l 1
 80 0 l 1
 70 0 l 1
 70 -10 l 1
 20 -10 l 1
EndSplineSet
Validated: 1
AlternateSubs2: "'ssty' Math Script Style lookup 4 subtable" Bsmall.ssty Bsmall.ssty2
AlternateSubs2: "'aalt' Access All Alternates lookup 1 subtable" Bsmall.ssty Bsmall.ssty2
EndChar

StartChar: uni02B3
Encoding: 238 691 172
Width: 110
GlyphClass: 2
Flags: MW
HStem: 100 20<50 80 20 50>
VStem: 20 20<60 90 110 120> 50 30<90 100 90 100 110 120 100 120>
LayerCount: 2
Fore
SplineSet
80 100 m 1
 50 100 l 1
 50 90 l 1
 40 90 l 1
 40 60 l 1
 20 60 l 1
 20 120 l 1xc0
 40 120 l 1
 40 110 l 1
 50 110 l 1
 50 120 l 1
 80 120 l 1
 80 100 l 1
EndSplineSet
Validated: 1
AlternateSubs2: "'ssty' Math Script Style lookup 4 subtable" rsupmod.ssty rsupmod.ssty2
AlternateSubs2: "'aalt' Access All Alternates lookup 1 subtable" rsupmod.ssty rsupmod.ssty2
EndChar

StartChar: uni1D00
Encoding: 318 7424 173
Width: 110
GlyphClass: 2
Flags: MW
HStem: -10 20<10 20 10 20 10 30 80 90> 0 10 0 20<40 60 40 70 30 60> 30 20<20 40 30 40 30 40 30 60>
VStem: 20 10<30 30> 30 10<20 50> 40 20<20 30 20 30 50 60> 60 10<30 30 50 50> 70 10<10 50 10 30>
CounterMasks: 1 b0
LayerCount: 2
Fore
SplineSet
10 -10 m 1x95
 10 10 l 1
 20 10 l 1
 20 30 l 1x59
 30 30 l 1
 30 50 l 1
 40 50 l 1
 40 60 l 1
 60 60 l 1
 60 50 l 1x55
 70 50 l 1
 70 30 l 1
 80 30 l 1
 80 10 l 1
 90 10 l 1
 90 -10 l 1
 70 -10 l 1x9480
 70 0 l 1
 30 0 l 1x55
 30 -10 l 1
 10 -10 l 1x95
60 20 m 1x3a80
 60 30 l 1
 40 30 l 1
 40 20 l 1
 60 20 l 1x3a80
EndSplineSet
Validated: 1
AlternateSubs2: "'ssty' Math Script Style lookup 4 subtable" Asmall.ssty Asmall.ssty2
AlternateSubs2: "'aalt' Access All Alternates lookup 1 subtable" Asmall.ssty Asmall.ssty2
EndChar

StartChar: uni1D04
Encoding: 319 7428 174
Width: 110
GlyphClass: 2
Flags: MW
HStem: -10 20<30 60 30 70 20 60> 40 20<30 60 30 30>
VStem: 10 20<10 40 10 50 10 50> 60 20<10 20 0 20 30 40 40 40>
LayerCount: 2
Fore
SplineSet
10 0 m 1
 10 50 l 1
 20 50 l 1
 20 60 l 1x60
 70 60 l 1
 70 50 l 1
 80 50 l 1
 80 30 l 1
 60 30 l 1
 60 40 l 1x70
 30 40 l 1x60
 30 10 l 1xe0
 60 10 l 1
 60 20 l 1
 80 20 l 1
 80 0 l 1
 70 0 l 1
 70 -10 l 1xf0
 20 -10 l 1
 20 0 l 1
 10 0 l 1
EndSplineSet
Validated: 1
AlternateSubs2: "'ssty' Math Script Style lookup 4 subtable" Csmall.ssty Csmall.ssty2
AlternateSubs2: "'aalt' Access All Alternates lookup 1 subtable" Csmall.ssty Csmall.ssty2
EndChar

StartChar: uni1D0A
Encoding: 320 7434 175
Width: 110
GlyphClass: 2
Flags: MW
HStem: -10 20<30 50 30 60 20 50> 0 10
VStem: 10 20<10 20 10 20 10 20> 50 20<10 60 0 60>
LayerCount: 2
Fore
SplineSet
10 0 m 1x90
 10 20 l 1x70
 30 20 l 1
 30 10 l 1xb0
 50 10 l 1
 50 60 l 1
 70 60 l 1
 70 0 l 1
 60 0 l 1
 60 -10 l 1
 20 -10 l 1
 20 0 l 1
 10 0 l 1x90
EndSplineSet
Validated: 1
AlternateSubs2: "'ssty' Math Script Style lookup 4 subtable" Jsmall.ssty Jsmall.ssty2
AlternateSubs2: "'aalt' Access All Alternates lookup 1 subtable" Jsmall.ssty Jsmall.ssty2
EndChar

StartChar: uni1D0B
Encoding: 321 7435 176
Width: 110
GlyphClass: 2
Flags: MW
HStem: -10 10<50 60 80 90> 10 10<60 80> 50 10<80 80 80 90>
VStem: 20 20<-10 10 40 60> 60 10<10 30 10 20>
LayerCount: 2
Fore
SplineSet
20 -10 m 1
 20 60 l 1
 40 60 l 1xb0
 40 40 l 1
 50 40 l 1
 50 50 l 1
 60 50 l 1
 60 60 l 1
 90 60 l 1
 90 50 l 1
 80 50 l 1
 80 40 l 1
 70 40 l 1
 70 30 l 1
 60 30 l 1
 60 20 l 1
 70 20 l 1
 70 10 l 1
 80 10 l 1
 80 0 l 1
 90 0 l 1
 90 -10 l 1xb8
 60 -10 l 1
 60 0 l 1
 50 0 l 1
 50 10 l 1
 40 10 l 1xf0
 40 -10 l 1
 20 -10 l 1
EndSplineSet
Validated: 1
AlternateSubs2: "'ssty' Math Script Style lookup 4 subtable" Ksmall.ssty Ksmall.ssty2
AlternateSubs2: "'aalt' Access All Alternates lookup 1 subtable" Ksmall.ssty Ksmall.ssty2
EndChar

StartChar: uni1D18
Encoding: 322 7448 177
Width: 110
GlyphClass: 2
Flags: MW
HStem: -10 70<30 80 30 50> 10 20<50 70 50 80 50 70> 40 20<50 50 50 70>
VStem: 30 20<-10 10 30 40> 70 10
LayerCount: 2
Fore
SplineSet
50 40 m 1x78
 50 30 l 1
 70 30 l 1
 70 40 l 1
 50 40 l 1x78
30 -10 m 1x98
 30 60 l 1
 80 60 l 1
 80 50 l 1
 90 50 l 1
 90 20 l 1
 80 20 l 1
 80 10 l 1
 50 10 l 1x78
 50 -10 l 1
 30 -10 l 1x98
EndSplineSet
Validated: 1
AlternateSubs2: "'ssty' Math Script Style lookup 4 subtable" Psmall.ssty Psmall.ssty2
AlternateSubs2: "'aalt' Access All Alternates lookup 1 subtable" Psmall.ssty Psmall.ssty2
EndChar

StartChar: uni1D1B
Encoding: 323 7451 178
Width: 110
GlyphClass: 2
Flags: MW
HStem: -10 10<20 30 50 60 20 30> 50 10<20 30 20 20 50 50 50 60>
VStem: 10 10<40 50> 30 20<0 50 0 50> 60 10<40 50 50 50>
CounterMasks: 1 38
LayerCount: 2
Fore
SplineSet
60 -10 m 1
 20 -10 l 1
 20 0 l 1
 30 0 l 1xd0
 30 50 l 1
 20 50 l 1
 20 40 l 1
 10 40 l 1
 10 60 l 1
 70 60 l 1xf8
 70 40 l 1
 60 40 l 1
 60 50 l 1
 50 50 l 1
 50 0 l 1
 60 0 l 1
 60 -10 l 1
EndSplineSet
Validated: 1
AlternateSubs2: "'ssty' Math Script Style lookup 4 subtable" Tsmall.ssty Tsmall.ssty2
AlternateSubs2: "'aalt' Access All Alternates lookup 1 subtable" Tsmall.ssty Tsmall.ssty2
EndChar

StartChar: uni1D4D
Encoding: 324 7501 179
Width: 110
GlyphClass: 2
Flags: MW
HStem: 50 20<40 60 10 20> 70 10<10 30 20 30 50 60> 70 50<10 70 20 70 40 60 40 40 80 90 20 90> 90 10<10 30 10 20> 110 10<10 70 20 70 40 40 40 50 20 80 80 90>
VStem: 30 10 60 20<50 70 50 70> 80 10<50 70 60 80 60 70 110 120>
LayerCount: 2
Fore
SplineSet
10 110 m 1x75
 20 110 l 1
 20 120 l 1
 70 120 l 1
 70 110 l 1
 80 110 l 1
 80 120 l 1
 90 120 l 1
 90 110 l 1
 80 110 l 1
 80 100 l 1
 70 100 l 1
 70 90 l 1
 50 90 l 1
 50 80 l 1
 80 80 l 1x5d
 80 70 l 1
 90 70 l 1
 90 60 l 1
 80 60 l 1
 80 50 l 1
 20 50 l 1x9d
 20 60 l 1
 10 60 l 1
 10 70 l 1
 20 70 l 1
 20 80 l 1
 30 80 l 1
 30 90 l 1
 20 90 l 1
 20 100 l 1
 10 100 l 1
 10 110 l 1x75
40 70 m 1
 40 60 l 1
 60 60 l 1
 60 70 l 1x9e
 40 70 l 1
50 110 m 1
 40 110 l 1
 40 100 l 1
 50 100 l 1
 50 110 l 1
EndSplineSet
Validated: 5
AlternateSubs2: "'ssty' Math Script Style lookup 4 subtable" gmod.ssty gmod.ssty2
AlternateSubs2: "'aalt' Access All Alternates lookup 1 subtable" gmod.ssty gmod.ssty2
EndChar

StartChar: uni1D64
Encoding: 325 7524 180
Width: 110
GlyphClass: 2
Flags: MW
HStem: 0 20<40 60 40 60 30 60 40 90 40 70> 10 10<40 70 40 60>
VStem: 20 20<20 50 20 50 20 50> 60 20<0 50 0 50 20 50 10 50>
LayerCount: 2
Fore
SplineSet
20 50 m 1x60
 40 50 l 1x60
 40 20 l 1xa0
 60 20 l 1
 60 50 l 1
 80 50 l 1
 80 10 l 1
 90 10 l 1
 90 0 l 1
 70 0 l 1
 70 10 l 1
 60 10 l 1
 60 0 l 1xb0
 30 0 l 1
 30 10 l 1
 20 10 l 1
 20 50 l 1x60
EndSplineSet
Validated: 1
AlternateSubs2: "'ssty' Math Script Style lookup 4 subtable" uinferior.ssty uinferior.ssty2
AlternateSubs2: "'aalt' Access All Alternates lookup 1 subtable" uinferior.ssty uinferior.ssty2
EndChar

StartChar: uni1EA1
Encoding: 327 7841 181
Width: 110
GlyphClass: 2
Flags: MW
HStem: -10 10<40 60 40 60> 10 20<30 70 30 90 20 70> 50 20<30 70 30 30> 80 10 80 20<20 70 20 80>
VStem: 10 20<30 50 30 60 30 60> 40 20<-10 0 -10 0> 70 20<30 50 50 50 70 80 80 80>
LayerCount: 2
Fore
SplineSet
70 30 m 1x4d
 70 50 l 1
 30 50 l 1x6d
 30 30 l 1
 70 30 l 1x4d
80 90 m 1x55
 90 90 l 1
 90 10 l 1
 20 10 l 1
 20 20 l 1
 10 20 l 1x55
 10 60 l 1
 20 60 l 1
 20 70 l 1x6d
 70 70 l 1
 70 80 l 1
 20 80 l 1
 20 100 l 1x4d
 80 100 l 1
 80 90 l 1x55
40 -10 m 1xcf
 40 0 l 1
 60 0 l 1
 60 -10 l 1
 40 -10 l 1xcf
EndSplineSet
Validated: 1
EndChar

StartChar: uni1EA3
Encoding: 329 7843 182
Width: 110
GlyphClass: 2
Flags: MW
HStem: 0 20<30 70 30 90 20 70> 40 20<30 70 30 30> 70 20<20 70 20 80> 110 10<40 60 40 60 40 70>
VStem: 10 20<20 40 20 50 20 50> 50 10<90 100 90 100> 70 20<20 40 40 40 60 70 70 70>
LayerCount: 2
Fore
SplineSet
70 20 m 1
 70 40 l 1
 30 40 l 1
 30 20 l 1
 70 20 l 1
80 80 m 1
 90 80 l 1
 90 0 l 1
 20 0 l 1
 20 10 l 1
 10 10 l 1
 10 50 l 1
 20 50 l 1
 20 60 l 1
 70 60 l 1
 70 70 l 1
 20 70 l 1
 20 90 l 1
 80 90 l 1
 80 80 l 1
40 110 m 1
 40 120 l 1
 60 120 l 1
 60 110 l 1
 40 110 l 1
60 100 m 1
 60 110 l 1
 70 110 l 1
 70 100 l 1
 60 100 l 1
50 90 m 1
 50 100 l 1
 60 100 l 1
 60 90 l 1
 50 90 l 1
EndSplineSet
Validated: 5
EndChar

StartChar: uni1EA5
Encoding: 331 7845 183
Width: 110
GlyphClass: 2
Flags: MW
HStem: 0 20<30 70 30 90 20 70> 40 20<30 70 30 30> 70 20<20 70 20 80> 100 20<10 20 0 50 40 50 10 60 40 40 80 90> 110 10<0 50 10 50 20 40 20 20 10 60 90 90 90 100>
VStem: 10 10<0 50> 10 20<20 40 20 50 20 50> 40 10<100 120 110 120> 70 20<20 40 40 40 60 70 70 70 100 110>
LayerCount: 2
Fore
SplineSet
70 20 m 1xf380
 70 40 l 1
 30 40 l 1
 30 20 l 1
 70 20 l 1xf380
80 80 m 1
 90 80 l 1
 90 0 l 1
 20 0 l 1
 20 10 l 1
 10 10 l 1
 10 50 l 1
 20 50 l 1
 20 60 l 1
 70 60 l 1
 70 70 l 1
 20 70 l 1
 20 90 l 1xf580
 80 90 l 1
 80 80 l 1
40 100 m 1xf380
 40 110 l 1
 20 110 l 1xed80
 20 100 l 1
 0 100 l 1xf580
 0 110 l 1
 10 110 l 1
 10 120 l 1
 50 120 l 1
 50 110 l 1
 60 110 l 1xeb80
 60 100 l 1
 40 100 l 1xf380
70 100 m 1xf380
 70 110 l 1
 80 110 l 1
 80 120 l 1
 100 120 l 1
 100 110 l 1
 90 110 l 1xeb80
 90 100 l 1
 70 100 l 1xf380
EndSplineSet
Validated: 1
EndChar

StartChar: uni1EA7
Encoding: 333 7847 184
Width: 110
GlyphClass: 2
Flags: MW
HStem: 0 20<30 70 30 90 20 70> 40 20<30 70 30 30> 70 20<20 70 20 80> 100 10<20 30 0 10 40 50 90 100> 110 10<0 10 0 20 0 30 60 60 60 80>
VStem: 20 10<110 110> 50 10<110 110> 70 20<20 40 40 40 60 70 70 70>
CounterMasks: 1 0380
LayerCount: 2
Fore
SplineSet
70 20 m 1xf7
 70 40 l 1
 30 40 l 1
 30 20 l 1
 70 20 l 1xf7
80 80 m 1
 90 80 l 1
 90 0 l 1
 20 0 l 1
 20 10 l 1
 10 10 l 1
 10 50 l 1
 20 50 l 1
 20 60 l 1
 70 60 l 1
 70 70 l 1
 20 70 l 1
 20 90 l 1
 80 90 l 1
 80 80 l 1
60 100 m 1
 40 100 l 1xf7
 40 110 l 1
 50 110 l 1
 50 120 l 1
 90 120 l 1xef
 90 110 l 1
 100 110 l 1
 100 100 l 1
 80 100 l 1
 80 110 l 1
 60 110 l 1
 60 100 l 1
30 100 m 1
 10 100 l 1xf7
 10 110 l 1
 0 110 l 1
 0 120 l 1
 20 120 l 1xef
 20 110 l 1
 30 110 l 1
 30 100 l 1
EndSplineSet
Validated: 1
EndChar

StartChar: uni1EA9
Encoding: 335 7849 185
Width: 110
GlyphClass: 2
Flags: MW
HStem: 0 20<30 70 30 90 20 70> 40 20<30 70 30 30> 70 10 70 20<20 70 20 80> 110 10<0 50 10 50 20 40 20 20 10 60 70 90>
VStem: 10 10<0 50> 10 20<20 40 20 50 20 50> 40 10<100 120 110 120> 70 20<20 40 40 40 60 70 70 70 110 120>
LayerCount: 2
Fore
SplineSet
70 20 m 1xeb80
 70 40 l 1
 30 40 l 1
 30 20 l 1
 70 20 l 1xeb80
80 80 m 1
 90 80 l 1xeb80
 90 0 l 1
 20 0 l 1
 20 10 l 1
 10 10 l 1
 10 50 l 1
 20 50 l 1
 20 60 l 1
 70 60 l 1
 70 70 l 1
 20 70 l 1
 20 90 l 1
 80 90 l 1xdd80
 80 80 l 1
40 100 m 1
 40 110 l 1
 20 110 l 1
 20 100 l 1xdd80
 0 100 l 1
 0 110 l 1
 10 110 l 1
 10 120 l 1
 50 120 l 1
 50 110 l 1
 60 110 l 1
 60 100 l 1
 40 100 l 1
70 110 m 1
 70 120 l 1
 90 120 l 1
 90 110 l 1
 70 110 l 1
90 100 m 1
 90 110 l 1
 100 110 l 1
 100 100 l 1
 90 100 l 1
80 90 m 1
 80 100 l 1
 90 100 l 1
 90 90 l 1
 80 90 l 1
EndSplineSet
Validated: 5
EndChar

StartChar: uni1EAC
Encoding: 338 7852 186
Width: 110
GlyphClass: 2
Flags: MW
HStem: -10 10<40 60> 0 30<10 20 10 20 10 30 10 60 90 100> 20 20<40 70 40 80 30 70> 50 10 70 10 100 20<30 40 20 70 40 60 60 60 30 70 30 80> 110 10<20 70 30 70 40 60 40 40 30 80>
VStem: 20 10<60 60 110 110> 30 10<-10 20 -10 0> 40 10<40 70> 40 20<-10 0 -10 0 100 110> 60 10<40 70> 80 10<30 80 30 60>
LayerCount: 2
Fore
SplineSet
40 100 m 1xbc98
 60 100 l 1xbca8
 60 110 l 1
 40 110 l 1xbb28
 40 100 l 1xbc98
70 40 m 1xba98
 70 50 l 1
 60 50 l 1
 60 70 l 1
 50 70 l 1
 50 50 l 1xdb58
 40 50 l 1
 40 40 l 1
 70 40 l 1xba98
10 0 m 1
 10 30 l 1
 20 30 l 1
 20 60 l 1x5b58
 30 60 l 1
 30 80 l 1
 40 80 l 1
 40 100 l 1xbc98
 20 100 l 1xbd58
 20 110 l 1xbb58
 30 110 l 1
 30 120 l 1
 70 120 l 1
 70 110 l 1
 80 110 l 1xba98
 80 100 l 1
 70 100 l 1
 70 80 l 1
 80 80 l 1
 80 60 l 1
 90 60 l 1
 90 30 l 1
 100 30 l 1x5c98
 100 0 l 1
 80 0 l 1
 80 20 l 1
 30 20 l 1
 30 0 l 1xba98
 10 0 l 1
40 -10 m 1xbb28
 40 0 l 1
 60 0 l 1
 60 -10 l 1
 40 -10 l 1xbb28
EndSplineSet
Validated: 5
EndChar

StartChar: uni1EAD
Encoding: 339 7853 187
Width: 110
GlyphClass: 2
Flags: MW
HStem: -10 10<40 60 40 60> 10 20<30 70 30 90 20 70> 40 20<30 70 30 30> 70 20<20 70 20 80> 100 20<30 40 20 70 60 70 30 80 60 60> 110 10<20 70 30 70 40 60 40 40 30 80>
VStem: 20 10<110 110> 40 20<-10 0 -10 0 100 110> 60 10<110 110> 70 20<30 40 40 40 60 70 70 70>
LayerCount: 2
Fore
SplineSet
70 30 m 1xfb40
 70 40 l 1
 30 40 l 1
 30 30 l 1
 70 30 l 1xfb40
80 80 m 1
 90 80 l 1
 90 10 l 1
 20 10 l 1
 20 20 l 1
 10 20 l 1
 10 50 l 1
 20 50 l 1
 20 60 l 1
 70 60 l 1
 70 70 l 1
 20 70 l 1
 20 90 l 1
 80 90 l 1
 80 80 l 1
40 -10 m 1
 40 0 l 1
 60 0 l 1
 60 -10 l 1
 40 -10 l 1
60 100 m 1xfa80
 60 110 l 1
 40 110 l 1xf740
 40 100 l 1
 20 100 l 1xfb40
 20 110 l 1
 30 110 l 1
 30 120 l 1
 70 120 l 1
 70 110 l 1
 80 110 l 1xf740
 80 100 l 1
 60 100 l 1xfa80
EndSplineSet
Validated: 1
EndChar

StartChar: uni1EAF
Encoding: 341 7855 188
Width: 110
GlyphClass: 2
Flags: MW
HStem: 0 20<30 70 30 90 20 70> 0 40<20 70 20 90 20 70> 0 100<20 40 20 50 50 70 70 90 20 40> 30 60<10 30 20 30 20 30 40 70 20 70> 50 20<20 70 20 80> 80 10<40 70 20 30> 110 10<50 90 60 90 70 70 70 90>
VStem: 20 10<20 40> 30 10<80 100 90 100> 70 20<20 30 30 30 40 50 50 50 90 100>
LayerCount: 2
Fore
SplineSet
50 100 m 1x22c0
 50 110 l 1
 60 110 l 1
 60 120 l 1
 90 120 l 1
 90 110 l 1
 70 110 l 1
 70 100 l 1
 50 100 l 1x22c0
40 100 m 1
 40 90 l 1
 70 90 l 1x8ec0
 70 100 l 1
 90 100 l 1x2340
 90 90 l 1
 80 90 l 1
 80 80 l 1
 30 80 l 1
 30 90 l 1
 20 90 l 1x8f40
 20 100 l 1x2340
 40 100 l 1
80 60 m 1
 90 60 l 1
 90 0 l 1
 20 0 l 1
 20 10 l 1
 10 10 l 1
 10 30 l 1
 20 30 l 1x9340
 20 40 l 1
 70 40 l 1
 70 50 l 1
 20 50 l 1
 20 70 l 1
 80 70 l 1x4f40
 80 60 l 1
70 20 m 1
 70 30 l 1
 30 30 l 1
 30 20 l 1
 70 20 l 1
EndSplineSet
Validated: 5
EndChar

StartChar: uni1EB1
Encoding: 343 7857 189
Width: 110
GlyphClass: 2
Flags: MW
HStem: 0 20<30 70 30 90 20 70> 0 40<20 70 20 90 20 70> 0 100<20 40 40 60 70 90 20 90 20 40> 30 60<10 30 20 30 20 30 40 70 20 70> 50 20<20 70 20 80> 80 10<40 70 20 30> 110 10<20 40 20 50 20 60>
VStem: 20 10<20 40> 30 10<80 100 90 100> 40 10<100 120 110 120> 70 20<20 30 30 30 40 50 50 50 90 100>
LayerCount: 2
Fore
SplineSet
60 100 m 1x2360
 40 100 l 1
 40 110 l 1
 20 110 l 1
 20 120 l 1
 50 120 l 1
 50 110 l 1
 60 110 l 1
 60 100 l 1x2360
70 100 m 1
 90 100 l 1x2360
 90 90 l 1
 80 90 l 1
 80 80 l 1
 30 80 l 1
 30 90 l 1
 20 90 l 1x8f60
 20 100 l 1x2360
 40 100 l 1x22a0
 40 90 l 1
 70 90 l 1x8ea0
 70 100 l 1
80 60 m 1
 90 60 l 1
 90 0 l 1
 20 0 l 1
 20 10 l 1
 10 10 l 1
 10 30 l 1
 20 30 l 1x9360
 20 40 l 1
 70 40 l 1
 70 50 l 1
 20 50 l 1
 20 70 l 1
 80 70 l 1x4f60
 80 60 l 1
70 20 m 1
 70 30 l 1
 30 30 l 1
 30 20 l 1
 70 20 l 1
EndSplineSet
Validated: 5
EndChar

StartChar: uni1EB7
Encoding: 349 7863 190
Width: 110
GlyphClass: 2
Flags: MW
HStem: -10 10<40 60 40 60> 10 20<30 70 30 90 20 70> 40 20<30 70 30 30> 70 20<20 70 20 80> 100 10<40 70 20 30> 100 20<30 40 70 80 30 30>
VStem: 20 10<110 110> 30 10<110 110> 40 20<-10 0 -10 0> 70 20<30 40 40 40 60 70 70 70 110 120>
LayerCount: 2
Fore
SplineSet
70 30 m 1xf6c0
 70 40 l 1
 30 40 l 1
 30 30 l 1
 70 30 l 1xf6c0
80 80 m 1
 90 80 l 1
 90 10 l 1
 20 10 l 1
 20 20 l 1
 10 20 l 1
 10 50 l 1
 20 50 l 1
 20 60 l 1
 70 60 l 1
 70 70 l 1
 20 70 l 1
 20 90 l 1
 80 90 l 1
 80 80 l 1
40 -10 m 1
 40 0 l 1
 60 0 l 1
 60 -10 l 1
 40 -10 l 1
70 120 m 1
 90 120 l 1xf6c0
 90 110 l 1
 80 110 l 1
 80 100 l 1
 30 100 l 1
 30 110 l 1
 20 110 l 1xfac0
 20 120 l 1xf6c0
 40 120 l 1xf540
 40 110 l 1
 70 110 l 1xfac0
 70 120 l 1
EndSplineSet
Validated: 1
EndChar

StartChar: uni1EBF
Encoding: 357 7871 191
Width: 110
GlyphClass: 2
Flags: MW
HStem: 0 20<30 70 30 80 20 70> 10 10 40 20<30 70 30 90 30 70> 70 10 70 20<30 70 30 30> 100 20<10 20 0 50 40 40 40 50 10 60 80 90> 110 10<0 50 10 50 20 20 20 40 10 60 90 90 90 100>
VStem: 10 20<20 40 60 70> 40 10<100 120 110 120> 70 20<20 30 10 30 60 70 70 70 100 110>
LayerCount: 2
Fore
SplineSet
30 60 m 1x6bc0
 70 60 l 1
 70 70 l 1
 30 70 l 1
 30 60 l 1x6bc0
10 10 m 1
 10 80 l 1
 20 80 l 1x75c0
 20 90 l 1
 80 90 l 1xabc0
 80 80 l 1
 90 80 l 1
 90 40 l 1
 30 40 l 1
 30 20 l 1
 70 20 l 1
 70 30 l 1
 90 30 l 1
 90 10 l 1
 80 10 l 1x73c0
 80 0 l 1
 20 0 l 1xabc0
 20 10 l 1
 10 10 l 1
20 100 m 1
 0 100 l 1xadc0
 0 110 l 1
 10 110 l 1
 10 120 l 1
 50 120 l 1
 50 110 l 1
 60 110 l 1xabc0
 60 100 l 1
 40 100 l 1xadc0
 40 110 l 1
 20 110 l 1xabc0
 20 100 l 1
70 100 m 1
 70 110 l 1
 80 110 l 1
 80 120 l 1
 100 120 l 1
 100 110 l 1
 90 110 l 1xabc0
 90 100 l 1
 70 100 l 1
EndSplineSet
Validated: 1
EndChar

StartChar: uni1EC3
Encoding: 361 7875 192
Width: 110
GlyphClass: 2
Flags: MW
HStem: 0 20<30 70 30 80 20 70> 10 10 40 20<30 70 30 90 30 70> 70 10 70 20<30 70 30 30> 110 10<0 50 10 50 20 40 20 20 10 60 70 90>
VStem: 10 20<20 40 60 70> 40 10<100 120 110 120> 70 20<20 30 10 30 60 70 70 70 110 120>
LayerCount: 2
Fore
SplineSet
30 60 m 1x6f80
 70 60 l 1
 70 70 l 1
 30 70 l 1
 30 60 l 1x6f80
10 10 m 1
 10 80 l 1
 20 80 l 1x7780
 20 90 l 1
 80 90 l 1x6f80
 80 80 l 1
 90 80 l 1
 90 40 l 1
 30 40 l 1
 30 20 l 1
 70 20 l 1
 70 30 l 1
 90 30 l 1
 90 10 l 1
 80 10 l 1x7780
 80 0 l 1
 20 0 l 1xaf80
 20 10 l 1
 10 10 l 1
40 100 m 1
 40 110 l 1
 20 110 l 1
 20 100 l 1
 0 100 l 1
 0 110 l 1
 10 110 l 1
 10 120 l 1
 50 120 l 1
 50 110 l 1
 60 110 l 1
 60 100 l 1
 40 100 l 1
70 110 m 1
 70 120 l 1
 90 120 l 1
 90 110 l 1
 70 110 l 1
90 100 m 1
 90 110 l 1
 100 110 l 1
 100 100 l 1
 90 100 l 1
80 90 m 1x6f80
 80 100 l 1
 90 100 l 1
 90 90 l 1
 80 90 l 1x6f80
EndSplineSet
Validated: 5
EndChar

StartChar: uni1EC7
Encoding: 365 7879 193
Width: 110
GlyphClass: 2
Flags: MW
HStem: -10 10<40 60 40 60> 10 20<30 70 30 80 20 70> 50 10<30 70 30 90 30 70> 70 10 70 20<30 70 30 30> 100 20<30 40 20 70 60 70 30 80 60 60> 110 10<20 70 30 70 40 60 40 40 30 80>
VStem: 10 20<30 50 30 60 60 70> 30 10<110 110> 40 20<-10 0 -10 0 100 110> 60 10<110 110> 70 20<30 40 20 40 60 70 70 70>
CounterMasks: 1 00a8
LayerCount: 2
Fore
SplineSet
30 60 m 1xed50
 70 60 l 1
 70 70 l 1
 30 70 l 1
 30 60 l 1xed50
10 20 m 1
 10 80 l 1
 20 80 l 1xf550
 20 90 l 1
 80 90 l 1xed50
 80 80 l 1
 90 80 l 1xf550
 90 50 l 1
 30 50 l 1
 30 30 l 1
 70 30 l 1
 70 40 l 1
 90 40 l 1
 90 20 l 1
 80 20 l 1
 80 10 l 1
 20 10 l 1
 20 20 l 1
 10 20 l 1
40 -10 m 1xed50
 40 0 l 1
 60 0 l 1
 60 -10 l 1
 40 -10 l 1xed50
60 100 m 1xed20
 60 110 l 1
 40 110 l 1xeb50
 40 100 l 1
 20 100 l 1xec90
 20 110 l 1
 30 110 l 1
 30 120 l 1
 70 120 l 1
 70 110 l 1
 80 110 l 1xeb50
 80 100 l 1
 60 100 l 1xed20
EndSplineSet
Validated: 1
EndChar

StartChar: uni1EC9
Encoding: 367 7881 194
Width: 110
GlyphClass: 2
Flags: MW
HStem: 0 20<20 40 60 80 20 40> 70 20<20 50 20 40> 110 10<40 60 40 60 40 70>
VStem: 40 20<20 70 70 70 110 120>
LayerCount: 2
Fore
SplineSet
40 110 m 1
 40 120 l 1
 60 120 l 1
 60 110 l 1
 40 110 l 1
60 100 m 1
 60 110 l 1
 70 110 l 1
 70 100 l 1
 60 100 l 1
20 70 m 1
 20 90 l 1
 50 90 l 1
 50 100 l 1
 60 100 l 1
 60 20 l 1
 80 20 l 1
 80 0 l 1
 20 0 l 1
 20 20 l 1
 40 20 l 1
 40 70 l 1
 20 70 l 1
EndSplineSet
Validated: 5
EndChar

StartChar: uni1ECB
Encoding: 369 7883 195
Width: 110
GlyphClass: 2
Flags: MW
HStem: -10 10<40 60 40 60> 10 20<20 40 60 80 20 40> 70 20<20 60 20 40> 100 20<40 60 40 60>
VStem: 40 20<-10 0 -10 0 30 70 70 70 100 120>
LayerCount: 2
Fore
SplineSet
20 70 m 1
 20 90 l 1
 60 90 l 1
 60 30 l 1
 80 30 l 1
 80 10 l 1
 20 10 l 1
 20 30 l 1
 40 30 l 1
 40 70 l 1
 20 70 l 1
40 100 m 1
 40 120 l 1
 60 120 l 1
 60 100 l 1
 40 100 l 1
40 -10 m 1
 40 0 l 1
 60 0 l 1
 60 -10 l 1
 40 -10 l 1
EndSplineSet
Validated: 1
EndChar

StartChar: uni1ECD
Encoding: 371 7885 196
Width: 110
GlyphClass: 2
Flags: MW
HStem: -10 10<40 60 40 60> 10 20<30 70 30 80 20 70> 80 10 80 20<30 70 30 30>
VStem: 10 20<30 30 30 80> 40 20<-10 0 -10 0> 70 20<30 80 80 80>
CounterMasks: 1 0e
LayerCount: 2
Fore
SplineSet
30 30 m 1x5a
 70 30 l 1
 70 80 l 1
 30 80 l 1
 30 30 l 1x5a
10 20 m 1
 10 90 l 1
 20 90 l 1
 20 100 l 1x5a
 80 100 l 1
 80 90 l 1
 90 90 l 1x6a
 90 20 l 1
 80 20 l 1
 80 10 l 1
 20 10 l 1
 20 20 l 1
 10 20 l 1
40 -10 m 1xde
 40 0 l 1
 60 0 l 1
 60 -10 l 1
 40 -10 l 1xde
EndSplineSet
Validated: 1
EndChar

StartChar: uni1ECF
Encoding: 373 7887 197
Width: 110
GlyphClass: 2
Flags: MW
HStem: 0 20<30 70 30 80 20 70> 10 10 70 10 70 20<30 70 30 30> 110 10<40 60 40 60 40 70>
VStem: 10 20<20 20 20 70> 50 10<90 100 90 100> 70 20<20 70 70 70>
LayerCount: 2
Fore
SplineSet
30 20 m 1x9f
 70 20 l 1
 70 70 l 1
 30 70 l 1
 30 20 l 1x9f
10 10 m 1x5f
 10 80 l 1
 20 80 l 1x6f
 20 90 l 1
 80 90 l 1x9f
 80 80 l 1
 90 80 l 1
 90 10 l 1
 80 10 l 1x6f
 80 0 l 1
 20 0 l 1x9f
 20 10 l 1
 10 10 l 1x5f
40 110 m 1
 40 120 l 1
 60 120 l 1
 60 110 l 1
 40 110 l 1
60 100 m 1
 60 110 l 1
 70 110 l 1
 70 100 l 1
 60 100 l 1
50 90 m 1x9f
 50 100 l 1
 60 100 l 1
 60 90 l 1
 50 90 l 1x9f
EndSplineSet
Validated: 5
EndChar

StartChar: uni1ED1
Encoding: 375 7889 198
Width: 110
GlyphClass: 2
Flags: MW
HStem: 0 20<30 70 30 80 20 70> 10 10 70 10 70 20<30 70 30 30> 100 20<10 20 0 50 40 40 40 50 10 60 80 90> 110 10<0 50 10 50 20 20 20 40 10 60 90 90 90 100>
VStem: 10 20<20 70 20 80 20 80> 40 10<100 120 110 120> 70 20<20 70 70 70 100 110>
LayerCount: 2
Fore
SplineSet
70 20 m 1x9780
 70 70 l 1
 30 70 l 1
 30 20 l 1
 70 20 l 1x9780
90 10 m 1x6780
 80 10 l 1x5b80
 80 0 l 1
 20 0 l 1x9780
 20 10 l 1
 10 10 l 1
 10 80 l 1
 20 80 l 1x6780
 20 90 l 1
 80 90 l 1x9780
 80 80 l 1
 90 80 l 1
 90 10 l 1x6780
20 100 m 1
 0 100 l 1x9b80
 0 110 l 1
 10 110 l 1
 10 120 l 1
 50 120 l 1
 50 110 l 1
 60 110 l 1x9780
 60 100 l 1
 40 100 l 1x9b80
 40 110 l 1
 20 110 l 1x9780
 20 100 l 1
70 100 m 1
 70 110 l 1
 80 110 l 1
 80 120 l 1
 100 120 l 1
 100 110 l 1
 90 110 l 1x9780
 90 100 l 1
 70 100 l 1
EndSplineSet
Validated: 1
EndChar

StartChar: uni1ED3
Encoding: 377 7891 199
Width: 110
GlyphClass: 2
Flags: MW
HStem: 0 20<30 70 30 80 20 70> 10 10 70 10 70 20<30 70 30 30> 100 10<20 30 0 10 40 50 90 100> 110 10<0 10 0 20 0 30 60 80 60 60>
VStem: 10 20<20 20 20 70 100 110> 50 10<100 120> 70 20<20 70 70 70>
LayerCount: 2
Fore
SplineSet
30 20 m 1x9b80
 70 20 l 1
 70 70 l 1
 30 70 l 1
 30 20 l 1x9b80
10 10 m 1x5b80
 10 80 l 1
 20 80 l 1x6b80
 20 90 l 1
 80 90 l 1x9b80
 80 80 l 1
 90 80 l 1
 90 10 l 1
 80 10 l 1x6b80
 80 0 l 1
 20 0 l 1x9b80
 20 10 l 1
 10 10 l 1x5b80
80 100 m 1
 80 110 l 1
 60 110 l 1
 60 100 l 1
 40 100 l 1x9b80
 40 110 l 1
 50 110 l 1
 50 120 l 1
 90 120 l 1x9780
 90 110 l 1
 100 110 l 1
 100 100 l 1
 80 100 l 1
30 100 m 1
 10 100 l 1x9b80
 10 110 l 1
 0 110 l 1
 0 120 l 1
 20 120 l 1x9780
 20 110 l 1
 30 110 l 1
 30 100 l 1
EndSplineSet
Validated: 1
EndChar

StartChar: uni1ED5
Encoding: 379 7893 200
Width: 110
GlyphClass: 2
Flags: MW
HStem: 0 20<30 70 30 80 20 70> 10 10 70 10 70 20<30 70 30 30> 110 10<0 50 10 50 20 40 20 20 10 60 70 90>
VStem: 10 20<20 20 20 70> 40 10<100 120 110 120> 70 20<20 70 70 70 110 120>
LayerCount: 2
Fore
SplineSet
30 20 m 1x9f
 70 20 l 1
 70 70 l 1
 30 70 l 1
 30 20 l 1x9f
10 10 m 1x5f
 10 80 l 1
 20 80 l 1x6f
 20 90 l 1
 80 90 l 1x9f
 80 80 l 1
 90 80 l 1
 90 10 l 1
 80 10 l 1x6f
 80 0 l 1
 20 0 l 1x9f
 20 10 l 1
 10 10 l 1x5f
40 100 m 1
 40 110 l 1
 20 110 l 1
 20 100 l 1
 0 100 l 1
 0 110 l 1
 10 110 l 1
 10 120 l 1
 50 120 l 1
 50 110 l 1
 60 110 l 1
 60 100 l 1
 40 100 l 1
70 110 m 1
 70 120 l 1
 90 120 l 1
 90 110 l 1
 70 110 l 1
90 100 m 1
 90 110 l 1
 100 110 l 1
 100 100 l 1
 90 100 l 1
80 90 m 1x9f
 80 100 l 1
 90 100 l 1
 90 90 l 1
 80 90 l 1x9f
EndSplineSet
Validated: 5
EndChar

StartChar: uni1ED6
Encoding: 380 7894 201
Width: 110
GlyphClass: 2
Flags: MW
HStem: 0 20<40 70> 10 10<20 20 90 90> 50 20<10 80 20 80 40 70 40 40 30 100> 80 10<30 40 30 50 30 40 70 80> 110 10<20 60 30 60 40 50 40 40 30 70 80 80 80 90>
VStem: 30 10<30 30 40 40 90 90 110 110> 40 10<80 100 100 110> 70 10<30 30 40 40 90 90 100 100 110 110>
CounterMasks: 1 0058
LayerCount: 2
Fore
SplineSet
40 20 m 1xbd
 70 20 l 1
 70 30 l 1
 80 30 l 1
 80 40 l 1
 70 40 l 1
 70 50 l 1
 40 50 l 1
 40 40 l 1
 30 40 l 1
 30 30 l 1
 40 30 l 1
 40 20 l 1xbd
10 20 m 1
 10 50 l 1
 20 50 l 1
 20 60 l 1
 30 60 l 1
 30 70 l 1
 80 70 l 1
 80 60 l 1
 90 60 l 1
 90 50 l 1
 100 50 l 1
 100 20 l 1
 90 20 l 1
 90 10 l 1
 80 10 l 1x7d
 80 0 l 1
 30 0 l 1xbd
 30 10 l 1
 20 10 l 1x7d
 20 20 l 1
 10 20 l 1
60 80 m 1
 60 90 l 1
 50 90 l 1
 50 80 l 1xbb
 30 80 l 1
 30 90 l 1xbd
 40 90 l 1
 40 100 l 1
 50 100 l 1
 50 110 l 1xbb
 40 110 l 1
 40 100 l 1
 20 100 l 1
 20 110 l 1
 30 110 l 1
 30 120 l 1
 60 120 l 1
 60 110 l 1
 70 110 l 1
 70 120 l 1
 90 120 l 1
 90 110 l 1
 80 110 l 1
 80 100 l 1
 70 100 l 1
 70 90 l 1
 80 90 l 1
 80 80 l 1
 60 80 l 1
EndSplineSet
Validated: 5
EndChar

StartChar: uni1ED9
Encoding: 383 7897 202
Width: 110
GlyphClass: 2
Flags: MW
HStem: -10 10<40 60 40 60> 10 20<30 70 30 80 20 70> 70 10 70 20<30 70 30 30> 100 20<30 40 20 70 60 70 30 80 60 60> 110 10<20 70 30 70 40 60 40 40 30 80>
VStem: 10 20<30 30 30 70> 40 20<-10 0 -10 0 100 110> 60 10<110 110> 70 20<30 70 70 70>
CounterMasks: 1 03d0
LayerCount: 2
Fore
SplineSet
30 30 m 1xdb40
 70 30 l 1
 70 70 l 1
 30 70 l 1
 30 30 l 1xdb40
10 20 m 1
 10 80 l 1
 20 80 l 1xeb40
 20 90 l 1
 80 90 l 1xdb40
 80 80 l 1
 90 80 l 1xeb40
 90 20 l 1
 80 20 l 1
 80 10 l 1
 20 10 l 1
 20 20 l 1
 10 20 l 1
40 -10 m 1
 40 0 l 1
 60 0 l 1
 60 -10 l 1
 40 -10 l 1
60 100 m 1xda80
 60 110 l 1
 40 110 l 1xd740
 40 100 l 1
 20 100 l 1xdb40
 20 110 l 1
 30 110 l 1
 30 120 l 1
 70 120 l 1
 70 110 l 1
 80 110 l 1xd740
 80 100 l 1
 60 100 l 1xda80
EndSplineSet
Validated: 1
EndChar

StartChar: uni1EDB
Encoding: 385 7899 203
Width: 110
GlyphClass: 2
Flags: MW
HStem: 0 20<30 70 30 80 20 70> 10 10 70 10<70 70> 70 20<30 70 30 30> 100 10<30 50 30 50 30 60> 110 10<30 80 50 80 60 60 60 80>
VStem: 10 20<20 20 20 70> 50 10<100 120> 70 20<20 70 10 70 10 90 10 80>
LayerCount: 2
Fore
SplineSet
10 10 m 1x5b80
 10 80 l 1
 20 80 l 1xab80
 20 90 l 1
 70 90 l 1x9b80
 70 80 l 1
 80 80 l 1xab80
 80 100 l 1
 100 100 l 1
 100 70 l 1
 90 70 l 1
 90 10 l 1
 80 10 l 1x5b80
 80 0 l 1
 20 0 l 1x9b80
 20 10 l 1
 10 10 l 1x5b80
30 20 m 1
 70 20 l 1
 70 70 l 1
 30 70 l 1
 30 20 l 1
30 100 m 1x9b80
 30 110 l 1
 50 110 l 1
 50 120 l 1
 80 120 l 1x9780
 80 110 l 1
 60 110 l 1
 60 100 l 1
 30 100 l 1x9b80
EndSplineSet
Validated: 1
EndChar

StartChar: uni1EDD
Encoding: 387 7901 204
Width: 110
GlyphClass: 2
Flags: MW
HStem: 0 20<30 70 30 80 20 70> 10 10 70 10<70 70> 70 20<30 70 30 30> 100 10<50 70 20 40> 110 10<20 40 20 50 20 70>
VStem: 10 20<20 20 20 70> 40 10<100 120 110 120> 70 20<20 70 10 70 10 90 10 80>
LayerCount: 2
Fore
SplineSet
10 10 m 1x5b80
 10 80 l 1
 20 80 l 1xab80
 20 90 l 1
 70 90 l 1x9b80
 70 80 l 1
 80 80 l 1xab80
 80 100 l 1
 100 100 l 1
 100 70 l 1
 90 70 l 1
 90 10 l 1
 80 10 l 1x5b80
 80 0 l 1
 20 0 l 1x9b80
 20 10 l 1
 10 10 l 1x5b80
30 20 m 1
 70 20 l 1
 70 70 l 1
 30 70 l 1
 30 20 l 1
70 100 m 1
 40 100 l 1x9b80
 40 110 l 1
 20 110 l 1
 20 120 l 1
 50 120 l 1x9780
 50 110 l 1
 70 110 l 1
 70 100 l 1
EndSplineSet
Validated: 1
EndChar

StartChar: uni1EDF
Encoding: 389 7903 205
Width: 110
GlyphClass: 2
Flags: MW
HStem: 0 20<30 70 30 80 20 70> 10 10 70 10<70 70> 70 20<30 70 30 30> 110 10<40 60 40 60 40 70>
VStem: 10 20<20 20 20 70> 50 10<90 100 90 100> 70 20<20 70 10 70 10 90 10 80>
LayerCount: 2
Fore
SplineSet
10 10 m 1x5f
 10 80 l 1
 20 80 l 1xaf
 20 90 l 1
 70 90 l 1x9f
 70 80 l 1
 80 80 l 1xaf
 80 100 l 1
 100 100 l 1
 100 70 l 1
 90 70 l 1
 90 10 l 1
 80 10 l 1x5f
 80 0 l 1
 20 0 l 1x9f
 20 10 l 1
 10 10 l 1x5f
30 20 m 1
 70 20 l 1
 70 70 l 1
 30 70 l 1
 30 20 l 1
40 110 m 1
 40 120 l 1
 60 120 l 1
 60 110 l 1
 40 110 l 1
60 100 m 1
 60 110 l 1
 70 110 l 1
 70 100 l 1
 60 100 l 1
50 90 m 1x9f
 50 100 l 1
 60 100 l 1
 60 90 l 1
 50 90 l 1x9f
EndSplineSet
Validated: 5
EndChar

StartChar: uni1EE3
Encoding: 393 7907 206
Width: 110
GlyphClass: 2
Flags: MW
HStem: -10 10<40 60 40 60> 10 20<30 70 30 80 20 70> 80 10<70 70> 80 20<30 70 30 30>
VStem: 10 20<30 30 30 80> 40 20<-10 0 -10 0> 70 20<30 80 20 80 20 100 20 90>
LayerCount: 2
Fore
SplineSet
10 20 m 1xde
 10 90 l 1
 20 90 l 1xee
 20 100 l 1
 70 100 l 1xde
 70 90 l 1
 80 90 l 1xee
 80 110 l 1
 100 110 l 1
 100 80 l 1
 90 80 l 1
 90 20 l 1
 80 20 l 1
 80 10 l 1
 20 10 l 1
 20 20 l 1
 10 20 l 1xde
30 30 m 1
 70 30 l 1
 70 80 l 1
 30 80 l 1
 30 30 l 1
40 -10 m 1
 40 0 l 1
 60 0 l 1
 60 -10 l 1
 40 -10 l 1
EndSplineSet
Validated: 1
EndChar

StartChar: uni1EE7
Encoding: 397 7911 207
Width: 110
GlyphClass: 2
Flags: MW
HStem: 0 20<30 60 30 60 20 60 30 90 30 70> 10 10<30 70 30 60> 90 10<40 50 40 50> 110 10<30 50 30 50 30 60>
VStem: 10 20<20 90 20 90 20 90> 70 20<0 10 10 10 30 90 0 90>
LayerCount: 2
Fore
SplineSet
10 90 m 1x7c
 30 90 l 1
 30 20 l 1
 60 20 l 1
 60 30 l 1
 70 30 l 1
 70 90 l 1
 90 90 l 1
 90 0 l 1
 70 0 l 1xbc
 70 10 l 1
 60 10 l 1x7c
 60 0 l 1
 20 0 l 1xbc
 20 10 l 1
 10 10 l 1
 10 90 l 1x7c
30 110 m 1
 30 120 l 1
 50 120 l 1
 50 110 l 1
 30 110 l 1
50 100 m 1
 50 110 l 1
 60 110 l 1
 60 100 l 1
 50 100 l 1
40 90 m 1
 40 100 l 1
 50 100 l 1
 50 90 l 1
 40 90 l 1
EndSplineSet
Validated: 5
EndChar

StartChar: uni1EE9
Encoding: 399 7913 208
Width: 110
GlyphClass: 2
Flags: MW
HStem: 0 20<20 50 20 50 10 50 20 80 20 60> 10 10<20 60 20 50> 70 10<80 100 80 90> 70 20 100 10<20 40 20 40 20 50> 110 10<20 70 40 70 50 50 50 70>
VStem: 0 20<20 90 20 90 20 90> 40 10<110 110> 60 20<0 10 10 10 30 90 0 90> 90 10<60 100 80 100 70 100>
LayerCount: 2
Fore
SplineSet
0 90 m 1x57c0
 20 90 l 1
 20 20 l 1
 50 20 l 1
 50 30 l 1
 60 30 l 1
 60 90 l 1
 80 90 l 1
 80 0 l 1
 60 0 l 1x9bc0
 60 10 l 1
 50 10 l 1x57c0
 50 0 l 1
 10 0 l 1x97c0
 10 10 l 1
 0 10 l 1
 0 90 l 1x57c0
80 60 m 1
 80 80 l 1
 90 80 l 1xabc0
 90 100 l 1
 100 100 l 1
 100 70 l 1
 90 70 l 1
 90 60 l 1
 80 60 l 1
20 100 m 1x9bc0
 20 110 l 1
 40 110 l 1
 40 120 l 1
 70 120 l 1x97c0
 70 110 l 1
 50 110 l 1
 50 100 l 1
 20 100 l 1x9bc0
EndSplineSet
Validated: 5
EndChar

StartChar: uni1EED
Encoding: 403 7917 209
Width: 110
GlyphClass: 2
Flags: MW
HStem: 0 20<20 50 20 50 10 50 20 80 20 60> 10 10<20 60 20 50> 70 10<80 100 80 90> 70 20 90 10<40 50 40 50> 110 10<30 50 30 50 30 60>
VStem: 0 20<20 90 20 90 20 90> 40 10<90 100> 60 20<0 10 10 10 30 90 0 90 0 100 0 110> 90 10<60 100 80 100 70 100>
LayerCount: 2
Fore
SplineSet
0 90 m 1x6fc0
 20 90 l 1
 20 20 l 1
 50 20 l 1
 50 30 l 1
 60 30 l 1
 60 90 l 1
 80 90 l 1
 80 0 l 1
 60 0 l 1xafc0
 60 10 l 1
 50 10 l 1x6fc0
 50 0 l 1
 10 0 l 1xafc0
 10 10 l 1
 0 10 l 1
 0 90 l 1x6fc0
80 60 m 1
 80 80 l 1
 90 80 l 1
 90 100 l 1
 100 100 l 1xafc0
 100 70 l 1
 90 70 l 1x97c0
 90 60 l 1
 80 60 l 1
30 110 m 1
 30 120 l 1
 50 120 l 1
 50 110 l 1
 30 110 l 1
50 100 m 1
 50 110 l 1
 60 110 l 1
 60 100 l 1
 50 100 l 1
40 90 m 1
 40 100 l 1
 50 100 l 1
 50 90 l 1
 40 90 l 1
EndSplineSet
Validated: 5
EndChar

StartChar: uni1EEF
Encoding: 405 7919 210
Width: 110
GlyphClass: 2
Flags: MW
HStem: 0 20<20 50 20 50 10 50 20 80 20 60> 10 10<20 60 20 50> 70 10<80 100 80 90> 70 20 100 20<20 30 10 50 40 50 60 70 40 40> 110 10<10 50 20 50 30 40 30 30 20 60 70 70 70 80>
VStem: 0 20<20 90 20 90 20 90> 20 10<100 120> 60 20<0 10 10 10 30 90 0 90 110 120> 90 10<60 100 80 100 70 100>
LayerCount: 2
Fore
SplineSet
0 90 m 1x56c0
 20 90 l 1
 20 20 l 1
 50 20 l 1
 50 30 l 1
 60 30 l 1
 60 90 l 1
 80 90 l 1
 80 0 l 1
 60 0 l 1x9ac0
 60 10 l 1
 50 10 l 1x56c0
 50 0 l 1
 10 0 l 1x96c0
 10 10 l 1
 0 10 l 1
 0 90 l 1x56c0
80 60 m 1
 80 80 l 1
 90 80 l 1xaac0
 90 100 l 1
 100 100 l 1
 100 70 l 1
 90 70 l 1
 90 60 l 1
 80 60 l 1
40 100 m 1x9ac0
 40 110 l 1
 30 110 l 1x95c0
 30 100 l 1
 10 100 l 1x99c0
 10 110 l 1
 20 110 l 1
 20 120 l 1
 50 120 l 1
 50 110 l 1
 60 110 l 1
 60 120 l 1
 80 120 l 1
 80 110 l 1
 70 110 l 1x96c0
 70 100 l 1
 40 100 l 1x9ac0
EndSplineSet
Validated: 5
EndChar

StartChar: uni1EF1
Encoding: 407 7921 211
Width: 110
GlyphClass: 2
Flags: MW
HStem: -10 10<30 50 30 50> 10 20<20 50 20 50 10 50 20 80 20 60> 70 10<80 100 80 90> 70 20
VStem: 0 20<30 90 30 90 30 90> 30 20<-10 0 -10 0> 60 20<10 20 20 20 40 90 10 90> 90 10<60 100 80 100 70 100>
LayerCount: 2
Fore
SplineSet
0 90 m 1xdf
 20 90 l 1
 20 30 l 1
 50 30 l 1
 50 40 l 1
 60 40 l 1
 60 90 l 1
 80 90 l 1
 80 10 l 1
 60 10 l 1
 60 20 l 1
 50 20 l 1
 50 10 l 1
 10 10 l 1
 10 20 l 1
 0 20 l 1
 0 90 l 1xdf
80 60 m 1
 80 80 l 1
 90 80 l 1xef
 90 100 l 1
 100 100 l 1
 100 70 l 1
 90 70 l 1
 90 60 l 1
 80 60 l 1
30 -10 m 1
 30 0 l 1
 50 0 l 1
 50 -10 l 1
 30 -10 l 1
EndSplineSet
Validated: 5
EndChar

StartChar: ellipsis
Encoding: 416 8230 212
Width: 110
GlyphClass: 2
Flags: MW
HStem: 60 20<0 20 0 20 40 60 80 100>
VStem: 0 20<60 80 60 80> 40 20<60 80 60 80> 80 20<60 80 60 80>
CounterMasks: 1 70
LayerCount: 2
Fore
SplineSet
0 60 m 1
 0 80 l 1
 20 80 l 1
 20 60 l 1
 0 60 l 1
40 60 m 1xf0
 40 80 l 1
 60 80 l 1
 60 60 l 1
 40 60 l 1xf0
80 60 m 1xd0
 80 80 l 1
 100 80 l 1
 100 60 l 1
 80 60 l 1xd0
EndSplineSet
Validated: 1
EndChar

StartChar: uni2070
Encoding: 417 8304 213
Width: 110
GlyphClass: 2
Flags: MW
HStem: 50 20<40 60 40 70 30 60> 100 10 100 20<40 60 40 40>
VStem: 20 20<70 70 70 100> 60 20<70 100 100 100>
CounterMasks: 1 e0
LayerCount: 2
Fore
SplineSet
40 70 m 1xb8
 60 70 l 1
 60 100 l 1
 40 100 l 1
 40 70 l 1xb8
20 60 m 1
 20 110 l 1
 30 110 l 1xd8
 30 120 l 1
 70 120 l 1xb8
 70 110 l 1
 80 110 l 1xd8
 80 60 l 1
 70 60 l 1
 70 50 l 1
 30 50 l 1
 30 60 l 1
 20 60 l 1
EndSplineSet
Validated: 1
AlternateSubs2: "'ssty' Math Script Style lookup 4 subtable" zero.superior.ssty zero.superior.ssty2
AlternateSubs2: "'aalt' Access All Alternates lookup 1 subtable" zero.superior.ssty zero.superior.ssty2
EndChar

StartChar: uni2074
Encoding: 418 8308 214
Width: 110
GlyphClass: 2
Flags: MW
HStem: 51 69<50 70 50 50> 60 20<40 50 40 50 70 80> 60 30<20 30 20 50 20 30> 100 20<40 70 40 50>
VStem: 30 10<90 100 80 110> 50 20<51 60 51 60 80 100 100 100>
LayerCount: 2
Fore
SplineSet
40 100 m 1x5c
 40 80 l 1
 50 80 l 1
 50 100 l 1
 40 100 l 1x5c
30 90 m 1x3c
 30 110 l 1
 40 110 l 1
 40 120 l 1
 70 120 l 1
 70 80 l 1
 80 80 l 1
 80 60 l 1
 70 60 l 1x5c
 70 51 l 1
 50 51 l 1x8c
 50 60 l 1
 20 60 l 1
 20 90 l 1
 30 90 l 1x3c
EndSplineSet
Validated: 1
AlternateSubs2: "'ssty' Math Script Style lookup 4 subtable" four.superior.ssty four.superior.ssty2
AlternateSubs2: "'aalt' Access All Alternates lookup 1 subtable" four.superior.ssty four.superior.ssty2
EndChar

StartChar: uni2075
Encoding: 419 8309 215
Width: 110
GlyphClass: 2
Flags: MW
HStem: 50 20<20 60 20 70 20 60> 80 10<40 60 40 80> 100 20<40 80 40 40>
VStem: 20 20<90 100 90 120> 60 10<80 80>
LayerCount: 2
Fore
SplineSet
20 70 m 1
 60 70 l 1
 60 80 l 1x58
 20 80 l 1x50
 20 120 l 1x70
 80 120 l 1
 80 100 l 1x78
 40 100 l 1
 40 90 l 1x50
 70 90 l 1
 70 80 l 1
 80 80 l 1x58
 80 60 l 1
 70 60 l 1
 70 50 l 1xd8
 20 50 l 1
 20 70 l 1
EndSplineSet
Validated: 1
AlternateSubs2: "'ssty' Math Script Style lookup 4 subtable" five.superior.ssty five.superior.ssty2
AlternateSubs2: "'aalt' Access All Alternates lookup 1 subtable" five.superior.ssty five.superior.ssty2
EndChar

StartChar: uni2076
Encoding: 420 8310 216
Width: 110
GlyphClass: 2
Flags: MW
HStem: 50 20<40 60 40 70 30 60> 80 10<40 60 40 70 40 80> 100 20<40 70 40 40>
VStem: 20 20<70 70 70 80 90 100> 60 10<80 80>
LayerCount: 2
Fore
SplineSet
70 100 m 1
 40 100 l 1
 40 90 l 1
 70 90 l 1
 70 80 l 1
 80 80 l 1
 80 60 l 1
 70 60 l 1
 70 50 l 1
 30 50 l 1
 30 60 l 1
 20 60 l 1
 20 110 l 1
 30 110 l 1
 30 120 l 1
 70 120 l 1
 70 100 l 1
40 70 m 1
 60 70 l 1
 60 80 l 1
 40 80 l 1
 40 70 l 1
EndSplineSet
Validated: 1
AlternateSubs2: "'ssty' Math Script Style lookup 4 subtable" six.superior.ssty six.superior.ssty2
AlternateSubs2: "'aalt' Access All Alternates lookup 1 subtable" six.superior.ssty six.superior.ssty2
EndChar

StartChar: uni2077
Encoding: 421 8311 217
Width: 110
GlyphClass: 2
Flags: MW
HStem: 50 20<30 40 30 50 30 40> 70 20<30 50 40 50 40 60 40 50> 100 20<10 70 10 50>
VStem: 40 10<50 90>
CounterMasks: 1 38
LayerCount: 2
Fore
SplineSet
10 100 m 1x30
 10 120 l 1
 70 120 l 1
 70 90 l 1
 60 90 l 1x30
 60 70 l 1
 50 70 l 1x70
 50 50 l 1
 30 50 l 1
 30 70 l 1
 40 70 l 1xb0
 40 90 l 1
 50 90 l 1
 50 100 l 1
 10 100 l 1x30
EndSplineSet
Validated: 1
AlternateSubs2: "'ssty' Math Script Style lookup 4 subtable" seven.superior.ssty seven.superior.ssty2
AlternateSubs2: "'aalt' Access All Alternates lookup 1 subtable" seven.superior.ssty seven.superior.ssty2
EndChar

StartChar: uni2078
Encoding: 422 8312 218
Width: 110
GlyphClass: 2
Flags: MW
HStem: 50 20<40 60 40 70 30 60> 60 20<20 30 20 30 70 80> 80 10<20 30 20 30 40 60 70 80> 90 20<20 30 20 30 20 60 70 80> 100 20<40 60 40 40>
VStem: 30 10<80 80 90 90> 60 10<80 80 90 90>
LayerCount: 2
Fore
SplineSet
20 60 m 1x4e
 20 80 l 1
 30 80 l 1xae
 30 90 l 1
 20 90 l 1
 20 110 l 1
 30 110 l 1x96
 30 120 l 1
 70 120 l 1xae
 70 110 l 1
 80 110 l 1x96
 80 90 l 1
 70 90 l 1xae
 70 80 l 1
 80 80 l 1
 80 60 l 1
 70 60 l 1x4e
 70 50 l 1
 30 50 l 1xae
 30 60 l 1
 20 60 l 1x4e
40 90 m 1
 60 90 l 1
 60 100 l 1
 40 100 l 1
 40 90 l 1
40 70 m 1
 60 70 l 1
 60 80 l 1
 40 80 l 1
 40 70 l 1
EndSplineSet
Validated: 1
AlternateSubs2: "'ssty' Math Script Style lookup 4 subtable" eight.superior.ssty eight.superior.ssty2
AlternateSubs2: "'aalt' Access All Alternates lookup 1 subtable" eight.superior.ssty eight.superior.ssty2
EndChar

StartChar: uni2079
Encoding: 423 8313 219
Width: 110
GlyphClass: 2
Flags: MW
HStem: 50 20<30 60 30 70 30 60> 80 10<40 60 20 30> 100 10 100 20<40 60 40 40>
VStem: 30 10<80 100 90 100> 60 20<70 80 80 80 90 100 100 100>
CounterMasks: 1 e0
LayerCount: 2
Fore
SplineSet
30 70 m 1xec
 60 70 l 1
 60 80 l 1
 30 80 l 1
 30 90 l 1
 20 90 l 1
 20 110 l 1
 30 110 l 1xec
 30 120 l 1
 70 120 l 1xdc
 70 110 l 1
 80 110 l 1
 80 60 l 1
 70 60 l 1
 70 50 l 1
 30 50 l 1
 30 70 l 1xec
60 100 m 1
 40 100 l 1
 40 90 l 1
 60 90 l 1
 60 100 l 1
EndSplineSet
Validated: 1
AlternateSubs2: "'ssty' Math Script Style lookup 4 subtable" nine.superior.ssty nine.superior.ssty2
AlternateSubs2: "'aalt' Access All Alternates lookup 1 subtable" nine.superior.ssty nine.superior.ssty2
EndChar

StartChar: uni2080
Encoding: 424 8320 220
Width: 110
GlyphClass: 2
Flags: MW
HStem: 100 10<30 60 30 40> 100 20<40 60 10 40>
VStem: 10 20<50 90 110 120> 60 20<50 100 100 100>
LayerCount: 2
Fore
SplineSet
80 50 m 1xb0
 60 50 l 1xb0
 60 100 l 1x70
 40 100 l 1
 40 90 l 1
 30 90 l 1
 30 50 l 1
 10 50 l 1
 10 120 l 1
 30 120 l 1
 30 110 l 1
 40 110 l 1
 40 120 l 1x60
 70 120 l 1
 70 110 l 1
 80 110 l 1
 80 50 l 1xb0
EndSplineSet
Validated: 1
AlternateSubs2: "'ssty' Math Script Style lookup 4 subtable" zero.inferior.ssty zero.inferior.ssty2
AlternateSubs2: "'aalt' Access All Alternates lookup 1 subtable" zero.inferior.ssty zero.inferior.ssty2
EndChar

StartChar: uni2081
Encoding: 425 8321 221
Width: 110
GlyphClass: 2
Flags: MW
HStem: -9 21G<40 60 40 40> 30 20<20 40 20 40>
VStem: 40 20<-9 30 30 30 50 60 -9 60>
LayerCount: 2
Fore
SplineSet
20 30 m 1
 20 50 l 1
 40 50 l 1
 40 60 l 1
 60 60 l 1
 60 -9 l 1
 40 -9 l 1
 40 30 l 1
 20 30 l 1
EndSplineSet
Validated: 1
AlternateSubs2: "'ssty' Math Script Style lookup 4 subtable" one.inferior.ssty one.inferior.ssty2
AlternateSubs2: "'aalt' Access All Alternates lookup 1 subtable" one.inferior.ssty one.inferior.ssty2
EndChar

StartChar: uni2082
Encoding: 426 8322 222
Width: 110
GlyphClass: 2
Flags: MW
HStem: -10 20<20 30 50 80 20 30> 20 10<30 60 40 60 50 60 40 70 50 50> 40 20<20 70 20 60>
VStem: 40 10<10 30> 60 10<20 40>
CounterMasks: 1 e0
LayerCount: 2
Fore
SplineSet
20 40 m 1
 20 60 l 1
 70 60 l 1
 70 50 l 1
 80 50 l 1xa8
 80 30 l 1
 70 30 l 1
 70 20 l 1xc8
 50 20 l 1
 50 10 l 1x98
 80 10 l 1
 80 -10 l 1
 20 -10 l 1x88
 20 10 l 1
 30 10 l 1
 30 20 l 1
 40 20 l 1
 40 30 l 1xd8
 60 30 l 1
 60 40 l 1
 20 40 l 1
EndSplineSet
Validated: 1
AlternateSubs2: "'ssty' Math Script Style lookup 4 subtable" two.inferior.ssty two.inferior.ssty2
AlternateSubs2: "'aalt' Access All Alternates lookup 1 subtable" two.inferior.ssty two.inferior.ssty2
EndChar

StartChar: uni2083
Encoding: 427 8323 223
Width: 110
GlyphClass: 2
Flags: MW
HStem: -10 20<20 60 20 70 20 60> 20 10<30 60 30 60 70 80> 40 20<20 70 20 60>
VStem: 60 10<20 20 30 30>
CounterMasks: 1 b0
LayerCount: 2
Fore
SplineSet
20 40 m 1
 20 60 l 1
 70 60 l 1
 70 50 l 1
 80 50 l 1
 80 30 l 1
 70 30 l 1
 70 20 l 1
 80 20 l 1x30
 80 0 l 1
 70 0 l 1
 70 -10 l 1
 20 -10 l 1
 20 10 l 1xb0
 60 10 l 1
 60 20 l 1
 30 20 l 1
 30 30 l 1x70
 60 30 l 1
 60 40 l 1
 20 40 l 1
EndSplineSet
Validated: 1
AlternateSubs2: "'ssty' Math Script Style lookup 4 subtable" three.inferior.ssty three.inferior.ssty2
AlternateSubs2: "'aalt' Access All Alternates lookup 1 subtable" three.inferior.ssty three.inferior.ssty2
EndChar

StartChar: uni2084
Encoding: 428 8324 224
Width: 110
GlyphClass: 2
Flags: MW
HStem: -9 29<40 70 40 50> 0 20<40 50 40 50 70 80> 0 30<20 30 20 50 20 30> 40 20<40 70 40 50>
VStem: 30 10<30 40 20 50> 50 20<-9 0 -9 0 20 40 40 40>
CounterMasks: 1 b0
LayerCount: 2
Fore
SplineSet
40 40 m 1x5c
 40 20 l 1
 50 20 l 1
 50 40 l 1
 40 40 l 1x5c
30 30 m 1x3c
 30 50 l 1
 40 50 l 1
 40 60 l 1
 70 60 l 1
 70 20 l 1
 80 20 l 1
 80 0 l 1
 70 0 l 1x5c
 70 -9 l 1
 50 -9 l 1x9c
 50 0 l 1
 20 0 l 1
 20 30 l 1
 30 30 l 1x3c
EndSplineSet
Validated: 1
AlternateSubs2: "'ssty' Math Script Style lookup 4 subtable" four.inferior.ssty four.inferior.ssty2
AlternateSubs2: "'aalt' Access All Alternates lookup 1 subtable" four.inferior.ssty four.inferior.ssty2
EndChar

StartChar: uni2085
Encoding: 429 8325 225
Width: 110
GlyphClass: 2
Flags: MW
HStem: -10 20<20 60 20 70 20 60> 20 10<40 60 40 80> 40 20<40 80 40 40>
VStem: 20 20<30 40 30 60> 60 10<20 20>
LayerCount: 2
Fore
SplineSet
20 10 m 1
 60 10 l 1
 60 20 l 1x78
 20 20 l 1x70
 20 60 l 1x30
 80 60 l 1
 80 40 l 1x38
 40 40 l 1
 40 30 l 1x70
 70 30 l 1
 70 20 l 1
 80 20 l 1x78
 80 0 l 1
 70 0 l 1
 70 -10 l 1xb8
 20 -10 l 1
 20 10 l 1
EndSplineSet
Validated: 1
AlternateSubs2: "'ssty' Math Script Style lookup 4 subtable" five.inferior.ssty five.inferior.ssty2
AlternateSubs2: "'aalt' Access All Alternates lookup 1 subtable" five.inferior.ssty five.inferior.ssty2
EndChar

StartChar: uni2086
Encoding: 430 8326 226
Width: 110
GlyphClass: 2
Flags: MW
HStem: -10 20<40 60 40 70 30 60> 0 10 20 10<40 60 40 70 40 80> 40 20<40 70 40 40>
VStem: 20 20<10 10 10 20 30 40> 60 10<20 20>
LayerCount: 2
Fore
SplineSet
70 40 m 1x7c
 40 40 l 1
 40 30 l 1
 70 30 l 1
 70 20 l 1
 80 20 l 1
 80 0 l 1
 70 0 l 1x7c
 70 -10 l 1
 30 -10 l 1xbc
 30 0 l 1
 20 0 l 1
 20 50 l 1
 30 50 l 1
 30 60 l 1
 70 60 l 1
 70 40 l 1x7c
40 10 m 1
 60 10 l 1
 60 20 l 1
 40 20 l 1
 40 10 l 1
EndSplineSet
Validated: 1
AlternateSubs2: "'ssty' Math Script Style lookup 4 subtable" six.inferior.ssty six.inferior.ssty2
AlternateSubs2: "'aalt' Access All Alternates lookup 1 subtable" six.inferior.ssty six.inferior.ssty2
EndChar

StartChar: uni2087
Encoding: 431 8327 227
Width: 110
GlyphClass: 2
Flags: MW
HStem: -10 20<30 40 30 50 30 40> 10 20<30 50 40 50 40 60 40 50> 40 20<10 70 10 50>
VStem: 40 10<-10 30>
CounterMasks: 1 1c
LayerCount: 2
Fore
SplineSet
10 40 m 1x30
 10 60 l 1
 70 60 l 1
 70 30 l 1
 60 30 l 1x30
 60 10 l 1
 50 10 l 1x70
 50 -10 l 1
 30 -10 l 1
 30 10 l 1
 40 10 l 1xb0
 40 30 l 1
 50 30 l 1
 50 40 l 1
 10 40 l 1x30
EndSplineSet
Validated: 1
AlternateSubs2: "'ssty' Math Script Style lookup 4 subtable" seven.inferior.ssty seven.inferior.ssty2
AlternateSubs2: "'aalt' Access All Alternates lookup 1 subtable" seven.inferior.ssty seven.inferior.ssty2
EndChar

StartChar: uni2088
Encoding: 432 8328 228
Width: 110
GlyphClass: 2
Flags: MW
HStem: -10 20<40 60 40 70 30 60> -10 40<40 60 20 70 20 30> 0 10 0 20<20 30 20 30 70 80> 20 10<20 30 20 30 40 60 70 80> 30 20<20 30 20 30 20 60 70 80> 40 20<40 60 40 40>
VStem: 30 10<20 20 30 30> 60 10<20 20 30 30>
LayerCount: 2
Fore
SplineSet
20 0 m 1x2b80
 20 20 l 1
 30 20 l 1x3380
 30 30 l 1
 20 30 l 1
 20 50 l 1
 30 50 l 1x8580
 30 60 l 1
 70 60 l 1x4380
 70 50 l 1
 80 50 l 1x8580
 80 30 l 1
 70 30 l 1
 70 20 l 1
 80 20 l 1
 80 0 l 1
 70 0 l 1x2b80
 70 -10 l 1
 30 -10 l 1x4380
 30 0 l 1
 20 0 l 1x2b80
40 30 m 1x4380
 60 30 l 1
 60 40 l 1
 40 40 l 1
 40 30 l 1x4380
40 10 m 1x8b80
 60 10 l 1
 60 20 l 1
 40 20 l 1
 40 10 l 1x8b80
EndSplineSet
Validated: 1
AlternateSubs2: "'ssty' Math Script Style lookup 4 subtable" eight.inferior.ssty eight.inferior.ssty2
AlternateSubs2: "'aalt' Access All Alternates lookup 1 subtable" eight.inferior.ssty eight.inferior.ssty2
EndChar

StartChar: uni2089
Encoding: 433 8329 229
Width: 110
GlyphClass: 2
Flags: MW
HStem: -10 20<30 60 30 70 30 60> -10 40<40 60 20 70 20 30> 20 10<40 60 20 30> 40 20<40 60 40 40>
VStem: 30 10<20 40 30 40> 60 20<10 20 20 20 30 40 40 40>
LayerCount: 2
Fore
SplineSet
30 10 m 1xbc
 60 10 l 1
 60 20 l 1
 30 20 l 1xbc
 30 30 l 1
 20 30 l 1x5c
 20 50 l 1
 30 50 l 1
 30 60 l 1
 70 60 l 1
 70 50 l 1
 80 50 l 1
 80 0 l 1
 70 0 l 1
 70 -10 l 1
 30 -10 l 1
 30 10 l 1xbc
60 40 m 1
 40 40 l 1
 40 30 l 1
 60 30 l 1
 60 40 l 1
EndSplineSet
Validated: 1
AlternateSubs2: "'ssty' Math Script Style lookup 4 subtable" nine.inferior.ssty nine.inferior.ssty2
AlternateSubs2: "'aalt' Access All Alternates lookup 1 subtable" nine.inferior.ssty nine.inferior.ssty2
EndChar

StartChar: uni208B
Encoding: 434 8331 230
Width: 110
GlyphClass: 2
Flags: MW
HStem: 20 10<20 70 20 70>
VStem: 20 50<20 30 20 30>
LayerCount: 2
Fore
SplineSet
20 20 m 1
 20 30 l 1
 70 30 l 1
 70 20 l 1
 20 20 l 1
EndSplineSet
Validated: 1
EndChar

StartChar: uni208D
Encoding: 435 8333 231
Width: 110
GlyphClass: 2
Flags: MW
HStem: -10 20<50 70 50 70 40 70> 0 10 40 20<50 70 50 50>
VStem: 30 20<10 40 10 50 10 50>
LayerCount: 2
Fore
SplineSet
70 -10 m 1xb0
 40 -10 l 1
 40 0 l 1
 30 0 l 1x70
 30 50 l 1
 40 50 l 1
 40 60 l 1
 70 60 l 1
 70 40 l 1
 50 40 l 1x30
 50 10 l 1
 70 10 l 1
 70 -10 l 1xb0
EndSplineSet
Validated: 1
EndChar

StartChar: uni208E
Encoding: 436 8334 232
Width: 110
GlyphClass: 2
Flags: MW
HStem: -10 20<40 60 40 60 40 70> 40 20<40 60 40 70>
VStem: 60 20<10 40 40 40>
LayerCount: 2
Fore
SplineSet
40 -10 m 1
 40 10 l 1
 60 10 l 1xe0
 60 40 l 1
 40 40 l 1
 40 60 l 1
 70 60 l 1
 70 50 l 1
 80 50 l 1x60
 80 0 l 1
 70 0 l 1
 70 -10 l 1
 40 -10 l 1
EndSplineSet
Validated: 1
EndChar

StartChar: uni2091
Encoding: 437 8337 233
Width: 110
GlyphClass: 2
Flags: MW
HStem: -10 10<30 70> -10 30<30 50 30 70 20 50> 0 40<10 60 10 60 30 60 20 70 20 70> 10 20<30 50 60 70 10 30> 30 10<10 60 20 60 30 30 30 50 20 70>
VStem: 20 10<-10 10 0 10> 50 20<20 30>
LayerCount: 2
Fore
SplineSet
10 0 m 1x96
 10 30 l 1
 20 30 l 1
 20 40 l 1
 60 40 l 1xa6
 60 30 l 1
 70 30 l 1
 70 10 l 1
 30 10 l 1
 30 0 l 1
 70 0 l 1
 70 -10 l 1
 20 -10 l 1
 20 0 l 1
 10 0 l 1x96
30 20 m 1x4e
 50 20 l 1
 50 30 l 1
 30 30 l 1
 30 20 l 1x4e
EndSplineSet
Validated: 1
AlternateSubs2: "'ssty' Math Script Style lookup 4 subtable" einferior.ssty einferior.ssty2
AlternateSubs2: "'aalt' Access All Alternates lookup 1 subtable" einferior.ssty einferior.ssty2
EndChar

StartChar: uni2095
Encoding: 438 8341 234
Width: 110
GlyphClass: 2
Flags: MW
HStem: -10 10<10 20 10 40 10 20 70 80> 30 10<40 60 40 50 40 70> 50 10<10 20 10 40>
VStem: 20 20<0 30 -10 40 40 50 50 50> 50 20<0 30 0 30 0 30>
LayerCount: 2
Fore
SplineSet
40 30 m 1
 40 -10 l 1
 10 -10 l 1
 10 0 l 1
 20 0 l 1
 20 50 l 1
 10 50 l 1
 10 60 l 1
 40 60 l 1xb0
 40 40 l 1xf0
 60 40 l 1
 60 30 l 1
 70 30 l 1xf8
 70 0 l 1
 80 0 l 1
 80 -10 l 1
 50 -10 l 1xb8
 50 30 l 1
 40 30 l 1
EndSplineSet
Validated: 1
AlternateSubs2: "'ssty' Math Script Style lookup 4 subtable" hinferior.ssty hinferior.ssty2
AlternateSubs2: "'aalt' Access All Alternates lookup 1 subtable" hinferior.ssty hinferior.ssty2
EndChar

StartChar: uni2098
Encoding: 439 8344 235
Width: 110
GlyphClass: 2
Flags: MW
HStem: -10 50<10 20 10 20 0 20 50 60 10 60 10 40 90 100> -10 60<0 10 0 20 0 10 40 50 0 60 40 40 80 80 80 90> 30 20<20 40 0 20 60 80>
VStem: 0 20<-10 30 40 50> 40 20<-10 30> 80 20<-10 30 30 30>
LayerCount: 2
Fore
SplineSet
60 -10 m 1x5c
 40 -10 l 1x5c
 40 30 l 1x3c
 20 30 l 1x34
 20 -10 l 1
 0 -10 l 1x54
 0 50 l 1
 10 50 l 1
 10 40 l 1
 20 40 l 1
 20 50 l 1x34
 50 50 l 1
 50 40 l 1
 60 40 l 1
 60 50 l 1x3c
 90 50 l 1
 90 40 l 1
 100 40 l 1x94
 100 -10 l 1
 80 -10 l 1x54
 80 30 l 1x34
 60 30 l 1x3c
 60 -10 l 1x5c
EndSplineSet
Validated: 1
AlternateSubs2: "'ssty' Math Script Style lookup 4 subtable" minferior.ssty minferior.ssty2
AlternateSubs2: "'aalt' Access All Alternates lookup 1 subtable" minferior.ssty minferior.ssty2
EndChar

StartChar: uni2099
Encoding: 440 8345 236
Width: 110
GlyphClass: 2
Flags: MW
HStem: -10 60<10 30 10 30 60 70 10 80 60 60> 30 20<40 60 10 40>
VStem: 10 20<-10 20 40 50> 60 20<-10 30 30 30>
LayerCount: 2
Fore
SplineSet
80 -10 m 1xb0
 60 -10 l 1xb0
 60 30 l 1x70
 40 30 l 1
 40 20 l 1
 30 20 l 1x60
 30 -10 l 1
 10 -10 l 1xa0
 10 50 l 1
 30 50 l 1
 30 40 l 1
 40 40 l 1
 40 50 l 1x60
 70 50 l 1
 70 40 l 1
 80 40 l 1x70
 80 -10 l 1xb0
EndSplineSet
Validated: 1
AlternateSubs2: "'ssty' Math Script Style lookup 4 subtable" ninferior.ssty ninferior.ssty2
AlternateSubs2: "'aalt' Access All Alternates lookup 1 subtable" ninferior.ssty ninferior.ssty2
EndChar

StartChar: uni209A
Encoding: 441 8346 237
Width: 110
GlyphClass: 2
Flags: MW
HStem: -10 60<20 70 20 40> 0 20<40 60 40 70 40 60> 30 20<40 40 40 60>
VStem: 20 20<-10 0 20 30> 60 10
LayerCount: 2
Fore
SplineSet
40 30 m 1x78
 40 20 l 1
 60 20 l 1
 60 30 l 1
 40 30 l 1x78
20 -10 m 1x98
 20 50 l 1
 70 50 l 1
 70 40 l 1
 80 40 l 1
 80 10 l 1
 70 10 l 1
 70 0 l 1
 40 0 l 1x78
 40 -10 l 1
 20 -10 l 1x98
EndSplineSet
Validated: 1
AlternateSubs2: "'ssty' Math Script Style lookup 4 subtable" pinferior.ssty pinferior.ssty2
AlternateSubs2: "'aalt' Access All Alternates lookup 1 subtable" pinferior.ssty pinferior.ssty2
EndChar

StartChar: uni209C
Encoding: 442 8348 238
Width: 110
GlyphClass: 2
Flags: MW
HStem: -10 10<50 60 30 40> 0 10<50 70 60 70 60 70 60 70> 30 10<20 30 20 30 50 70>
VStem: 30 20<0 30 0 30 40 60> 60 10<-10 10 0 10 0 10>
LayerCount: 2
Fore
SplineSet
70 40 m 1xb8
 70 30 l 1xb8
 50 30 l 1xb0
 50 0 l 1
 60 0 l 1
 60 10 l 1
 70 10 l 1
 70 0 l 1
 60 0 l 1
 60 -10 l 1x98
 40 -10 l 1
 40 0 l 1
 30 0 l 1x50
 30 30 l 1
 20 30 l 1
 20 40 l 1
 30 40 l 1
 30 60 l 1
 50 60 l 1
 50 40 l 1xb0
 70 40 l 1xb8
EndSplineSet
Validated: 5
AlternateSubs2: "'ssty' Math Script Style lookup 4 subtable" tinferior.ssty tinferior.ssty2
AlternateSubs2: "'aalt' Access All Alternates lookup 1 subtable" tinferior.ssty tinferior.ssty2
EndChar

StartChar: uni210E
Encoding: 443 8462 239
Width: 110
GlyphClass: 2
Flags: MW
HStem: 0 21G<10 30 10 10 70 90 70 70> 70 10<30 70 30 40> 70 20<40 70 40 80> 70 50<10 70 10 40>
VStem: 10 20<0 60 80 120> 70 20<0 70 70 70>
LayerCount: 2
Fore
SplineSet
90 0 m 1xac
 70 0 l 1
 70 70 l 1
 40 70 l 1
 40 60 l 1
 30 60 l 1xac
 30 0 l 1
 10 0 l 1
 10 120 l 1
 30 120 l 1x9c
 30 80 l 1
 40 80 l 1
 40 90 l 1xac
 80 90 l 1
 80 80 l 1
 90 80 l 1xcc
 90 0 l 1xac
EndSplineSet
Validated: 1
AlternateSubs2: "'ssty' Math Script Style lookup 4 subtable" planck.ssty planck.ssty2
AlternateSubs2: "'aalt' Access All Alternates lookup 1 subtable" planck.ssty planck.ssty2
EndChar

StartChar: uni210F
Encoding: 444 8463 240
Width: 110
GlyphClass: 2
Flags: MW
HStem: 0 80<0 30 0 10 70 80 70 70> 60 20<40 70> 90 20<30 50 30 60 30 50> 100 20<0 30 10 30 60 60 60 80>
VStem: 10 20<0 50 70 80 80 80 110 120> 50 10 70 20<0 60 60 60>
LayerCount: 2
Fore
SplineSet
0 80 m 1x8a
 0 100 l 1
 10 100 l 1x8a
 10 120 l 1x5a
 30 120 l 1
 30 110 l 1x6a
 50 110 l 1
 50 120 l 1x5e
 80 120 l 1
 80 100 l 1x5a
 60 100 l 1
 60 90 l 1x6e
 30 90 l 1x6a
 30 70 l 1
 40 70 l 1
 40 80 l 1x4e
 80 80 l 1
 80 70 l 1
 90 70 l 1x4a
 90 0 l 1
 70 0 l 1x8a
 70 60 l 1
 40 60 l 1
 40 50 l 1
 30 50 l 1x4a
 30 0 l 1
 10 0 l 1
 10 80 l 1
 0 80 l 1x8a
EndSplineSet
Validated: 1
AlternateSubs2: "'ssty' Math Script Style lookup 4 subtable" plancktwopi.ssty plancktwopi.ssty2
AlternateSubs2: "'aalt' Access All Alternates lookup 1 subtable" plancktwopi.ssty plancktwopi.ssty2
EndChar

StartChar: uni2113
Encoding: 445 8467 241
Width: 110
GlyphClass: 2
Flags: MW
HStem: -10 30<60 70 80 90> 0 20<0 20 0 30 0 20 90 90 90 100> 10 10<70 70 80 80> 40 10<40 60 50 60> 60 10 70 10 100 10<30 50 40 50> 100 20<30 80 40 80 60 60 60 70>
VStem: 20 10<30 30 40 40 80 80> 30 10<30 70 40 70> 50 40<-10 10 -10 10 70 90 70 70> 70 10<10 20 10 20> 80 20<10 20 0 20>
CounterMasks: 1 0150
LayerCount: 2
Fore
SplineSet
30 10 m 1x3960
 30 0 l 1
 0 0 l 1
 0 20 l 1
 20 20 l 1
 20 30 l 1
 30 30 l 1
 30 40 l 1
 20 40 l 1
 20 80 l 1x55a0
 30 80 l 1
 30 100 l 1
 40 100 l 1
 40 110 l 1
 50 110 l 1x5660
 50 120 l 1x5960
 80 120 l 1x5950
 80 110 l 1x5a50
 90 110 l 1
 90 60 l 1x5a60
 80 60 l 1
 80 40 l 1
 70 40 l 1
 70 30 l 1
 60 30 l 1
 60 20 l 1
 70 20 l 1
 70 10 l 1
 80 10 l 1x3950
 80 20 l 1
 100 20 l 1
 100 0 l 1x5948
 90 0 l 1x5960
 90 -10 l 1
 60 -10 l 1x9960
 60 0 l 1
 50 0 l 1x5960
 50 10 l 1
 30 10 l 1x3960
50 70 m 1
 40 70 l 1
 40 40 l 1
 50 40 l 1
 50 50 l 1x5960
 60 50 l 1
 60 70 l 1
 70 70 l 1
 70 100 l 1x5950
 60 100 l 1
 60 90 l 1
 50 90 l 1
 50 70 l 1
EndSplineSet
Validated: 1
AlternateSubs2: "'ssty' Math Script Style lookup 4 subtable" litre.ssty litre.ssty2
AlternateSubs2: "'aalt' Access All Alternates lookup 1 subtable" litre.ssty litre.ssty2
EndChar

StartChar: uni212B
Encoding: 446 8491 242
Width: 110
GlyphClass: 2
Flags: MW
HStem: 0 30<10 20 10 20 10 30 90 100> 20 20<40 70 40 80 30 70> 50 10 50 70<40 50 40 70 60 70 60 60> 70 10 70 20<50 60 30 50> 90 20<30 40 30 40 30 60 70 80> 100 20<50 60 50 50>
VStem: 20 10<60 60> 40 10<40 70> 60 10<40 70> 80 10<30 80 30 60>
LayerCount: 2
Fore
SplineSet
60 90 m 1x65f0
 60 100 l 1
 50 100 l 1
 50 90 l 1
 60 90 l 1x65f0
70 40 m 1
 70 50 l 1
 60 50 l 1x50f0
 60 70 l 1
 50 70 l 1x65f0
 50 50 l 1
 40 50 l 1x50f0
 40 40 l 1
 70 40 l 1
10 0 m 1xa5f0
 10 30 l 1
 20 30 l 1
 20 60 l 1
 30 60 l 1
 30 80 l 1
 40 80 l 1
 40 90 l 1
 30 90 l 1
 30 110 l 1
 40 110 l 1xaaf0
 40 120 l 1
 70 120 l 1x65f0
 70 110 l 1
 80 110 l 1x6af0
 80 90 l 1
 70 90 l 1x65f0
 70 80 l 1
 80 80 l 1
 80 60 l 1
 90 60 l 1
 90 30 l 1
 100 30 l 1
 100 0 l 1
 80 0 l 1xa9f0
 80 20 l 1
 30 20 l 1x65f0
 30 0 l 1
 10 0 l 1xa5f0
EndSplineSet
Validated: 1
AlternateSubs2: "'ssty' Math Script Style lookup 4 subtable" angstrom.ssty angstrom.ssty2
AlternateSubs2: "'aalt' Access All Alternates lookup 1 subtable" angstrom.ssty angstrom.ssty2
EndChar

StartChar: arrowright
Encoding: 447 8594 243
Width: 110
GlyphClass: 2
Flags: MW
HStem: 50 20<0 60 0 60 90 100>
VStem: 60 10<20 30 20 50 90 100>
LayerCount: 2
Fore
SplineSet
0 50 m 1
 0 70 l 1
 60 70 l 1
 60 100 l 1
 70 100 l 1
 70 90 l 1
 80 90 l 1
 80 80 l 1
 90 80 l 1
 90 70 l 1
 100 70 l 1
 100 50 l 1
 90 50 l 1
 90 40 l 1
 80 40 l 1
 80 30 l 1
 70 30 l 1
 70 20 l 1
 60 20 l 1
 60 50 l 1
 0 50 l 1
EndSplineSet
Validated: 1
AlternateSubs2: "'ssty' Math Script Style lookup 4 subtable" arrowright.ssty arrowright.ssty2
AlternateSubs2: "'aalt' Access All Alternates lookup 1 subtable" arrowright.ssty arrowright.ssty2
EndChar

StartChar: uni21BA
Encoding: 448 8634 244
Width: 110
GlyphClass: 2
Flags: MW
HStem: 10 20<40 70 40 80 30 70> 50 10<30 50 30 50> 80 10<10 30 20 30> 80 20<0 20 0 20 40 70 40 40>
VStem: 0 10<80 100 80 100 80 100> 20 10<10 40> 30 10<70 70> 80 20<10 80 40 70 70 70 30 90 30 100>
LayerCount: 2
Fore
SplineSet
30 20 m 1xab
 20 20 l 1
 20 40 l 1x9d
 40 40 l 1
 40 30 l 1
 70 30 l 1
 70 40 l 1
 80 40 l 1
 80 70 l 1
 70 70 l 1
 70 80 l 1x9b
 40 80 l 1
 40 70 l 1
 30 70 l 1
 30 60 l 1
 50 60 l 1
 50 50 l 1xdd
 0 50 l 1xd9
 0 100 l 1
 10 100 l 1x99
 10 80 l 1
 20 80 l 1
 20 90 l 1
 30 90 l 1
 30 100 l 1x9b
 80 100 l 1
 80 90 l 1
 90 90 l 1
 90 80 l 1
 100 80 l 1
 100 30 l 1
 90 30 l 1
 90 20 l 1
 80 20 l 1
 80 10 l 1
 30 10 l 1
 30 20 l 1xab
EndSplineSet
Validated: 1
EndChar

StartChar: arrowdblright
Encoding: 449 8658 245
Width: 110
GlyphClass: 2
Flags: MW
HStem: 20 10<60 70 60 70> 40 10<10 70 10 90 80 80 80 90> 70 10<10 70 80 90 10 70> 70 20<60 70 70 80 60 90>
VStem: 70 10<20 40 30 40 30 40 80 90> 90 10<40 70 50 70 50 70 50 80 50 70>
LayerCount: 2
Fore
SplineSet
70 40 m 1xdc
 10 40 l 1
 10 50 l 1xdc
 90 50 l 1xd4
 90 70 l 1x94
 10 70 l 1
 10 80 l 1
 70 80 l 1
 70 90 l 1
 60 90 l 1
 60 100 l 1
 70 100 l 1
 70 90 l 1
 80 90 l 1
 80 80 l 1
 90 80 l 1
 90 70 l 1
 100 70 l 1xa4
 100 50 l 1
 90 50 l 1
 90 40 l 1
 80 40 l 1
 80 30 l 1
 70 30 l 1
 70 20 l 1
 60 20 l 1
 60 30 l 1
 70 30 l 1
 70 40 l 1xdc
EndSplineSet
Validated: 5
AlternateSubs2: "'ssty' Math Script Style lookup 4 subtable" arrowdblright.ssty arrowdblright.ssty2
AlternateSubs2: "'aalt' Access All Alternates lookup 1 subtable" arrowdblright.ssty arrowdblright.ssty2
EndChar

StartChar: uni21E9
Encoding: 450 8681 246
Width: 110
GlyphClass: 2
Flags: MW
HStem: 40 10<20 30 10 20 80 90> 100 10<40 70 40 40>
VStem: 10 10<50 60> 30 10<30 40 70 100> 70 10<20 40 30 40 30 40 70 100 100 100> 90 10<40 70 50 60 60 60>
LayerCount: 2
Fore
SplineSet
20 50 m 1
 10 50 l 1
 10 70 l 1
 30 70 l 1
 30 110 l 1
 80 110 l 1
 80 70 l 1
 100 70 l 1xfc
 100 50 l 1
 90 50 l 1
 90 40 l 1
 80 40 l 1
 80 30 l 1
 70 30 l 1
 70 20 l 1
 60 20 l 1
 60 10 l 1
 50 10 l 1
 50 20 l 1
 40 20 l 1
 40 30 l 1
 30 30 l 1
 30 40 l 1
 20 40 l 1
 20 50 l 1
20 60 m 1
 20 50 l 1
 30 50 l 1
 30 40 l 1
 40 40 l 1
 40 30 l 1
 50 30 l 1
 50 20 l 1
 60 20 l 1
 60 30 l 1
 70 30 l 1
 70 40 l 1
 80 40 l 1
 80 50 l 1
 90 50 l 1
 90 60 l 1
 70 60 l 1
 70 100 l 1
 40 100 l 1
 40 60 l 1
 20 60 l 1
EndSplineSet
Validated: 5
AlternateSubs2: "'ssty' Math Script Style lookup 4 subtable" whitearrowdown.ssty whitearrowdown.ssty2
AlternateSubs2: "'aalt' Access All Alternates lookup 1 subtable" whitearrowdown.ssty whitearrowdown.ssty2
EndChar

StartChar: product
Encoding: 451 8719 247
Width: 110
GlyphClass: 2
Flags: MW
IsExtendedShape: 1
GlyphVariantsVertical: product product.v1
HStem: 0 20<0 10 0 10 30 40 60 70 90 100> 100 20<0 10 0 100 30 30 30 70 90 90 90 100>
VStem: 10 20<20 100 20 100> 70 20<20 100 20 100>
LayerCount: 2
Fore
SplineSet
0 0 m 1
 0 20 l 1
 10 20 l 1
 10 100 l 1
 0 100 l 1
 0 120 l 1
 100 120 l 1
 100 100 l 1
 90 100 l 1
 90 20 l 1
 100 20 l 1
 100 0 l 1
 60 0 l 1
 60 20 l 1
 70 20 l 1
 70 100 l 1
 30 100 l 1
 30 20 l 1
 40 20 l 1
 40 0 l 1
 0 0 l 1
EndSplineSet
Validated: 1
EndChar

StartChar: summation
Encoding: 452 8721 248
Width: 110
GlyphClass: 2
Flags: MW
IsExtendedShape: 1
GlyphVariantsVertical: summation summation.v1
HStem: -10 20<0 10 0 10 40 80> 50 10<40 50 40 50 70 80> 100 20<0 10 0 100 40 40 40 80>
VStem: 30 10<40 40 70 70> 80 20<10 20 -10 20 90 100 100 100>
LayerCount: 2
Fore
SplineSet
0 -10 m 1
 0 10 l 1
 10 10 l 1
 10 20 l 1
 20 20 l 1
 20 30 l 1
 30 30 l 1
 30 40 l 1
 40 40 l 1
 40 50 l 1
 50 50 l 1
 50 60 l 1
 40 60 l 1
 40 70 l 1
 30 70 l 1
 30 80 l 1
 20 80 l 1
 20 90 l 1
 10 90 l 1
 10 100 l 1
 0 100 l 1
 0 120 l 1
 100 120 l 1
 100 90 l 1
 80 90 l 1
 80 100 l 1
 40 100 l 1
 40 90 l 1
 50 90 l 1
 50 80 l 1
 60 80 l 1
 60 70 l 1
 70 70 l 1
 70 60 l 1
 80 60 l 1
 80 50 l 1
 70 50 l 1
 70 40 l 1
 60 40 l 1
 60 30 l 1
 50 30 l 1
 50 20 l 1
 40 20 l 1
 40 10 l 1
 80 10 l 1
 80 20 l 1
 100 20 l 1
 100 -10 l 1
 0 -10 l 1
EndSplineSet
Validated: 1
EndChar

StartChar: minus
Encoding: 453 8722 249
Width: 110
GlyphClass: 2
Flags: MW
HStem: 50 20<0 100 0 100>
VStem: 0 100<50 70 50 70>
LayerCount: 2
Fore
SplineSet
0 50 m 1
 0 70 l 1
 100 70 l 1
 100 50 l 1
 0 50 l 1
EndSplineSet
Validated: 1
EndChar

StartChar: radical
Encoding: 454 8730 250
Width: 110
GlyphClass: 2
Flags: MW
IsExtendedShape: 1
GlyphVariantsVertical: radical radical.v1 radical.v2 radical.v3 radical.v4 radical.v5 radical.v6 radical.v7 radical.v8
GlyphCompositionVertical: 3  uni23B7%0,0,40,190 radical.ex%1,40,40,40 radical.tp%0,0,0,100
HStem: 0 30<40 50 40 50 30 50> 20 10<40 60 40 50> 70 10<0 30 0 10> 110 10<70 100 70 70>
VStem: 20 10<0 50> 30 20<0 20 0 20 50 80 50 50> 50 10<0 70 30 70 20 80> 60 10<20 110 80 110 70 120>
LayerCount: 2
Fore
SplineSet
0 70 m 1x7a
 0 80 l 1
 30 80 l 1
 30 50 l 1
 40 50 l 1xba
 40 30 l 1
 50 30 l 1x92
 50 80 l 1
 60 80 l 1xb1
 60 120 l 1
 100 120 l 1
 100 110 l 1
 70 110 l 1x91
 70 70 l 1
 60 70 l 1xb2
 60 20 l 1
 50 20 l 1x54
 50 0 l 1
 30 0 l 1x94
 30 20 l 1
 20 20 l 1
 20 50 l 1
 10 50 l 1
 10 70 l 1
 0 70 l 1x7a
EndSplineSet
Validated: 1
Substitution2: "'ss01' Style Set 1 lookup 3 subtable" radical.v2
Substitution2: "'aalt' Access All Alternates lookup 0 subtable" radical.v2
EndChar

StartChar: uni221B
Encoding: 455 8731 251
Width: 220
GlyphClass: 2
Flags: W
HStem: 0 21G<140 160> 50 20<20 60> 60 20<70 80> 70 10<110 120> 80 10<30 60> 90 20<70 80> 100 20<20 60> 110 10<180 210>
VStem: 60 20<70 80 90 100> 120 20<50 70> 130 20<30 50> 140 20<0 20> 160 10<30 70> 170 10<80 110>
LayerCount: 2
Fore
SplineSet
20 100 m 1xca80
 20 120 l 1xca80
 70 120 l 1x8180
 70 110 l 1
 80 110 l 1
 80 90 l 1
 70 90 l 1
 70 80 l 1
 80 80 l 1
 80 60 l 1
 70 60 l 1xa480
 70 50 l 1
 20 50 l 1
 20 70 l 1
 60 70 l 1
 60 80 l 1
 30 80 l 1
 30 90 l 1
 60 90 l 1
 60 100 l 1
 20 100 l 1xca80
110 70 m 1x90c0
 110 80 l 1x90c0
 140 80 l 1x8890
 140 50 l 1xc8c0
 150 50 l 1
 150 30 l 1
 160 30 l 1
 160 80 l 1xc8a8
 170 80 l 1xc884
 170 120 l 1
 210 120 l 1
 210 110 l 1
 180 110 l 1
 180 70 l 1x9184
 170 70 l 1x9188
 170 20 l 1
 160 20 l 1
 160 0 l 1
 140 0 l 1
 140 20 l 1x9194
 130 20 l 1
 130 50 l 1xc0a0
 120 50 l 1xc0c0
 120 70 l 1
 110 70 l 1x90c0
EndSplineSet
Validated: 1
EndChar

StartChar: angle
Encoding: 456 8736 252
Width: 110
GlyphClass: 2
Flags: MW
HStem: 0 20<0 10 0 10 40 100> 80 10<60 80 70 80 90 100>
VStem: 30 10<50 50> 40 10<20 40> 80 10<60 80 90 100>
LayerCount: 2
Fore
SplineSet
0 0 m 1xe8
 0 20 l 1
 10 20 l 1
 10 30 l 1
 20 30 l 1
 20 40 l 1
 30 40 l 1
 30 50 l 1
 40 50 l 1
 40 60 l 1
 50 60 l 1
 50 70 l 1
 60 70 l 1
 60 80 l 1
 70 80 l 1
 70 90 l 1
 80 90 l 1
 80 100 l 1
 90 100 l 1
 90 90 l 1
 100 90 l 1
 100 80 l 1
 90 80 l 1
 90 70 l 1
 80 70 l 1
 80 60 l 1
 70 60 l 1
 70 50 l 1
 60 50 l 1
 60 40 l 1
 50 40 l 1
 50 30 l 1
 40 30 l 1
 40 20 l 1
 100 20 l 1
 100 0 l 1xd8
 0 0 l 1xe8
EndSplineSet
Validated: 1
EndChar

StartChar: integral
Encoding: 457 8747 253
Width: 110
GlyphClass: 2
Flags: MW
IsExtendedShape: 1
GlyphVariantsVertical: integral integral.v1 integral.v2 integral.v3 integral.v4
HStem: -10 10<30 40> 0 10<10 30 10 20 10 40> 100 20<80 90 60 100 80 80> 110 10<50 90 60 90 70 70 70 80 60 100>
VStem: 20 10<-10 10 0 10> 50 10<-10 60 0 110> 80 10<100 120 110 120>
LayerCount: 2
Fore
SplineSet
10 0 m 1x94
 10 10 l 1x5c
 30 10 l 1
 30 0 l 1
 40 0 l 1
 40 60 l 1
 50 60 l 1
 50 110 l 1
 60 110 l 1
 60 120 l 1x94
 90 120 l 1
 90 110 l 1
 100 110 l 1
 100 100 l 1xa6
 80 100 l 1
 80 110 l 1
 70 110 l 1x96
 70 60 l 1
 60 60 l 1
 60 0 l 1
 50 0 l 1
 50 -10 l 1
 20 -10 l 1
 20 0 l 1
 10 0 l 1x94
EndSplineSet
Validated: 1
EndChar

StartChar: notequal
Encoding: 458 8800 254
Width: 110
GlyphClass: 2
Flags: MW
HStem: 0 50<30 40 0 50 30 30> 30 20<0 40 0 30 0 50 60 100> 70 20<0 40 0 50 0 60 70 100> 70 50<0 70 60 60 60 70 50 100>
VStem: 30 20<0 30 0 30> 50 20<90 120 90 120>
LayerCount: 2
Fore
SplineSet
0 30 m 1x68
 0 50 l 1
 40 50 l 1xa8
 40 70 l 1
 0 70 l 1
 0 90 l 1x28
 50 90 l 1x24
 50 120 l 1
 70 120 l 1x14
 70 90 l 1
 100 90 l 1
 100 70 l 1
 60 70 l 1x24
 60 50 l 1
 100 50 l 1xa4
 100 30 l 1x64
 50 30 l 1x68
 50 0 l 1
 30 0 l 1xa8
 30 30 l 1
 0 30 l 1x68
EndSplineSet
Validated: 1
EndChar

StartChar: lessequal
Encoding: 459 8804 255
Width: 110
GlyphClass: 2
Flags: MW
HStem: 0 20<10 100> 0 50<30 50 80 100> 40 10<30 72 30 50> 50 10<10 50 10 30> 60 10<40 80> 60 30<10 30 10 30 60 80> 80 10<60 60> 90 10<10 50 30 50> 100 10<30 70 50 70> 100 20<80 80 80 100>
VStem: 10 90<0 20 0 20 0 90 0 90> 30 10 50 10 72 8
LayerCount: 2
Fore
SplineSet
10 20 m 1xaa60
 10 0 l 1
 100 0 l 1
 100 20 l 1
 10 20 l 1xaa60
100 50 m 1x4a60
 100 30 l 1x4a60
 72 30 l 1
 72 40 l 1
 50 40 l 1xaa5c
 50 50 l 1
 30 50 l 1
 30 60 l 1x925c
 10 60 l 1
 10 90 l 1xa460
 30 90 l 1
 30 100 l 1
 50 100 l 1
 50 110 l 1
 70 110 l 1xaa9c
 70 120 l 1
 100 120 l 1
 100 100 l 1xaa60
 80 100 l 1xa91c
 80 90 l 1
 60 90 l 1
 60 80 l 1
 40 80 l 1
 40 70 l 1
 60 70 l 1xaa5c
 60 60 l 1
 80 60 l 1
 80 50 l 1x925c
 100 50 l 1x4a60
EndSplineSet
Validated: 9
EndChar

StartChar: greaterequal
Encoding: 460 8805 256
Width: 110
GlyphClass: 2
Flags: MW
HStem: 0 20<10 100 10 100> 40 10<10 60 10 38> 50 10<10 50 30 50> 60 10<30 70 50 70> 60 30<30 50 30 50 80 100> 80 10<30 70 30 50> 90 10<10 50 10 30> 100 10<40 80> 100 20<10 30 10 40>
VStem: 10 90<0 20 0 20 0 50 0 50 0 120> 30 8 50 10 70 10
LayerCount: 2
Fore
SplineSet
10 0 m 1xd540
 100 0 l 1
 100 20 l 1
 10 20 l 1
 10 0 l 1xd540
38 30 m 1xd538
 10 30 l 1
 10 50 l 1xd540
 30 50 l 1
 30 60 l 1
 50 60 l 1
 50 70 l 1
 70 70 l 1
 70 80 l 1
 50 80 l 1xd538
 50 90 l 1
 30 90 l 1
 30 100 l 1xd238
 10 100 l 1
 10 120 l 1
 40 120 l 1xd4c0
 40 110 l 1
 60 110 l 1xd538
 60 100 l 1
 80 100 l 1
 80 90 l 1xd238
 100 90 l 1
 100 60 l 1xc940
 80 60 l 1xa538
 80 50 l 1
 60 50 l 1
 60 40 l 1
 38 40 l 1
 38 30 l 1xd538
EndSplineSet
Validated: 9
EndChar

StartChar: dotmath
Encoding: 461 8901 257
Width: 110
GlyphClass: 2
Flags: MW
HStem: 50 20<30 40 30 40 60 70>
VStem: 40 20<40 50 40 50 70 80>
LayerCount: 2
Fore
SplineSet
30 70 m 1
 40 70 l 1
 40 80 l 1
 60 80 l 1
 60 70 l 1
 70 70 l 1
 70 50 l 1
 60 50 l 1
 60 40 l 1
 40 40 l 1
 40 50 l 1
 30 50 l 1
 30 70 l 1
EndSplineSet
Validated: 1
EndChar

StartChar: uni239B
Encoding: 462 9115 258
Width: 110
GlyphClass: 2
Flags: MW
HStem: 0 21G<20 40 20 20> 200 10<40 70 50 70 60 70 60 60>
VStem: 20 20<0 170 0 170>
LayerCount: 2
Fore
SplineSet
70 210 m 1
 70 200 l 1
 60 200 l 1
 60 190 l 1
 50 190 l 1
 50 170 l 1
 40 170 l 1
 40 0 l 1
 20 0 l 1
 20 170 l 1
 30 170 l 1
 30 190 l 1
 40 190 l 1
 40 200 l 1
 50 200 l 1
 50 210 l 1
 70 210 l 1
EndSplineSet
Validated: 1
EndChar

StartChar: uni239C
Encoding: 463 9116 259
Width: 110
GlyphClass: 2
Flags: MW
HStem: 0 21G<20 20 20 40> 70 20G<20 40 40 40>
VStem: 20 20<0 90 0 90>
LayerCount: 2
Fore
SplineSet
20 0 m 1
 20 90 l 1
 40 90 l 1
 40 0 l 1
 20 0 l 1
EndSplineSet
Validated: 1
EndChar

StartChar: uni239D
Encoding: 464 9117 260
Width: 110
GlyphClass: 2
Flags: MW
HStem: 0 10<60 70 40 50> 40 170<20 30 20 40 20 50 20 50>
VStem: 20 20<40 210>
LayerCount: 2
Fore
SplineSet
70 0 m 1
 50 0 l 1
 50 10 l 1
 40 10 l 1
 40 20 l 1
 30 20 l 1xa0
 30 40 l 1
 20 40 l 1
 20 210 l 1
 40 210 l 1xe0
 40 40 l 1
 50 40 l 1
 50 20 l 1
 60 20 l 1
 60 10 l 1
 70 10 l 1
 70 0 l 1
EndSplineSet
Validated: 1
EndChar

StartChar: uni239E
Encoding: 465 9118 261
Width: 110
GlyphClass: 2
Flags: MW
HStem: 0 21G<70 90 70 70> 200 10<40 50 40 60 40 70>
VStem: 70 20<0 170 0 170>
LayerCount: 2
Fore
SplineSet
40 210 m 1
 60 210 l 1
 60 200 l 1
 70 200 l 1
 70 190 l 1
 80 190 l 1
 80 170 l 1
 90 170 l 1
 90 0 l 1
 70 0 l 1
 70 170 l 1
 60 170 l 1
 60 190 l 1
 50 190 l 1
 50 200 l 1
 40 200 l 1
 40 210 l 1
EndSplineSet
Validated: 1
EndChar

StartChar: uni239F
Encoding: 466 9119 262
Width: 110
GlyphClass: 2
Flags: MW
HStem: 0 21G<70 70 70 90> 70 20G<70 90 90 90>
VStem: 70 20<0 90 0 90>
LayerCount: 2
Fore
SplineSet
70 0 m 1
 70 90 l 1
 90 90 l 1
 90 0 l 1
 70 0 l 1
EndSplineSet
Validated: 1
EndChar

StartChar: uni23A0
Encoding: 467 9120 263
Width: 110
GlyphClass: 2
Flags: MW
HStem: 0 10<40 50 40 50 40 60> 40 170<60 90 70 90 80 80 80 90>
VStem: 70 20<40 210 40 210>
LayerCount: 2
Fore
SplineSet
40 0 m 1
 40 10 l 1
 50 10 l 1
 50 20 l 1
 60 20 l 1
 60 40 l 1
 70 40 l 1xa0
 70 210 l 1
 90 210 l 1
 90 40 l 1
 80 40 l 1xe0
 80 20 l 1
 70 20 l 1
 70 10 l 1
 60 10 l 1
 60 0 l 1
 40 0 l 1
EndSplineSet
Validated: 1
EndChar

StartChar: uni23B7
Encoding: 468 9143 264
Width: 90
GlyphClass: 2
Flags: W
HStem: 0 21G<60 70> 60 20<30 40> 70 20<40 50>
VStem: 30 10<60 70> 40 10<80 90> 50 20<30 70> 60 10<0 30 70 130> 70 10<130 190>
LayerCount: 2
Fore
SplineSet
70 130 m 1x82
 70 190 l 1
 80 190 l 1
 80 130 l 1x81
 70 130 l 1x82
70 130 m 1xa2
 70 0 l 1
 60 0 l 1
 60 30 l 1xa2
 50 30 l 1
 50 70 l 1
 40 70 l 1xb4
 40 60 l 1
 30 60 l 1
 30 80 l 1xd4
 40 80 l 1xc8
 40 83 l 0
 40 90 l 1
 50 90 l 1xa8
 50 70 l 1xa4
 60 70 l 1
 60 130 l 1
 70 130 l 1xa2
EndSplineSet
Validated: 5
EndChar

StartChar: uni251C
Encoding: 469 9500 265
Width: 110
GlyphClass: 2
Flags: MW
HStem: -10 21G<50 60 50 50> 50 10<60 110 60 110> 100 20G<50 60 60 60>
VStem: 50 10<-10 50 60 120>
LayerCount: 2
Fore
SplineSet
50 120 m 1
 60 120 l 1
 60 60 l 1
 110 60 l 1
 110 50 l 1
 60 50 l 1
 60 -10 l 1
 50 -10 l 1
 50 120 l 1
EndSplineSet
Validated: 1
EndChar

StartChar: uni2524
Encoding: 470 9508 266
Width: 110
GlyphClass: 2
Flags: MW
HStem: -10 21G<50 60 50 50> 50 10<0 50 0 50> 100 20G<50 60 60 60>
VStem: 50 10<-10 50 50 50 60 120 -10 120>
LayerCount: 2
Fore
SplineSet
60 120 m 1
 60 -10 l 1
 50 -10 l 1
 50 50 l 1
 0 50 l 1
 0 60 l 1
 50 60 l 1
 50 120 l 1
 60 120 l 1
EndSplineSet
Validated: 1
EndChar

StartChar: uni252C
Encoding: 471 9516 267
Width: 110
GlyphClass: 2
Flags: MW
HStem: -10 70<50 50 50 60> 50 10<0 50 0 110 60 60 60 110>
VStem: 50 10<-10 50 -10 50>
LayerCount: 2
Fore
SplineSet
50 -10 m 1xa0
 50 50 l 1
 0 50 l 1
 0 60 l 1
 110 60 l 1
 110 50 l 1
 60 50 l 1x60
 60 -10 l 1
 50 -10 l 1xa0
EndSplineSet
Validated: 1
EndChar

StartChar: uni2534
Encoding: 472 9524 268
Width: 110
GlyphClass: 2
Flags: MW
HStem: 50 10<0 50 60 110 0 50> 50 70<50 60 50 110 0 60>
VStem: 50 10<60 120 60 120>
LayerCount: 2
Fore
SplineSet
50 120 m 1x60
 60 120 l 1x60
 60 60 l 1
 110 60 l 1
 110 50 l 1
 0 50 l 1
 0 60 l 1
 50 60 l 1xa0
 50 120 l 1x60
EndSplineSet
Validated: 1
EndChar

StartChar: block
Encoding: 473 9608 269
Width: 110
GlyphClass: 2
Flags: MW
HStem: -10 21G<0 0 0 100> 100 20G<0 100 100 100>
VStem: 0 100<-10 120 -10 120>
LayerCount: 2
Fore
SplineSet
0 -10 m 1
 0 120 l 1
 100 120 l 1
 100 -10 l 1
 0 -10 l 1
EndSplineSet
Validated: 1
AlternateSubs2: "'ssty' Math Script Style lookup 4 subtable" block.ssty block.ssty2
AlternateSubs2: "'aalt' Access All Alternates lookup 1 subtable" block.ssty block.ssty2
EndChar

StartChar: shade
Encoding: 474 9618 270
Width: 110
GlyphClass: 2
Flags: MW
HStem: 0 10<0 10 0 10 10 20 0 10 20 30 30 40 40 50 50 60 60 70 70 80 80 90 90 100> 0 30<0 10 0 10 10 20 0 10 20 30 0 30 30 40 0 30 40 50 50 60 60 70 70 80 80 90 90 100> 10 10<0 10 0 10 10 20 20 30 30 40 40 50 50 60 60 70 70 80 80 90 90 100> 20 10<0 10 0 10 10 20 0 10 20 30 30 40 40 50 50 60 60 70 70 80 80 90 90 100> 30 30<0 10 0 10 10 20 0 20 20 30 0 20 30 40 40 50 50 60 60 70 70 80 80 90 90 100> 40 30<0 10 0 10 10 20 0 10 20 30 0 30 30 40 0 30 40 50 50 60 60 70 70 80 80 90 90 100> 50 30<0 10 0 10 10 20 0 20 20 30 0 20 30 40 40 50 50 60 60 70 70 80 80 90 90 100> 80 10<0 10 0 10 10 20 0 10 20 30 30 40 40 50 50 60 60 70 70 80 80 90 90 100> 90 10<0 10 0 10 10 20 20 30 30 40 40 50 50 60 60 70 70 80 80 90 90 100> 90 30<0 10 0 10 0 20 0 20 20 30 0 20 0 40 40 50 60 70 80 90> 110 10<0 10 0 10 0 20 20 30 40 50 60 70 80 90>
VStem: 0 10<-10 0 -10 0 10 20 30 40 50 60 70 80 90 100 110 120> 10 10<-10 0 -10 0 0 10 10 20 20 30 30 40 40 50 50 60 60 70 70 80 80 90 90 100 100 110 110 120> 20 10<-10 0 -10 0 0 10 -10 0 10 20 20 30 30 40 40 50 50 60 60 70 70 80 80 90 90 100 100 110 110 120> 30 10<-10 0 -10 0 0 10 10 20 20 30 30 40 40 50 50 60 60 70 70 80 80 90 90 100 100 110 110 120> 40 10<-10 0 -10 0 0 10 -10 0 10 20 20 30 30 40 40 50 50 60 60 70 70 80 80 90 90 100 100 110 110 120> 50 10<-10 0 -10 0 0 10 10 20 20 30 30 40 40 50 50 60 60 70 70 80 80 90 90 100 100 110 110 120> 60 10<-10 0 -10 0 0 10 -10 0 10 20 20 30 30 40 40 50 50 60 60 70 70 80 80 90 90 100 100 110 110 120> 70 10<-10 0 -10 0 0 10 10 20 20 30 30 40 40 50 50 60 60 70 70 80 80 90 90 100 100 110 110 120> 90 10<-10 10 0 10 0 10 0 20 0 10 20 30 40 50 60 70 80 90 100 110>
LayerCount: 2
Fore
SplineSet
10 90 m 1x953550
 0 90 l 1
 0 100 l 1
 10 100 l 1
 10 110 l 1
 0 110 l 1
 0 120 l 1
 10 120 l 1
 10 110 l 1
 20 110 l 1
 20 120 l 1
 30 120 l 1
 30 110 l 1
 40 110 l 1
 40 120 l 1
 50 120 l 1
 50 110 l 1
 60 110 l 1
 60 120 l 1x955950
 70 120 l 1
 70 110 l 1
 80 110 l 1
 80 120 l 1
 90 120 l 1
 90 110 l 1
 100 110 l 1
 100 100 l 1
 90 100 l 1x94b530
 90 90 l 1
 100 90 l 1
 100 80 l 1
 90 80 l 1
 90 70 l 1
 100 70 l 1x953550
 100 60 l 1
 90 60 l 1x893550
 90 50 l 1
 100 50 l 1x925550
 100 40 l 1
 90 40 l 1
 90 30 l 1
 100 30 l 1
 100 20 l 1
 90 20 l 1
 90 10 l 1
 100 10 l 1
 100 0 l 1
 90 0 l 1
 90 -10 l 1
 80 -10 l 1
 80 0 l 1x953530
 70 0 l 1
 70 -10 l 1
 60 -10 l 1
 60 0 l 1
 50 0 l 1
 50 -10 l 1
 40 -10 l 1
 40 0 l 1
 30 0 l 1
 30 -10 l 1
 20 -10 l 1
 20 0 l 1
 10 0 l 1
 10 -10 l 1
 0 -10 l 1
 0 0 l 1
 10 0 l 1
 10 10 l 1
 0 10 l 1
 0 20 l 1
 10 20 l 1x953550
 10 30 l 1
 0 30 l 1
 0 40 l 1
 10 40 l 1x453550
 10 50 l 1
 0 50 l 1x925550
 0 60 l 1
 10 60 l 1x893550
 10 70 l 1
 0 70 l 1
 0 80 l 1
 10 80 l 1
 10 90 l 1x953550
20 20 m 1
 10 20 l 1
 10 10 l 1
 20 10 l 1
 20 0 l 1
 30 0 l 1
 30 10 l 1
 40 10 l 1
 40 0 l 1
 50 0 l 1
 50 10 l 1
 60 10 l 1
 60 0 l 1x353550
 70 0 l 1
 70 10 l 1
 80 10 l 1
 80 0 l 1
 90 0 l 1
 90 10 l 1
 80 10 l 1
 80 20 l 1
 90 20 l 1x953530
 90 30 l 1
 80 30 l 1
 80 40 l 1
 90 40 l 1x453530
 90 50 l 1
 80 50 l 1x925530
 80 60 l 1
 90 60 l 1x893530
 90 70 l 1
 80 70 l 1
 80 80 l 1
 90 80 l 1x953530
 90 90 l 1
 80 90 l 1
 80 100 l 1
 90 100 l 1
 90 110 l 1
 80 110 l 1
 80 100 l 1x94b530
 70 100 l 1
 70 110 l 1
 60 110 l 1
 60 100 l 1
 50 100 l 1
 50 110 l 1
 40 110 l 1
 40 100 l 1
 30 100 l 1
 30 110 l 1x94b550
 20 110 l 1
 20 100 l 1
 10 100 l 1x94a950
 10 90 l 1
 20 90 l 1
 20 80 l 1
 10 80 l 1
 10 70 l 1
 20 70 l 1x952950
 20 60 l 1
 10 60 l 1x892950
 10 50 l 1
 20 50 l 1x924950
 20 40 l 1
 10 40 l 1
 10 30 l 1
 20 30 l 1
 20 20 l 1
20 10 m 1
 20 20 l 1
 30 20 l 1xa53550
 30 30 l 1
 20 30 l 1
 20 40 l 1
 30 40 l 1x453550
 30 50 l 1
 20 50 l 1x925550
 20 60 l 1
 30 60 l 1x893550
 30 70 l 1
 20 70 l 1
 20 80 l 1
 30 80 l 1x953550
 30 90 l 1
 20 90 l 1
 20 100 l 1
 30 100 l 1
 30 90 l 1
 40 90 l 1
 40 100 l 1
 50 100 l 1
 50 90 l 1
 60 90 l 1
 60 100 l 1
 70 100 l 1x94b550
 70 90 l 1
 80 90 l 1
 80 80 l 1
 70 80 l 1
 70 70 l 1
 80 70 l 1x953530
 80 60 l 1
 70 60 l 1x893530
 70 50 l 1
 80 50 l 1x925530
 80 40 l 1
 70 40 l 1
 70 30 l 1
 80 30 l 1
 80 20 l 1x953530
 70 20 l 1
 70 10 l 1
 60 10 l 1
 60 20 l 1
 50 20 l 1
 50 10 l 1
 40 10 l 1
 40 20 l 1
 30 20 l 1
 30 10 l 1
 20 10 l 1
30 30 m 1x893550
 40 30 l 1
 40 20 l 1
 50 20 l 1
 50 30 l 1
 60 30 l 1
 60 20 l 1
 70 20 l 1x893650
 70 30 l 1
 60 30 l 1
 60 40 l 1
 70 40 l 1x453550
 70 50 l 1
 60 50 l 1x925550
 60 60 l 1
 70 60 l 1x893550
 70 70 l 1
 60 70 l 1
 60 80 l 1
 70 80 l 1
 70 90 l 1
 60 90 l 1
 60 80 l 1
 50 80 l 1
 50 90 l 1x953550
 40 90 l 1
 40 80 l 1
 30 80 l 1
 30 70 l 1
 40 70 l 1x953250
 40 60 l 1
 30 60 l 1x893250
 30 50 l 1
 40 50 l 1x925250
 40 40 l 1
 30 40 l 1x953250
 30 30 l 1x893550
50 60 m 1x893550
 50 70 l 1
 40 70 l 1
 40 80 l 1x953550
 50 80 l 1
 50 70 l 1
 60 70 l 1x9534b0
 60 60 l 1
 50 60 l 1x8934b0
 50 50 l 1
 60 50 l 1x9254b0
 60 40 l 1
 50 40 l 1
 50 30 l 1
 40 30 l 1
 40 40 l 1
 50 40 l 1x453550
 50 50 l 1
 40 50 l 1x925550
 40 60 l 1
 50 60 l 1x893550
EndSplineSet
Validated: 5
AlternateSubs2: "'ssty' Math Script Style lookup 4 subtable" shade.ssty shade.ssty2
AlternateSubs2: "'aalt' Access All Alternates lookup 1 subtable" shade.ssty shade.ssty2
EndChar

StartChar: filledbox
Encoding: 475 9632 271
Width: 110
GlyphClass: 2
Flags: MW
HStem: -10 21G<0 0 0 100> 100 20G<0 100 100 100>
VStem: 0 100<-10 120 -10 120>
LayerCount: 2
Fore
SplineSet
0 -10 m 1
 0 120 l 1
 100 120 l 1
 100 -10 l 1
 0 -10 l 1
EndSplineSet
Validated: 1
AlternateSubs2: "'ssty' Math Script Style lookup 4 subtable" filledbox.ssty filledbox.ssty2
AlternateSubs2: "'aalt' Access All Alternates lookup 1 subtable" filledbox.ssty filledbox.ssty2
EndChar

StartChar: uni25A1
Encoding: 476 9633 272
Width: 110
GlyphClass: 2
Flags: MW
HStem: -10 20<20 80 20 100> 100 20<20 20 20 80>
VStem: 0 20<10 100 10 120> 80 20<10 100 100 100>
LayerCount: 2
Fore
SplineSet
0 120 m 1
 100 120 l 1
 100 -10 l 1
 0 -10 l 1
 0 120 l 1
20 100 m 1
 20 10 l 1
 80 10 l 1
 80 100 l 1
 20 100 l 1
EndSplineSet
Validated: 1
AlternateSubs2: "'ssty' Math Script Style lookup 4 subtable" squarewhite.ssty squarewhite.ssty2
AlternateSubs2: "'aalt' Access All Alternates lookup 1 subtable" squarewhite.ssty squarewhite.ssty2
EndChar

StartChar: triagup
Encoding: 477 9650 273
Width: 110
GlyphClass: 2
Flags: MW
HStem: 20 20<15 25 85 95 15 25>
VStem: 45 20<80 100 80 100>
LayerCount: 2
Fore
SplineSet
25 40 m 1
 25 60 l 1
 35 60 l 1
 35 80 l 1
 45 80 l 1
 45 100 l 1
 65 100 l 1
 65 80 l 1
 75 80 l 1
 75 60 l 1
 85 60 l 1
 85 40 l 1
 95 40 l 1
 95 20 l 1
 15 20 l 1
 15 40 l 1
 25 40 l 1
EndSplineSet
Validated: 1
AlternateSubs2: "'ssty' Math Script Style lookup 4 subtable" triagup.ssty triagup.ssty2
AlternateSubs2: "'aalt' Access All Alternates lookup 1 subtable" triagup.ssty triagup.ssty2
EndChar

StartChar: uni25B6
Encoding: 478 9654 274
Width: 110
GlyphClass: 2
Flags: MW
HStem: 50 10<70 90 70 90> 70 20G
VStem: 10 20<20 30 80 90>
LayerCount: 2
Fore
SplineSet
30 30 m 1
 30 20 l 1
 10 20 l 1xe0
 10 90 l 1
 30 90 l 1
 30 80 l 1
 50 80 l 1
 50 70 l 1x60
 70 70 l 1
 70 60 l 1
 90 60 l 1
 90 50 l 1
 70 50 l 1
 70 40 l 1
 50 40 l 1
 50 30 l 1
 30 30 l 1
EndSplineSet
Validated: 1
AlternateSubs2: "'ssty' Math Script Style lookup 4 subtable" trianglerightblack.ssty trianglerightblack.ssty2
AlternateSubs2: "'aalt' Access All Alternates lookup 1 subtable" trianglerightblack.ssty trianglerightblack.ssty2
EndChar

StartChar: uni25B7
Encoding: 479 9655 275
Width: 110
GlyphClass: 2
Flags: MW
HStem: 30 10<20 50 30 50 30 50 30 50> 40 10<30 70 50 70 50 70 50 70> 50 10<50 70 70 90> 60 10<30 50 50 70> 70 10<30 50 20 30> 80 10<20 30 20 20 10 50>
VStem: 10 10<30 80 30 90> 30 20<20 40 20 40 30 40 30 40 70 80> 50 20<30 50 30 50 40 50 40 50 60 70> 70 20<40 60 40 60 50 60 50 60 50 70 50 60>
CounterMasks: 1 a8
LayerCount: 2
Fore
SplineSet
30 30 m 1x9740
 30 20 l 1
 10 20 l 1
 10 90 l 1
 30 90 l 1
 30 80 l 1x9740
 50 80 l 1
 50 70 l 1xaa80
 70 70 l 1
 70 60 l 1
 90 60 l 1
 90 50 l 1
 70 50 l 1x5740
 70 40 l 1
 50 40 l 1
 50 30 l 1
 30 30 l 1x9740
50 60 m 1
 50 70 l 1
 30 70 l 1
 30 80 l 1
 20 80 l 1
 20 30 l 1
 30 30 l 1
 30 40 l 1x9680
 50 40 l 1
 50 50 l 1
 70 50 l 1x5680
 70 60 l 1
 50 60 l 1
EndSplineSet
Validated: 5
AlternateSubs2: "'ssty' Math Script Style lookup 4 subtable" trianglerightwhite.ssty trianglerightwhite.ssty2
AlternateSubs2: "'aalt' Access All Alternates lookup 1 subtable" trianglerightwhite.ssty trianglerightwhite.ssty2
EndChar

StartChar: uni25B8
Encoding: 480 9656 276
Width: 110
GlyphClass: 2
Flags: MW
HStem: 40 20<70 90 70 90>
VStem: 30 20<20 30 70 80>
LayerCount: 2
Fore
SplineSet
30 20 m 1
 30 80 l 1
 50 80 l 1
 50 70 l 1
 70 70 l 1
 70 60 l 1
 90 60 l 1
 90 40 l 1
 70 40 l 1
 70 30 l 1
 50 30 l 1
 50 20 l 1
 30 20 l 1
EndSplineSet
Validated: 1
AlternateSubs2: "'ssty' Math Script Style lookup 4 subtable" trianglerightsmallblack.ssty trianglerightsmallblack.ssty2
AlternateSubs2: "'aalt' Access All Alternates lookup 1 subtable" trianglerightsmallblack.ssty trianglerightsmallblack.ssty2
EndChar

StartChar: triagdn
Encoding: 481 9660 277
Width: 110
GlyphClass: 2
Flags: MW
HStem: 80 20<15 25 15 95 85 85 85 95>
VStem: 45 20<20 40 20 40>
LayerCount: 2
Fore
SplineSet
25 80 m 1
 15 80 l 1
 15 100 l 1
 95 100 l 1
 95 80 l 1
 85 80 l 1
 85 60 l 1
 75 60 l 1
 75 40 l 1
 65 40 l 1
 65 20 l 1
 45 20 l 1
 45 40 l 1
 35 40 l 1
 35 60 l 1
 25 60 l 1
 25 80 l 1
EndSplineSet
Validated: 1
AlternateSubs2: "'ssty' Math Script Style lookup 4 subtable" triagdn.ssty triagdn.ssty2
AlternateSubs2: "'aalt' Access All Alternates lookup 1 subtable" triagdn.ssty triagdn.ssty2
EndChar

